if (_typeface_js && _typeface_js.loadFace) _typeface_js.loadFace({"glyphs":{"0":{"ha":738,"x_min":0,"x_max":0,"o":"m 235 633 b 275 732 243 674 256 707 b 350 768 293 756 318 768 b 481 481 437 768 481 673 b 350 193 481 289 437 193 b 275 230 318 193 293 205 b 235 330 256 254 243 288 b 224 481 228 375 224 425 b 235 633 224 537 228 587 z m 633 819 b 524 939 607 868 570 908 b 350 985 477 969 418 985 b 180 939 281 985 225 970 b 71 817 133 909 97 868 b 16 656 44 766 26 713 b 0 481 5 597 0 538 b 16 307 0 423 5 366 b 71 146 26 250 44 197 b 180 24 97 95 133 54 b 350 -22 227 -7 283 -22 b 564 54 439 -22 511 3 b 673 245 616 105 653 169 b 704 481 694 321 704 400 b 688 658 704 538 699 597 b 633 819 677 715 659 769 z "},"1":{"ha":369,"x_min":0,"x_max":0,"o":"m 111 795 l 111 -1 l 335 -1 l 335 960 l 0 960 l 1 798 z "},"2":{"ha":749,"x_min":0,"x_max":0,"o":"m 424 216 l 434 229 l 445 241 b 467 268 454 252 461 260 b 518 328 486 290 503 310 b 596 431 547 362 572 397 b 652 542 619 467 638 504 b 675 669 668 581 675 624 b 631 838 675 734 661 789 b 509 947 600 885 559 922 b 340 985 456 972 399 985 b 159 945 272 985 211 972 b 9 795 105 919 55 869 l 213 665 b 252 741 220 696 233 722 b 326 768 271 759 295 768 b 415 739 360 768 390 758 b 452 659 439 718 452 692 b 425 555 452 623 443 589 b 346 436 405 519 378 479 l 0 0 l 715 0 l 715 216 z "},"3":{"ha":736,"x_min":0,"x_max":0,"o":"m 169 705 l 171 707 l 174 710 b 183 718 177 713 180 715 l 188 723 b 192 726 190 725 191 726 b 202 735 194 728 197 732 b 239 765 219 749 231 760 b 274 782 250 772 262 778 b 318 789 286 787 301 789 b 404 762 353 789 381 780 b 436 679 425 743 436 716 b 417 616 436 651 430 631 b 367 587 404 602 387 592 b 300 579 347 583 324 580 l 281 578 l 264 578 b 245 578 258 578 252 578 l 231 578 l 231 410 l 241 410 l 252 410 b 270 411 261 410 267 410 l 308 411 b 419 391 353 411 391 404 b 460 311 446 378 460 351 b 422 222 460 271 448 242 b 328 193 397 203 366 193 b 234 218 291 193 260 201 b 157 292 209 233 183 258 l 0 132 b 94 52 25 102 56 75 b 208 -3 130 28 168 9 b 329 -22 247 -16 287 -22 b 467 -5 376 -22 422 -16 b 587 51 511 7 551 26 b 672 147 623 76 651 108 b 703 286 692 186 703 233 b 686 376 703 317 697 347 b 640 455 675 405 659 431 b 568 513 619 478 595 497 b 637 598 600 541 623 569 b 659 703 652 629 659 663 b 617 854 659 759 645 810 b 504 951 589 897 551 929 b 350 985 458 974 407 985 b 152 939 278 985 212 970 b 4 802 92 909 42 863 z "},"4":{"ha":765,"x_min":0,"x_max":0,"o":"m 730 380 l 611 380 l 611 -6 l 386 -5 l 386 378 l 1 378 l 0 962 l 225 962 l 225 574 l 386 574 l 386 962 l 611 962 l 611 574 l 731 574 z "},"5":{"ha":697,"x_min":0,"x_max":0,"o":"m 0 75 b 279 -22 115 5 208 -27 b 425 1 329 -22 377 -14 b 549 72 471 17 512 41 b 633 184 585 102 613 140 b 663 330 653 229 663 278 b 332 667 650 535 540 647 b 316 666 323 667 317 667 l 309 665 l 302 665 b 279 663 296 664 288 663 l 279 746 l 551 746 l 550 962 l 56 962 l 56 446 b 242 484 122 471 184 484 b 367 448 290 484 331 472 b 420 343 402 425 420 390 b 378 235 420 299 406 263 b 281 193 351 208 318 193 b 117 277 209 197 155 225 z "},"6":{"ha":738,"x_min":0,"x_max":0,"o":"m 362 964 b 99 646 252 852 165 747 b 0 324 33 545 0 437 b 45 133 0 252 15 188 b 174 7 76 78 119 36 b 359 -38 229 -23 291 -38 b 539 5 427 -38 487 -24 b 661 130 591 35 632 76 b 704 313 690 183 704 245 b 669 472 704 372 692 425 b 568 587 645 519 611 557 b 415 629 524 614 473 629 b 340 615 387 629 362 624 l 337 618 b 452 761 370 667 408 714 b 652 964 502 814 568 882 z m 288 197 b 241 245 269 208 252 224 b 223 311 229 264 223 287 b 261 406 223 348 236 380 b 354 446 286 433 317 446 b 418 427 378 446 399 439 b 464 378 438 415 453 399 b 480 311 475 357 480 334 b 444 217 480 274 468 243 b 354 178 419 191 389 178 b 288 197 330 178 308 184 z "},"7":{"ha":679,"x_min":0,"x_max":0,"o":"m 75 1 l 332 3 l 645 962 l 2 962 l 0 748 l 338 748 z "},"8":{"ha":730,"x_min":0,"x_max":0,"o":"m 342 415 b 452 347 400 390 437 368 b 473 288 466 328 473 308 b 435 203 473 250 460 222 b 339 174 410 183 378 174 b 258 206 307 174 280 184 b 224 285 235 227 224 254 b 248 349 224 308 232 330 b 342 415 263 369 294 391 z m 423 661 b 349 607 412 645 387 627 b 249 703 282 649 249 681 b 275 764 249 726 258 747 b 339 789 292 781 313 789 b 441 715 407 789 441 764 b 423 661 441 694 435 676 z m 122 916 b 50 827 91 892 67 862 b 25 700 33 792 25 749 b 134 498 25 618 61 551 b 37 399 94 473 62 439 b 0 268 12 357 0 314 b 49 113 0 209 16 157 b 177 12 81 68 123 35 b 346 -22 231 -11 287 -22 b 473 -3 391 -22 433 -16 b 586 52 515 9 553 28 b 666 144 621 78 647 109 b 696 268 686 182 696 223 b 663 405 696 323 685 368 b 560 507 641 441 607 475 b 635 590 592 527 617 554 b 664 701 654 626 664 663 b 576 910 664 790 635 860 b 356 985 517 960 444 985 b 229 968 311 985 269 979 b 122 916 189 957 153 940 z "},"9":{"ha":738,"x_min":0,"x_max":0,"o":"m 334 -1 b 605 313 451 112 542 216 b 704 629 671 413 704 519 b 659 817 704 701 689 764 b 531 941 628 871 586 912 b 345 985 476 970 414 985 b 165 942 277 985 218 970 b 43 821 113 913 72 873 b 0 640 14 768 0 709 b 36 485 0 584 12 532 b 137 372 60 438 93 400 b 289 331 180 345 230 331 b 364 344 319 331 345 335 l 367 341 b 253 201 336 296 298 250 b 52 1 179 125 112 59 z m 416 755 b 463 708 435 743 452 728 b 481 643 475 688 481 667 b 443 549 481 607 468 576 b 350 511 418 524 387 511 b 286 528 327 511 305 517 b 240 577 266 540 251 556 b 224 643 229 598 224 621 b 260 734 224 679 236 709 b 350 772 285 760 315 772 b 416 755 374 772 396 766 z "},"\u0000":{"ha":835,"x_min":0,"x_max":0,"o":""}," ":{"ha":256,"x_min":0,"x_max":0,"o":""},"!":{"ha":313,"x_min":0,"x_max":0,"o":"m 77 216 b 31 172 58 205 43 191 b 14 111 20 153 14 134 b 31 47 14 89 20 67 b 75 2 41 28 56 13 b 137 -14 94 -9 115 -14 b 224 22 171 -14 200 -2 b 259 111 248 45 259 75 b 242 171 259 133 254 153 b 197 216 231 189 216 204 b 137 232 178 227 158 232 b 77 216 116 232 96 227 z m 245 300 l 279 963 l 0 963 l 34 300 z "},"\"":{"ha":454,"x_min":0,"x_max":0,"o":"m 420 582 l 420 962 l 254 962 l 254 582 z m 166 582 l 166 962 l 0 962 l 0 582 z "},"#":{"ha":723,"x_min":0,"x_max":0,"o":"m 539 410 l 564 572 l 684 572 l 689 705 l 585 705 l 620 962 l 481 962 l 444 705 l 317 705 l 355 962 l 216 962 l 178 705 l 47 705 l 42 572 l 160 572 l 138 410 l 6 410 l 0 277 l 119 277 l 81 0 l 220 0 l 257 277 l 384 277 l 346 0 l 485 0 l 522 277 l 642 277 l 648 410 z m 403 410 l 277 410 l 299 572 l 425 572 z "},"$":{"ha":564,"x_min":0,"x_max":0,"o":"m 201 895 b 152 876 184 891 168 885 b 54 789 112 857 79 827 b 16 655 29 751 16 706 b 60 504 16 589 31 538 b 165 428 90 469 124 444 b 224 404 182 421 201 413 l 252 391 l 281 380 b 336 317 317 363 336 342 b 307 266 336 294 326 277 b 245 248 287 254 267 248 b 111 315 191 248 146 271 l 0 157 b 118 83 35 124 74 99 b 201 62 147 73 175 66 l 201 22 l 362 22 l 362 77 b 451 130 395 88 425 106 b 530 330 503 176 530 243 b 486 485 530 397 515 449 b 380 561 455 520 420 545 b 265 608 354 571 315 587 b 211 670 229 624 211 645 b 235 713 211 688 219 702 b 285 730 251 725 267 730 b 349 716 310 730 331 726 b 413 667 368 706 389 690 l 513 810 b 404 882 480 842 444 866 b 362 895 391 887 378 892 l 362 938 l 201 938 z "},"%":{"ha":825,"x_min":0,"x_max":0,"o":"m 328 621 b 384 756 365 658 384 703 b 328 892 384 810 365 855 b 192 948 290 930 245 948 b 56 892 138 948 94 930 b 0 756 19 855 0 810 b 56 621 0 703 19 658 b 192 564 94 583 139 564 b 328 621 245 564 290 583 z m 115 756 b 138 810 115 777 123 795 b 192 833 153 825 171 833 b 246 810 213 833 231 825 b 269 756 261 795 269 777 b 246 702 269 735 261 717 b 192 680 231 687 213 680 b 138 702 171 680 153 687 b 115 756 123 717 115 735 z m 734 73 b 791 208 772 110 791 155 b 734 345 791 262 772 307 b 599 400 697 382 652 400 b 463 345 545 400 500 382 b 407 208 426 307 407 262 b 463 73 407 155 426 110 b 599 16 500 35 546 16 b 734 73 652 16 697 35 z m 522 208 b 545 262 522 229 530 248 b 599 285 559 277 578 285 b 653 262 620 285 638 277 b 675 208 668 248 675 229 b 653 154 675 187 668 169 b 599 132 638 139 620 132 b 545 154 578 132 559 139 b 522 208 530 169 522 187 z m 670 962 l 560 962 l 79 0 l 186 0 z "},"&":{"ha":804,"x_min":0,"x_max":0,"o":"m 770 345 b 711 286 767 343 747 323 b 673 244 699 271 686 257 l 698 215 l 723 186 l 729 178 l 734 172 b 743 162 739 168 742 164 l 610 48 b 572 94 597 63 585 78 l 553 115 l 535 136 b 456 91 510 119 484 104 b 224 87 385 56 307 56 b 64 242 145 119 92 170 b 157 555 21 350 52 454 b 104 707 123 603 106 653 b 163 856 102 768 121 818 b 254 901 186 878 216 893 b 367 903 288 910 326 910 b 518 798 441 888 491 854 b 419 533 564 706 531 618 b 478 467 439 511 458 490 b 558 376 505 438 531 408 b 656 475 603 417 635 450 z m 296 694 b 328 647 302 682 313 667 b 359 681 342 658 353 669 b 368 720 366 692 368 705 b 357 751 368 732 364 743 b 330 764 349 760 340 764 b 300 753 318 764 308 760 b 290 721 293 745 290 735 b 296 694 290 711 292 703 z m 258 441 b 229 398 245 433 236 418 b 220 334 221 376 218 355 b 255 258 223 301 235 276 b 326 235 275 239 299 232 b 374 249 343 236 359 241 b 410 277 389 256 401 266 z "},"'":{"ha":200,"x_min":0,"x_max":0,"o":"m 166 582 l 166 962 l 0 962 l 0 582 z "},"(":{"ha":417,"x_min":0,"x_max":0,"o":"m 273 1086 b 121 876 212 1021 161 951 b 30 633 80 799 50 718 b 0 370 10 546 0 458 b 73 10 0 249 24 129 b 274 -304 121 -107 188 -212 l 382 -195 b 283 -64 344 -155 311 -111 b 214 82 255 -18 233 31 b 173 243 196 130 182 184 b 159 407 163 299 159 354 b 185 613 159 475 168 543 b 262 811 203 682 229 748 b 383 981 296 873 336 930 z "},")":{"ha":417,"x_min":0,"x_max":0,"o":"m 1 977 b 100 846 39 938 72 895 b 170 699 130 797 153 748 b 211 542 189 648 202 595 b 224 375 220 486 224 430 b 210 219 224 321 220 269 b 166 68 200 168 186 117 b 96 -73 146 18 123 -28 b 0 -199 68 -117 36 -159 l 111 -304 b 231 -148 156 -256 197 -204 b 317 26 266 -93 294 -35 b 367 215 339 90 356 152 b 383 412 378 279 383 345 b 350 656 383 496 372 577 b 255 887 328 737 296 814 b 109 1086 214 960 165 1027 z "},"*":{"ha":470,"x_min":0,"x_max":0,"o":"m 27 869 l 100 795 l 166 861 l 166 766 l 269 766 l 269 862 l 337 794 l 410 867 l 342 935 l 436 935 l 436 1038 l 343 1038 l 409 1104 l 336 1177 l 269 1111 l 269 1206 l 166 1206 l 166 1111 l 98 1179 l 26 1105 l 93 1038 l 0 1038 l 0 935 l 93 935 z "},"+":{"ha":727,"x_min":0,"x_max":0,"o":"m 426 570 l 633 570 l 682 385 l 426 385 l 426 119 l 243 119 l 243 385 l 37 385 l -12 570 l 243 570 l 243 838 l 426 838 z "},",":{"ha":273,"x_min":0,"x_max":0,"o":"m 239 212 l 0 212 l 0 127 b 35 52 2 98 14 73 b 100 20 54 34 75 23 b 48 1 86 12 69 6 l 49 -66 b 239 135 165 -46 229 21 z "},"-":{"ha":503,"x_min":0,"x_max":0,"o":"m 49 385 l 0 570 l 421 570 l 469 385 z "},".":{"ha":279,"x_min":0,"x_max":0,"o":"m 62 212 b 17 168 43 201 28 186 b 0 107 5 149 0 130 b 16 43 0 85 5 63 b 61 -2 27 24 42 9 b 123 -18 79 -13 100 -18 b 210 18 157 -18 186 -6 b 245 107 233 41 245 71 b 228 167 245 129 239 149 b 183 212 216 185 201 200 b 123 228 164 222 144 228 b 62 212 102 228 81 222 z "},"/":{"ha":478,"x_min":0,"x_max":0,"o":"m 430 962 l 245 962 l 1 0 l 184 0 z "},":":{"ha":279,"x_min":0,"x_max":0,"o":"m 62 252 b 17 208 43 241 28 227 b 0 147 5 189 0 170 b 16 83 0 125 5 103 b 61 38 27 64 42 49 b 123 22 79 27 100 22 b 210 58 157 22 186 34 b 245 147 233 81 245 111 b 228 207 245 169 239 189 b 183 252 216 225 201 240 b 123 268 164 262 144 268 b 62 252 102 268 81 262 z m 62 638 b 17 594 43 628 28 613 b 0 534 5 576 0 556 b 16 470 0 511 5 490 b 61 425 27 450 42 435 b 123 408 79 414 100 408 b 210 444 157 408 186 420 b 245 534 233 468 245 498 b 228 593 245 555 239 575 b 183 638 216 612 201 627 b 123 654 164 649 144 654 b 62 638 102 654 81 649 z "},";":{"ha":285,"x_min":0,"x_max":0,"o":"m 68 641 b 23 597 50 631 35 616 b 6 536 12 578 6 559 b 22 473 6 514 12 492 b 67 427 33 453 48 438 b 129 411 85 416 106 411 b 216 447 163 411 192 423 b 251 536 239 471 251 500 b 234 596 251 558 245 578 b 189 641 222 614 208 629 b 129 657 170 652 150 657 b 68 641 108 657 87 652 z m 239 212 l 0 212 l 0 127 b 35 52 2 98 14 73 b 100 20 54 34 75 23 b 48 1 86 12 69 6 l 49 -66 b 239 135 182 -46 245 21 z "},"<":{"ha":880,"x_min":0,"x_max":0,"o":"m 418 485 l 842 673 l 842 887 l -3 489 l 842 80 l 842 294 z "},"=":{"ha":622,"x_min":0,"x_max":0,"o":"m 49 493 l 0 679 l 540 679 l 588 493 z m 49 229 l 0 414 l 540 414 l 588 229 z "},">":{"ha":880,"x_min":0,"x_max":0,"o":"m -3 294 l -3 80 l 842 489 l -3 887 l -3 673 l 421 485 z "},"?":{"ha":652,"x_min":0,"x_max":0,"o":"m 167 724 b 285 798 199 773 238 798 b 352 774 310 798 332 790 b 382 717 372 759 382 739 b 370 671 382 699 378 683 b 336 639 362 660 351 649 l 313 624 l 290 608 b 224 537 262 590 240 566 b 200 415 208 508 200 467 l 200 314 l 412 314 l 412 392 b 426 439 412 411 416 427 b 465 477 432 450 446 462 l 490 496 l 515 515 b 591 600 547 540 572 568 b 618 725 609 631 618 673 b 594 838 618 766 610 803 b 526 925 577 871 555 901 b 427 981 498 949 465 968 b 310 1000 389 994 350 1000 b 189 982 269 1000 228 994 b 83 928 150 969 115 951 b 0 838 52 904 24 873 z m 243 216 b 198 172 224 205 210 191 b 181 111 186 153 181 134 b 197 47 181 89 186 67 b 242 2 208 28 223 13 b 304 -14 260 -9 281 -14 b 391 22 338 -14 367 -2 b 426 111 414 45 426 75 b 409 171 426 133 420 153 b 364 216 397 189 382 204 b 304 232 345 227 325 232 b 243 216 283 232 262 227 z "},"@":{"ha":1560,"x_min":0,"x_max":0,"o":"m 924 374 b 874 492 923 420 907 459 b 756 540 841 524 802 540 b 637 491 709 540 670 524 b 589 372 605 458 589 419 b 637 254 589 326 605 287 b 756 205 670 221 709 205 b 874 254 802 205 842 221 b 924 372 907 286 923 326 z m 60 670 b 224 913 99 762 154 843 b 467 1077 294 983 375 1038 b 764 1137 559 1117 659 1137 b 1060 1077 868 1137 967 1117 b 1303 913 1152 1038 1232 983 b 1467 670 1373 842 1428 762 b 1527 374 1507 577 1527 478 b 1430 114 1527 267 1494 180 b 1185 18 1367 50 1285 18 b 1002 95 1107 18 1046 43 b 756 1 932 33 850 1 b 612 31 704 1 656 11 b 494 110 567 49 528 75 b 414 228 459 144 433 184 b 385 372 394 273 385 321 b 414 517 385 425 394 473 b 494 635 433 562 459 602 b 612 715 527 669 566 696 b 756 744 656 734 704 744 b 924 704 814 744 869 730 l 924 736 l 1126 736 l 1125 370 b 1135 305 1124 349 1127 327 b 1234 239 1152 261 1185 239 b 1292 260 1259 239 1278 246 b 1317 307 1303 272 1312 288 b 1322 374 1323 328 1324 350 b 1278 591 1322 448 1307 520 b 1158 768 1249 657 1209 716 b 981 888 1106 819 1047 859 b 764 932 910 917 838 932 b 547 888 688 932 616 917 b 369 768 479 859 420 819 b 249 591 317 716 277 657 b 205 374 220 520 205 448 b 249 156 205 299 220 227 b 369 -21 277 90 317 31 b 547 -141 420 -73 479 -113 b 764 -185 616 -170 688 -185 b 1055 -102 867 -185 965 -157 l 1148 -286 b 764 -390 1029 -355 901 -390 b 467 -330 661 -390 562 -370 b 224 -166 376 -292 295 -237 b 60 77 153 -95 98 -14 b 0 374 20 172 0 271 b 60 670 0 476 20 574 z "},"A":{"ha":1094,"x_min":0,"x_max":0,"o":"m 625 349 l 530 519 l 435 349 z m 722 171 l 338 171 l 243 0 l 0 0 l 408 741 l 530 962 l 652 741 l 1060 0 l 817 0 z "},"B":{"ha":736,"x_min":0,"x_max":0,"o":"m 301 774 b 389 752 334 774 364 766 b 426 679 414 737 426 713 b 397 606 426 647 416 623 b 310 579 377 588 349 579 l 248 579 l 248 774 z m 0 0 l 340 0 b 613 74 462 0 553 24 b 703 268 673 123 703 187 b 691 348 703 296 699 322 b 658 415 683 374 672 396 b 607 469 644 435 627 453 b 543 505 587 484 566 496 l 543 509 b 638 587 583 526 614 551 b 673 710 662 622 673 663 b 620 859 673 772 656 821 b 478 939 584 896 536 923 b 283 962 418 954 353 962 l 0 962 z m 310 390 b 417 370 357 390 392 383 b 455 288 442 356 455 329 b 313 189 455 222 408 189 l 248 189 l 248 390 z "},"C":{"ha":849,"x_min":0,"x_max":0,"o":"m 815 132 b 712 46 785 98 751 70 b 475 -21 640 1 561 -21 b 237 46 389 -21 310 1 b 64 229 164 92 106 153 b 0 481 21 305 0 389 b 64 735 0 574 21 659 b 237 918 106 812 165 873 b 475 985 310 963 389 985 b 712 918 561 985 640 963 b 814 834 751 895 785 866 l 659 673 b 602 726 637 697 619 715 b 475 766 562 752 519 766 b 347 726 430 766 387 752 b 254 620 309 699 277 664 b 220 481 232 576 220 530 b 255 343 220 433 232 387 b 348 237 278 299 309 264 b 475 197 387 211 429 197 b 602 237 520 197 563 211 b 660 292 621 251 641 269 z "},"D":{"ha":886,"x_min":0,"x_max":0,"o":"m 344 1 b 541 37 414 1 479 13 b 704 139 603 62 657 96 b 813 293 750 182 787 234 b 852 481 840 351 852 414 b 813 671 852 550 840 613 b 704 825 787 730 750 782 b 542 926 656 869 602 903 b 344 963 480 951 414 963 l 0 963 l 0 1 z m 322 758 b 434 736 361 758 398 751 b 526 675 470 720 500 701 b 585 587 551 650 570 621 b 607 481 600 551 607 516 b 586 377 607 444 600 409 b 525 288 572 344 551 314 b 433 226 498 261 468 241 b 322 203 398 211 361 203 l 245 203 l 245 758 z "},"E":{"ha":645,"x_min":0,"x_max":0,"o":"m 610 203 l 236 203 l 236 389 l 481 389 l 427 591 l 236 591 l 236 758 l 581 758 l 583 962 l 0 962 l 0 0 l 611 0 z "},"F":{"ha":616,"x_min":0,"x_max":0,"o":"m 236 1 l 236 389 l 481 389 l 427 592 l 236 592 l 236 758 l 583 758 l 583 962 l 0 962 l 0 1 z "},"G":{"ha":945,"x_min":0,"x_max":0,"o":"m 884 845 b 775 918 853 872 817 897 b 646 964 734 939 691 954 b 509 980 597 975 552 980 b 254 913 417 980 332 958 b 68 730 176 867 114 806 b 0 476 23 652 0 567 b 68 223 0 385 23 300 b 254 40 114 146 176 85 b 509 -27 332 -5 417 -27 b 621 -19 544 -27 581 -24 b 729 2 665 -13 701 -5 b 829 34 760 9 793 20 b 911 72 867 49 895 62 l 911 569 l 496 569 l 581 366 l 675 366 l 675 227 b 614 199 662 214 642 205 b 539 191 587 194 562 191 b 386 226 483 191 432 203 b 277 324 339 248 303 281 b 236 476 250 367 236 418 b 257 589 236 518 243 556 b 316 680 271 624 291 654 b 407 739 341 705 372 725 b 521 760 441 753 479 760 b 641 737 563 760 603 753 b 745 673 680 722 714 701 z "},"H":{"ha":811,"x_min":0,"x_max":0,"o":"m 236 0 l 0 0 l 0 962 l 236 962 l 236 611 l 541 611 l 541 962 l 777 962 l 777 0 l 541 0 l 541 393 l 236 393 z "},"I":{"ha":270,"x_min":0,"x_max":0,"o":"m 0 1 l 236 0 l 236 962 l 0 962 z "},"J":{"ha":511,"x_min":0,"x_max":0,"o":"m 477 964 l 477 36 l 476 36 b 460 -53 474 3 469 -26 b 328 -256 437 -130 393 -197 b 101 -374 262 -314 187 -353 b 0 -389 71 -382 37 -387 l 0 -182 l 15 -180 l 30 -178 l 34 -177 l 39 -176 l 41 -176 l 43 -176 b 166 -111 92 -163 132 -141 b 239 0 201 -80 225 -43 b 243 17 241 5 242 10 b 248 46 245 26 247 35 l 249 46 l 249 964 z "},"K":{"ha":797,"x_min":0,"x_max":0,"o":"m 508 1 l 763 1 l 457 467 l 761 963 l 507 963 l 226 504 l 226 963 l 0 963 l 0 1 l 226 1 l 226 432 z "},"L":{"ha":650,"x_min":0,"x_max":0,"o":"m 616 220 l 236 220 l 236 962 l 0 962 l 0 0 l 553 0 z "},"M":{"ha":930,"x_min":0,"x_max":0,"o":"m 899 961 l 899 -1 l 644 0 l 643 461 l 441 268 l 254 454 l 253 -1 l 2 -1 l 2 961 l 441 585 z "},"N":{"ha":883,"x_min":0,"x_max":0,"o":"m 849 961 l 613 962 l 613 518 l 3 962 l 0 2 l 237 2 l 237 498 l 846 -1 z "},"O":{"ha":1050,"x_min":0,"x_max":0,"o":"m 273 619 b 372 725 297 663 330 699 b 509 765 414 751 459 765 b 645 725 557 765 602 751 b 744 619 686 699 720 663 b 781 481 768 575 781 529 b 744 342 781 433 768 387 b 644 236 719 298 686 262 b 509 196 603 210 557 196 b 372 236 459 196 414 210 b 273 342 332 262 298 298 b 236 481 248 387 236 433 b 273 619 236 529 248 575 z m 948 734 b 763 918 903 811 841 872 b 509 985 685 962 600 985 b 254 918 417 985 332 962 b 68 734 176 872 114 811 b 0 481 23 656 0 572 b 68 228 0 389 23 304 b 254 45 114 151 176 90 b 509 -22 332 0 417 -22 b 763 45 600 -22 685 0 b 948 228 841 90 903 151 b 1017 481 994 304 1017 389 b 948 734 1017 572 994 656 z "},"P":{"ha":709,"x_min":0,"x_max":0,"o":"m 237 0 l 237 347 l 319 347 b 458 369 366 347 413 355 b 573 431 503 383 541 404 b 648 527 605 457 630 489 b 675 654 667 564 675 606 b 648 802 675 713 667 762 b 571 897 630 842 604 873 b 452 947 539 920 499 937 b 288 962 408 958 353 962 l 0 962 l 0 0 z m 304 758 b 405 732 348 758 381 749 b 439 656 428 714 439 689 b 405 578 439 622 428 596 b 304 551 381 560 348 551 l 237 551 l 237 758 z "},"Q":{"ha":1050,"x_min":0,"x_max":0,"o":"m 781 490 b 744 629 781 538 768 584 b 645 734 719 673 686 709 b 509 774 602 761 557 774 b 372 734 460 774 414 761 b 273 629 330 708 297 673 b 236 490 248 585 236 538 b 273 351 236 441 248 395 b 372 245 298 307 331 272 b 509 205 414 219 459 205 b 644 245 556 205 602 219 b 744 351 686 272 719 307 b 781 490 768 395 781 442 z m 252 55 b 68 237 175 100 114 160 b 0 490 23 315 0 399 b 68 744 0 581 23 666 b 254 927 114 821 176 882 b 509 994 332 972 417 994 b 762 927 600 994 684 972 b 948 744 840 882 902 821 b 1017 490 994 667 1017 583 b 948 237 1017 399 994 315 b 762 54 903 161 841 100 b 718 31 751 47 736 39 b 918 -164 804 12 871 -54 l 922 -175 b 934 -218 924 -180 928 -195 l 741 -289 b 739 -243 745 -277 743 -261 l 738 -243 l 737 -240 l 736 -237 l 735 -234 l 734 -233 l 734 -232 l 734 -231 b 623 -186 716 -186 679 -172 l 624 -187 l 485 -239 b 89 -64 300 -307 168 -248 l 85 -54 b 73 -10 80 -37 76 -22 z m 465 -11 b 264 49 392 -5 325 14 b 269 14 263 37 264 25 l 269 14 l 270 12 l 271 9 l 272 6 l 273 3 l 273 3 b 384 -43 291 -42 328 -57 l 383 -41 z "},"R":{"ha":771,"x_min":0,"x_max":0,"o":"m 236 758 b 372 731 296 758 341 749 b 416 629 401 713 416 679 b 395 549 416 596 410 570 b 335 503 381 528 361 512 b 236 489 309 494 276 489 z m 236 2 l 236 432 l 239 432 l 461 1 l 737 1 l 498 421 b 610 517 545 439 583 471 b 652 665 638 564 652 614 b 604 837 652 735 636 793 b 469 932 572 881 527 913 b 268 962 410 952 343 962 l 0 962 l 0 2 z "},"S":{"ha":659,"x_min":0,"x_max":0,"o":"m 604 873 b 476 956 567 909 524 937 b 330 985 428 975 379 985 b 178 949 275 985 225 973 b 62 846 130 926 92 892 b 18 688 33 801 18 748 b 69 509 18 608 35 549 b 193 419 104 469 146 439 l 229 404 l 264 390 b 334 361 297 377 320 367 b 401 282 378 341 401 315 b 365 218 401 254 389 233 b 288 196 340 203 315 196 b 127 273 222 196 168 222 l 0 92 b 137 6 39 54 85 25 b 297 -22 189 -13 242 -22 b 532 61 393 -22 471 5 b 625 298 594 116 625 195 b 573 481 625 379 608 440 b 448 572 538 523 496 553 b 309 628 393 593 347 612 b 243 705 265 647 243 673 b 273 761 243 728 253 747 b 336 782 293 775 313 782 b 414 764 366 782 392 776 b 488 708 436 753 460 734 z "},"T":{"ha":743,"x_min":0,"x_max":0,"o":"m 244 0 l 480 0 l 480 743 l 709 743 l 652 962 l 0 962 l 59 743 l 244 743 z "},"U":{"ha":825,"x_min":0,"x_max":0,"o":"m 555 962 l 555 436 b 522 258 555 359 544 299 b 384 196 500 216 454 196 b 296 221 346 196 317 204 b 250 288 274 237 258 259 b 237 385 241 314 237 346 l 237 962 l 0 962 l 0 317 b 47 127 0 241 16 178 b 180 14 79 76 123 39 b 378 -22 236 -10 302 -22 b 592 20 458 -22 530 -8 b 738 144 654 48 703 90 b 791 334 773 197 791 261 l 791 962 z "},"V":{"ha":966,"x_min":0,"x_max":0,"o":"m 466 458 l 720 962 l 932 962 l 466 -39 l 0 962 l 214 962 z "},"W":{"ha":1279,"x_min":0,"x_max":0,"o":"m 0 962 l 332 -21 l 616 454 l 883 -21 l 1245 962 l 994 962 l 850 492 l 614 960 l 374 500 l 237 962 z "},"X":{"ha":960,"x_min":0,"x_max":0,"o":"m 244 -1 l 458 309 l 663 -1 l 924 -1 l 598 501 l 926 962 l 655 960 l 464 677 l 269 960 l 9 961 l 322 498 l 0 -1 z "},"Y":{"ha":882,"x_min":0,"x_max":0,"o":"m 552 446 l 552 0 l 302 0 l 302 444 l 0 962 l 276 962 l 425 678 l 574 962 l 848 962 z "},"Z":{"ha":880,"x_min":0,"x_max":0,"o":"m 0 0 l 807 0 l 806 220 l 389 220 l 846 962 l 62 962 l 131 743 l 460 743 z "},"[":{"ha":322,"x_min":0,"x_max":0,"o":"m 0 1180 l 0 1055 l 1 1055 l 1 -82 l 0 -82 l 0 -208 l 1 -208 l 1 -210 l 288 -208 l 288 -82 l 153 -82 l 153 1055 l 288 1055 l 288 1183 l 1 1181 l 1 1180 z "},"\\":{"ha":478,"x_min":0,"x_max":0,"o":"m 248 0 l 430 0 l 186 962 l 1 962 z "},"]":{"ha":322,"x_min":0,"x_max":0,"o":"m 288 1180 l 288 1181 l 0 1183 l 0 1055 l 135 1055 l 135 -82 l 0 -82 l 0 -208 l 288 -210 l 288 -208 l 288 -208 l 288 -82 l 288 -82 l 288 1055 l 288 1055 l 288 1180 z "},"^":{"ha":498,"x_min":0,"x_max":0,"o":"m 464 570 l 232 922 l 0 570 l 102 570 l 231 780 l 362 570 z "},"_":{"ha":488,"x_min":0,"x_max":0,"o":"m 454 -25 l 454 165 l 0 165 l 0 -25 z "},"`":{"ha":332,"x_min":0,"x_max":0,"o":"m 0 1317 l 200 1317 l 298 1044 l 148 1044 z "},"a":{"ha":829,"x_min":0,"x_max":0,"o":"m 397 526 b 309 503 366 526 336 518 b 241 439 281 487 259 466 b 216 351 224 412 216 383 b 271 227 216 303 235 262 b 397 176 307 193 349 176 b 525 227 447 176 489 193 b 579 351 561 262 579 303 b 554 439 579 383 571 412 b 487 503 536 466 514 487 b 397 526 459 518 429 526 z m 580 20 b 548 7 563 13 552 9 b 397 -20 499 -11 449 -20 b 201 28 329 -20 263 -4 b 55 161 140 60 91 104 b 0 351 18 218 0 281 b 32 499 0 404 11 453 b 119 617 53 545 82 584 b 247 694 157 650 199 676 b 397 722 296 712 346 722 b 548 694 450 722 500 713 b 675 617 597 676 640 650 b 764 499 713 583 743 543 b 795 351 785 453 795 404 l 795 -2 l 580 0 z "},"b":{"ha":829,"x_min":0,"x_max":0,"o":"m 397 174 b 271 226 349 174 307 191 b 216 351 235 260 216 302 b 241 437 216 382 224 411 b 309 501 259 465 281 486 b 397 525 336 517 366 525 b 487 501 429 525 459 517 b 554 437 514 486 536 465 b 579 351 571 411 579 382 b 525 226 579 302 561 260 b 397 174 489 191 446 174 z m 0 346 b 55 159 1 277 19 215 b 201 26 91 102 140 58 b 397 -22 263 -6 329 -22 b 548 5 450 -22 500 -13 b 676 83 594 22 637 48 b 764 203 713 117 743 157 b 795 351 785 247 795 296 b 764 498 795 403 785 452 b 676 616 743 543 713 583 b 548 694 639 651 596 677 b 397 721 499 712 449 721 b 248 694 347 721 296 712 l 232 688 l 216 681 l 216 967 l 0 966 z "},"c":{"ha":688,"x_min":0,"x_max":0,"o":"m 647 638 b 530 701 613 665 574 686 b 395 723 485 715 440 723 b 237 695 338 723 286 713 b 111 617 187 676 146 650 b 29 495 76 583 49 542 b 0 339 9 449 0 397 b 48 162 0 276 16 217 b 186 31 80 107 126 64 b 395 -19 247 -3 316 -19 b 486 -9 422 -19 453 -16 b 583 22 520 -2 552 8 b 654 71 614 37 639 54 l 536 221 b 399 170 498 187 452 170 b 303 197 363 170 331 179 b 239 267 275 214 253 237 b 216 366 224 296 216 329 b 269 486 216 414 234 454 b 395 534 303 517 345 534 b 471 522 422 534 447 530 b 534 485 493 513 515 501 z "},"d":{"ha":829,"x_min":0,"x_max":0,"o":"m 554 437 b 579 351 571 411 579 382 b 525 226 579 302 561 260 b 398 174 489 191 446 174 b 271 226 349 174 307 191 b 216 351 235 260 216 302 b 241 437 216 382 224 411 b 309 501 259 465 281 486 b 398 525 336 517 366 525 b 487 501 429 525 459 517 b 554 437 514 486 536 465 z m 795 966 l 579 967 l 579 681 l 564 688 l 548 694 b 398 721 499 712 449 721 b 248 694 347 721 296 712 b 119 616 199 677 157 651 b 32 498 82 583 53 543 b 0 351 11 452 0 403 b 31 203 0 296 10 247 b 119 83 52 157 82 117 b 248 5 159 48 201 22 b 398 -22 296 -13 346 -22 b 594 26 467 -22 532 -6 b 741 159 656 58 705 102 b 795 346 777 215 795 277 z "},"e":{"ha":796,"x_min":0,"x_max":0,"o":"m 514 460 b 467 503 499 478 484 492 b 381 526 440 518 412 526 b 296 503 351 526 322 518 b 248 460 279 492 263 478 l 514 460 z m 525 694 b 648 617 571 676 612 650 b 732 498 684 584 711 545 b 762 352 752 453 762 404 l 762 342 l 762 338 l 760 327 l 676 327 l 676 326 l 210 326 b 259 227 215 288 231 255 b 381 176 294 193 334 176 b 503 227 428 176 469 193 l 505 229 l 507 231 l 509 233 l 510 235 l 627 68 b 525 7 594 42 560 21 b 381 -20 479 -12 431 -20 b 193 28 314 -20 251 -4 b 53 161 134 60 87 105 b 0 352 18 218 0 281 b 31 498 0 405 10 454 b 115 616 51 544 79 583 b 237 694 151 651 191 677 b 381 722 283 713 331 722 b 525 694 431 722 479 713 z "},"f":{"ha":508,"x_min":0,"x_max":0,"o":"m -3 695 l 45 509 l 117 509 l 117 1 l 333 1 l 333 509 l 466 509 l 418 695 l 333 695 b 361 795 333 745 342 778 b 471 819 379 811 416 819 l 469 1019 b 282 988 395 1019 333 1009 b 160 889 230 967 189 935 b 117 695 131 844 117 779 z "},"g":{"ha":791,"x_min":0,"x_max":0,"o":"m 389 173 b 266 225 343 173 302 191 b 213 349 231 260 213 301 b 237 436 213 380 221 409 b 303 500 254 463 276 484 b 389 523 330 515 358 523 b 477 500 420 523 449 515 b 542 436 504 484 526 463 b 566 349 558 409 566 380 b 513 225 566 301 549 260 b 389 173 477 191 436 173 z m 758 345 b 563 689 758 519 692 633 b 376 722 522 711 460 722 b 234 694 328 722 281 712 b 113 616 189 675 149 650 b 31 495 78 581 50 541 b 0 346 10 450 0 400 b 52 153 0 275 18 210 b 191 18 87 94 133 50 b 376 -32 248 -16 310 -32 b 518 -4 425 -32 472 -22 l 524 -2 l 529 1 l 529 -71 l 528 -71 l 528 -75 l 528 -77 l 527 -79 l 527 -81 b 524 -98 526 -89 525 -94 l 522 -102 l 521 -107 l 519 -111 l 519 -113 b 469 -174 509 -138 492 -159 b 391 -199 446 -191 420 -199 b 298 -161 355 -199 324 -186 b 255 -71 271 -136 257 -106 l 48 -191 b 123 -301 57 -222 82 -260 b 369 -395 184 -362 267 -393 l 407 -395 b 544 -371 452 -395 498 -387 b 662 -301 593 -354 632 -331 b 757 -73 725 -238 757 -161 l 757 -22 z "},"h":{"ha":684,"x_min":0,"x_max":0,"o":"m 0 962 l 0 -1 l 217 0 l 217 401 b 246 495 217 443 227 474 b 325 526 265 516 292 526 b 405 495 359 526 386 516 b 433 401 424 474 433 443 l 433 -1 l 650 0 l 650 416 b 389 722 650 621 564 722 b 294 704 357 722 326 716 b 217 654 264 692 238 675 l 217 963 z "},"i":{"ha":259,"x_min":0,"x_max":0,"o":"m 1 693 l 1 -1 l 218 -1 l 218 694 z m 163 792 b 203 833 180 802 193 816 b 218 890 214 850 218 869 b 203 947 218 911 214 930 b 163 989 193 964 180 979 b 106 1004 146 999 127 1004 b 50 989 85 1004 66 999 b 8 947 33 979 19 965 b -7 890 -2 930 -7 911 b 9 833 -7 871 -1 851 b 50 791 19 815 33 802 b 106 777 66 781 85 777 b 163 792 127 777 146 782 z "},"j":{"ha":406,"x_min":0,"x_max":0,"o":"m 66 -258 b 213 -240 125 -258 174 -252 b 304 -186 252 -229 283 -210 b 352 -96 326 -163 342 -133 b 366 36 361 -57 366 -14 l 366 694 l 149 694 l 149 57 b 133 -20 149 22 144 -3 b 85 -54 122 -38 106 -50 b -2 -62 64 -60 35 -62 z m 315 792 b 355 833 332 802 345 816 b 370 890 366 850 370 869 b 355 947 370 911 366 930 b 315 989 345 964 332 979 b 258 1004 298 999 279 1004 b 201 989 237 1004 218 999 b 160 947 184 979 171 965 b 145 890 150 930 145 911 b 161 833 145 871 151 851 b 201 791 171 815 184 802 b 258 777 218 781 237 777 b 315 792 279 777 298 782 z "},"k":{"ha":777,"x_min":0,"x_max":0,"o":"m 217 0 l 217 340 l 472 0 l 743 0 l 448 396 l 699 694 l 444 694 l 220 431 l 217 431 l 217 962 l 0 962 l 0 0 z "},"l":{"ha":250,"x_min":0,"x_max":0,"o":"m 0 -1 l 216 1 l 216 963 l 0 962 z "},"m":{"ha":1043,"x_min":0,"x_max":0,"o":"m 614 427 b 696 525 618 490 645 523 l 709 525 b 791 410 764 523 791 484 l 791 -1 l 1008 -1 l 1008 410 b 709 722 1008 607 909 711 l 696 722 b 506 665 617 717 553 698 b 315 722 458 698 394 717 l 302 722 b 3 410 102 711 3 607 l 3 -1 l 220 -1 l 220 410 b 302 525 220 484 248 523 l 315 525 b 397 427 366 523 393 490 l 397 -1 l 614 -1 z "},"n":{"ha":646,"x_min":0,"x_max":0,"o":"m 300 526 b 217 410 245 524 217 485 l 217 0 l 0 0 l 0 410 b 300 722 0 608 100 711 l 312 722 b 612 410 512 711 612 608 l 612 0 l 395 0 l 395 410 b 312 526 395 485 367 524 z "},"o":{"ha":829,"x_min":0,"x_max":0,"o":"m 55 160 b 201 26 91 104 140 59 b 397 -22 263 -6 329 -22 b 548 5 450 -22 500 -13 b 676 83 595 23 637 49 b 764 203 713 118 743 158 b 795 351 785 248 795 297 b 764 499 795 404 785 453 b 676 618 743 544 713 584 b 548 696 638 653 595 679 b 397 723 500 714 450 723 b 248 696 346 723 296 714 b 119 618 199 677 157 651 b 32 499 82 585 53 545 b 0 351 11 453 0 404 b 55 160 0 281 18 217 z m 397 174 b 271 227 349 174 307 192 b 216 351 235 261 216 303 b 241 439 216 383 224 412 b 309 503 259 466 281 487 b 397 526 336 518 366 526 b 487 503 429 526 459 518 b 554 439 514 487 536 466 b 579 351 571 412 579 383 b 525 227 579 303 561 261 b 397 174 489 192 446 174 z "},"p":{"ha":829,"x_min":0,"x_max":0,"o":"m 397 526 b 271 474 349 526 307 509 b 216 349 235 439 216 397 b 241 262 216 317 224 288 b 309 199 259 235 281 214 b 397 175 336 183 366 175 b 487 199 429 175 459 183 b 554 262 514 214 536 235 b 579 349 571 289 579 317 b 525 474 579 397 561 439 b 397 526 489 509 446 526 z m 0 354 b 55 541 1 424 19 486 b 201 673 91 597 140 642 b 397 722 263 706 329 722 b 548 694 450 722 500 713 b 676 616 594 677 637 652 b 764 497 713 583 743 543 b 795 349 785 453 795 404 b 764 202 795 297 785 248 b 676 83 743 157 713 117 b 548 5 639 49 596 23 b 397 -21 500 -12 450 -21 b 248 5 347 -21 296 -12 l 232 12 l 216 19 l 216 -267 l 0 -267 z "},"q":{"ha":829,"x_min":0,"x_max":0,"o":"m 554 262 b 579 349 571 288 579 317 b 525 474 579 397 561 439 b 398 526 489 509 446 526 b 271 474 349 526 307 509 b 216 349 235 439 216 397 b 241 262 216 317 224 289 b 309 199 259 235 281 214 b 398 175 336 183 366 175 b 487 199 429 175 459 183 b 554 262 514 214 536 235 z m 795 -267 l 579 -267 l 579 19 l 564 12 l 548 5 b 398 -21 499 -12 449 -21 b 248 5 347 -21 296 -12 b 119 83 199 23 157 49 b 32 202 82 117 53 157 b 0 349 11 248 0 297 b 31 497 0 404 10 453 b 119 616 52 543 82 583 b 248 694 159 652 201 677 b 398 722 296 713 346 722 b 594 673 467 722 532 706 b 741 541 656 642 705 597 b 795 354 777 486 795 424 z "},"r":{"ha":390,"x_min":0,"x_max":0,"o":"m 356 513 b 312 526 344 522 329 526 l 300 526 b 217 411 245 524 217 486 l 217 0 l 0 0 l 0 411 b 300 722 0 608 100 712 l 312 722 b 356 718 328 722 342 720 z "},"s":{"ha":600,"x_min":0,"x_max":0,"o":"m 0 73 b 90 17 29 51 59 32 b 178 -13 116 3 146 -7 b 285 -22 212 -19 247 -22 b 421 5 331 -22 376 -13 b 526 86 465 22 500 50 b 566 214 553 122 566 164 b 520 359 566 280 551 328 b 408 421 491 389 454 410 b 287 452 366 431 326 441 b 232 504 250 462 232 479 b 306 545 232 532 256 545 b 420 506 347 545 385 532 l 539 625 b 469 675 518 643 495 660 b 386 710 445 688 418 700 b 302 722 357 718 328 722 b 167 696 252 722 208 713 b 68 621 126 680 94 654 b 31 494 43 586 31 544 b 77 351 31 429 46 381 b 190 286 107 319 144 297 b 311 255 238 273 278 262 b 364 211 347 245 364 231 b 267 154 364 173 332 154 b 110 218 205 154 153 176 z "},"t":{"ha":566,"x_min":0,"x_max":0,"o":"m 149 276 b 182 117 149 211 159 158 b 280 22 204 75 237 43 b 441 -9 322 1 376 -9 b 475 -6 453 -9 465 -8 l 537 210 b 480 201 525 203 506 201 b 365 293 404 201 365 231 l 365 509 l 460 509 l 509 695 l 365 695 l 365 961 l 149 962 l 149 695 l 54 695 l 5 509 l 149 509 z "},"u":{"ha":646,"x_min":0,"x_max":0,"o":"m 217 290 b 300 176 217 216 245 178 l 312 176 b 395 290 367 178 395 216 l 395 694 l 612 694 l 612 290 b 312 -21 612 94 512 -10 l 300 -21 b 0 290 100 -10 0 94 l 0 694 l 217 694 z "},"v":{"ha":752,"x_min":0,"x_max":0,"o":"m 488 694 l 355 386 l 220 694 l 0 692 l 353 -28 l 718 694 z "},"w":{"ha":1043,"x_min":0,"x_max":0,"o":"m 397 273 b 306 178 393 210 363 178 b 220 290 248 178 220 216 l 220 694 l 3 694 l 3 290 b 302 -22 3 93 102 -11 l 315 -22 b 505 35 394 -17 458 2 b 696 -22 553 2 617 -17 l 709 -22 b 1008 290 909 -11 1008 93 l 1008 694 l 791 694 l 791 290 b 705 178 791 216 763 178 b 614 273 648 178 618 210 l 614 694 l 397 694 z "},"x":{"ha":798,"x_min":0,"x_max":0,"o":"m 230 0 l 373 201 l 505 0 l 764 1 l 499 357 l 750 693 l 516 694 l 381 501 l 255 694 l 17 692 l 255 360 l 0 -1 z "},"y":{"ha":704,"x_min":0,"x_max":0,"o":"m 454 13 b 340 -17 414 -3 376 -14 b 20 289 127 -39 20 62 l 20 694 l 237 694 l 237 304 b 265 210 237 262 246 231 b 345 179 284 189 311 179 b 425 211 378 179 405 190 b 453 304 444 232 453 263 l 453 693 l 670 694 l 670 -82 b 581 -299 670 -166 640 -239 b 469 -366 553 -327 515 -349 b 339 -389 427 -381 383 -389 l 303 -389 b 71 -299 206 -387 129 -357 b 0 -195 33 -260 9 -225 l 196 -80 b 236 -167 198 -115 211 -143 b 325 -202 261 -191 290 -202 b 398 -179 351 -202 376 -195 b 445 -121 419 -165 435 -145 l 446 -119 l 447 -115 l 448 -111 l 450 -106 b 453 -90 451 -103 452 -98 l 453 -89 l 454 -87 l 454 -80 l 454 -80 z "},"z":{"ha":702,"x_min":0,"x_max":0,"o":"m 659 694 l 99 694 l 56 513 l 307 513 l 0 0 l 616 0 l 668 196 l 363 196 z "},"{":{"ha":450,"x_min":0,"x_max":0,"o":"m 0 339 b 94 319 31 339 62 332 b 142 241 126 305 142 279 l 142 -75 b 172 -180 142 -115 152 -151 b 245 -245 192 -209 216 -231 b 319 -268 273 -260 298 -268 l 416 -268 l 416 -154 l 382 -154 b 334 -146 361 -154 345 -151 b 306 -116 322 -141 313 -131 b 296 -50 299 -101 296 -79 l 296 248 b 271 340 295 289 287 319 b 218 382 256 361 238 374 b 151 395 196 389 174 393 l 151 399 b 214 412 172 399 193 404 b 271 454 237 420 256 434 b 296 533 287 473 295 500 l 296 831 b 382 935 296 900 324 935 l 416 935 l 416 1047 l 319 1047 b 244 1025 297 1047 272 1040 b 172 960 216 1011 192 989 b 142 854 152 931 142 896 l 142 539 b 94 471 142 506 126 484 b 0 453 62 459 31 453 z "},"|":{"ha":186,"x_min":0,"x_max":0,"o":"m 153 -189 l 153 1202 l 0 1202 l 0 -189 z "},"}":{"ha":450,"x_min":0,"x_max":0,"o":"m 416 453 b 322 471 386 453 354 459 b 275 539 290 484 275 506 l 275 854 b 245 960 275 896 264 931 b 172 1025 224 989 200 1011 b 97 1047 144 1040 119 1047 l 0 1047 l 0 935 l 35 935 b 121 831 92 935 121 900 l 121 533 b 168 432 121 486 137 452 b 265 399 199 412 231 401 l 265 395 b 164 363 227 391 193 381 b 121 248 136 345 121 306 l 121 -50 b 100 -134 121 -93 114 -121 b 35 -154 86 -147 64 -154 l 0 -154 l 0 -268 l 97 -268 b 172 -245 119 -268 144 -260 b 245 -180 199 -231 224 -210 b 275 -75 264 -151 275 -115 l 275 241 b 300 302 275 268 283 288 b 359 332 317 317 337 327 b 416 339 383 336 402 339 z "},"~":{"ha":478,"x_min":0,"x_max":0,"o":"m 361 1003 b 314 954 353 970 337 954 b 235 978 303 954 277 962 b 141 989 193 985 162 989 b 45 945 102 989 71 975 b 0 836 18 916 3 879 l 83 836 b 101 873 85 850 91 863 b 134 889 111 884 123 889 b 211 867 150 889 176 882 b 296 844 250 852 278 844 b 399 886 343 844 377 858 b 444 1003 422 913 437 952 z "},"¡":{"ha":313,"x_min":0,"x_max":0,"o":"m 202 746 b 248 790 221 756 236 771 b 264 850 259 808 264 828 b 248 914 264 873 259 895 b 204 960 238 932 224 948 b 142 976 185 970 164 976 b 55 940 108 976 79 964 b 20 850 31 916 20 886 b 37 791 20 829 25 809 b 82 747 48 772 63 757 b 142 730 100 735 120 730 b 202 746 163 730 183 735 z m 34 661 l 0 -1 l 279 -1 l 245 661 z "},"¢":{"ha":665,"x_min":0,"x_max":0,"o":"m 235 794 l 231 793 l 228 792 b 107 716 181 774 140 749 b 28 599 74 683 47 644 b 0 449 9 553 0 504 b 46 279 0 388 16 331 b 180 152 77 227 121 184 b 235 127 194 144 212 136 l 235 41 l 441 41 l 441 109 l 454 111 l 469 113 b 562 143 500 120 531 130 b 631 190 591 156 614 172 l 516 335 b 385 286 480 302 437 286 b 292 311 349 286 318 294 b 230 378 264 328 244 351 b 209 475 216 406 209 438 b 259 590 209 521 226 559 b 380 636 292 621 333 636 b 454 624 406 636 430 632 b 515 589 477 615 498 604 l 623 737 b 511 798 591 764 553 783 b 441 814 488 805 465 810 l 441 870 l 235 870 z "},"£":{"ha":578,"x_min":0,"x_max":0,"o":"m 488 289 b 283 263 399 233 332 224 l 284 263 l 286 262 l 289 260 l 297 256 b 314 296 301 262 307 275 b 325 380 323 326 327 353 b 248 541 317 430 292 484 b 199 689 204 600 187 649 b 272 745 210 730 234 748 b 348 666 309 741 335 715 l 510 734 b 473 819 500 769 488 798 b 377 892 452 849 420 873 b 261 912 342 907 303 914 b 147 884 221 910 183 901 b 39 776 101 861 65 825 b 22 623 18 736 12 685 b 87 483 29 574 51 528 b 136 342 123 437 140 391 b 0 183 132 294 86 241 l 81 45 b 306 73 164 94 239 104 b 530 115 372 43 446 57 l 545 123 z m 7 467 l 7 358 l 452 358 l 452 467 z "},"¤":{"ha":665,"x_min":0,"x_max":0,"o":"m 81 564 b 56 450 64 528 56 490 b 81 336 56 410 64 372 l 0 254 l 119 134 l 201 216 b 315 191 237 199 275 191 b 429 216 358 191 396 199 l 509 136 l 629 257 l 550 336 b 575 450 567 370 575 408 b 549 564 575 490 566 528 l 631 646 l 511 766 l 430 684 b 315 710 394 701 356 710 b 202 684 275 710 238 701 l 123 764 l 2 643 z m 207 450 b 239 527 207 480 218 506 b 316 559 260 548 286 559 b 393 527 346 559 372 548 b 425 450 414 506 425 480 b 393 373 425 420 414 394 b 316 341 372 352 346 341 b 239 373 286 341 260 352 b 207 450 218 394 207 420 z "},"¥":{"ha":769,"x_min":0,"x_max":0,"o":"m 224 509 l 0 892 l 239 892 l 369 646 l 498 892 l 735 892 l 515 509 l 592 509 l 592 401 l 479 401 l 479 326 l 592 326 l 592 218 l 479 218 l 479 58 l 262 58 l 262 218 l 148 218 l 148 326 l 262 326 l 262 401 l 148 401 l 148 509 z "},"¦":{"ha":186,"x_min":0,"x_max":0,"o":"m 0 444 l 0 -189 l 153 -189 l 153 444 z m 153 582 l 153 1202 l 0 1202 l 0 582 z "},"§":{"ha":526,"x_min":0,"x_max":0,"o":"m 14 781 b 54 653 14 725 27 682 b 80 629 57 650 66 642 b 49 595 68 618 58 607 b 14 480 25 563 14 525 b 54 352 14 424 27 381 b 153 287 81 323 114 301 l 181 276 l 209 266 b 237 255 217 262 227 259 l 250 250 l 262 245 b 315 188 297 231 315 212 b 287 142 315 168 305 153 b 227 126 268 132 248 126 b 100 182 175 126 132 145 l 0 51 b 108 -10 31 24 67 3 b 233 -31 146 -24 189 -31 b 419 29 307 -31 370 -11 b 492 200 468 69 492 126 b 451 332 492 259 479 302 l 436 347 b 492 502 473 385 492 437 b 451 633 492 560 479 604 b 353 698 423 662 391 684 b 243 739 310 713 274 726 b 191 794 209 752 191 770 b 215 835 191 811 199 825 b 264 850 231 845 247 850 b 326 837 289 850 309 846 b 384 796 344 828 363 814 l 476 916 b 374 975 446 941 412 961 b 260 996 337 989 299 996 b 140 970 216 996 176 987 b 49 896 102 954 72 928 b 14 781 25 864 14 826 z m 262 546 b 321 490 297 532 317 513 b 297 419 324 466 317 442 b 243 437 288 421 270 427 b 191 493 209 451 191 469 b 215 533 191 509 199 523 b 258 548 229 542 243 547 b 262 546 259 547 260 547 z "},"¨":{"ha":640,"x_min":0,"x_max":0,"o":"m 376 1025 b 420 980 386 1006 401 991 b 480 963 438 968 458 963 b 544 979 503 963 524 968 b 589 1024 564 990 578 1005 b 606 1086 600 1042 606 1063 b 570 1173 606 1120 593 1149 b 480 1208 546 1196 516 1208 b 420 1191 458 1208 439 1202 b 376 1146 402 1179 387 1164 b 359 1086 365 1128 359 1108 b 376 1025 359 1065 365 1044 z m 16 1025 b 60 980 26 1006 41 991 b 121 963 79 968 98 963 b 184 979 144 963 165 968 b 230 1024 204 990 219 1005 b 246 1086 241 1042 246 1063 b 210 1173 246 1120 234 1149 b 121 1208 186 1196 157 1208 b 61 1191 99 1208 79 1202 b 17 1146 43 1179 28 1164 b 0 1086 5 1128 0 1108 b 16 1025 0 1065 5 1044 z "},"©":{"ha":798,"x_min":0,"x_max":0,"o":"m 652 570 b 764 842 726 646 764 736 b 652 1114 764 948 726 1038 b 382 1226 577 1189 487 1226 b 112 1114 277 1226 186 1189 b 0 842 37 1038 0 948 b 112 570 0 736 37 646 b 382 458 186 495 277 458 b 652 570 487 458 577 495 z m 88 842 b 174 1051 88 924 117 994 b 382 1138 231 1109 300 1138 b 589 1051 463 1138 532 1109 b 675 842 647 994 675 924 b 589 633 675 760 647 690 b 382 546 532 575 463 546 b 174 633 300 546 231 575 b 88 842 117 690 88 760 z m 527 692 b 485 657 514 677 500 666 b 387 629 454 639 422 629 b 290 657 353 629 321 639 b 219 732 260 675 236 700 b 193 836 201 764 193 798 b 219 940 193 873 201 908 b 290 1015 236 971 260 996 b 387 1042 321 1033 353 1042 b 485 1015 422 1042 454 1033 b 526 980 499 1006 513 994 l 463 914 b 439 936 454 924 446 932 b 387 952 424 947 407 952 b 335 936 369 952 351 947 b 297 892 318 924 306 909 b 283 836 288 874 283 855 b 297 779 283 816 288 797 b 336 735 307 760 319 746 b 387 719 351 724 369 719 b 439 735 407 719 424 724 b 463 758 450 743 457 751 z "},"ª":{"ha":545,"x_min":0,"x_max":0,"o":"m 202 836 b 261 851 220 846 240 851 b 320 836 282 851 302 846 b 365 797 338 826 353 813 b 381 743 376 780 381 762 b 345 665 381 712 369 686 b 261 633 321 644 293 633 b 178 665 229 633 201 644 b 142 743 154 686 142 712 b 158 797 142 762 147 780 b 202 836 168 813 183 826 z m 381 525 l 510 525 l 510 941 l 386 941 b 361 956 377 947 368 952 b 261 972 330 967 297 972 b 162 956 227 972 194 967 b 78 908 130 945 102 929 b 20 834 54 888 35 864 b -1 743 5 806 -1 776 b 20 651 -1 709 5 679 b 78 577 33 623 53 598 b 162 528 103 556 131 540 b 261 511 192 517 225 511 b 381 536 305 511 345 519 z "},"«":{"ha":742,"x_min":0,"x_max":0,"o":"m 271 125 l 0 484 l 271 844 l 446 844 l 174 484 l 446 125 z m 534 125 l 262 484 l 534 844 l 708 844 l 437 484 l 708 125 z "},"¬":{"ha":785,"x_min":0,"x_max":0,"o":"m 591 207 l 751 207 l 751 498 l 750 498 l 750 552 l 1 552 l 0 382 l 591 382 z "},"®":{"ha":798,"x_min":0,"x_max":0,"o":"m 345 953 b 401 942 370 953 389 949 b 420 900 414 935 420 921 b 411 867 420 886 417 876 b 386 848 405 858 397 852 b 345 842 375 844 361 842 z m 345 643 l 345 819 l 347 819 l 438 642 l 551 642 l 453 814 b 499 854 472 822 488 835 b 516 915 511 873 516 892 b 496 985 516 943 509 967 b 441 1025 484 1004 465 1017 b 359 1037 418 1033 391 1037 l 248 1037 l 248 643 z m 652 570 b 764 842 726 646 764 736 b 652 1114 764 948 726 1038 b 382 1226 577 1189 487 1226 b 112 1114 277 1226 186 1189 b 0 842 37 1038 0 948 b 112 570 0 736 37 646 b 382 458 186 495 277 458 b 652 570 487 458 577 495 z m 88 842 b 174 1051 88 924 117 994 b 382 1138 231 1109 300 1138 b 589 1051 463 1138 532 1109 b 675 842 647 994 675 924 b 589 633 675 760 647 690 b 382 546 532 575 463 546 b 174 633 300 546 231 575 b 88 842 117 690 88 760 z "},"¯":{"ha":751,"x_min":0,"x_max":0,"o":"m 0 1213 l 0 1042 l 717 1042 l 717 1213 z "},"°":{"ha":303,"x_min":0,"x_max":0,"o":"m 230 772 b 269 868 256 799 269 831 b 230 963 269 905 256 937 b 134 1002 203 989 172 1002 b 39 963 97 1002 66 989 b 0 868 13 937 0 905 b 39 772 0 831 13 799 b 134 733 66 746 97 733 b 230 772 172 733 203 746 z m 81 868 b 96 906 81 882 86 895 b 134 922 106 916 119 922 b 173 906 149 922 161 916 b 189 868 183 895 189 882 b 173 830 189 853 183 840 b 134 814 162 819 149 814 b 96 830 119 814 106 819 b 81 868 86 840 81 853 z "},"±":{"ha":751,"x_min":0,"x_max":0,"o":"m 1 665 l 1 495 l 274 495 l 274 218 l 444 218 l 444 495 l 718 495 l 718 665 l 444 665 l 444 942 l 274 942 l 274 665 z m 0 172 l 0 8 l 718 8 l 718 172 z "},"²":{"ha":392,"x_min":0,"x_max":0,"o":"m 212 452 l 224 467 l 236 481 l 259 509 b 298 560 274 527 287 544 b 326 615 309 576 318 594 b 338 679 334 637 338 658 b 315 763 338 711 330 739 b 254 817 301 787 281 804 b 170 836 229 830 201 836 b 79 817 137 836 107 829 b 5 742 53 804 28 779 l 106 677 b 126 714 110 692 117 705 b 163 728 136 724 148 728 b 208 713 181 728 196 724 b 226 673 220 703 226 690 b 212 622 226 656 221 639 b 173 562 203 605 190 585 l 0 344 l 358 344 l 358 452 z "},"³":{"ha":385,"x_min":0,"x_max":0,"o":"m 85 696 l 87 699 l 92 703 b 101 712 94 705 97 708 b 119 726 109 718 115 723 b 137 735 122 728 128 732 b 159 739 145 737 153 739 b 202 725 176 739 191 734 b 218 684 213 715 218 702 b 209 652 218 671 215 660 b 184 638 202 645 194 640 b 150 633 172 635 161 634 l 132 633 l 115 633 l 115 549 l 126 549 l 154 549 b 210 540 176 549 195 546 b 230 500 223 533 230 519 b 212 456 230 480 224 465 b 164 441 199 446 183 441 b 117 453 146 441 130 445 b 79 490 104 460 92 473 l 0 410 b 47 370 13 395 28 381 b 104 342 65 357 85 349 b 165 333 125 336 146 333 b 234 342 190 333 213 336 b 294 370 256 348 276 357 b 336 418 313 383 327 399 b 351 487 347 437 351 460 b 343 532 351 503 349 517 b 320 572 337 548 329 562 b 284 600 310 583 298 593 b 319 643 300 614 311 629 b 330 695 326 657 330 674 b 309 771 330 725 323 750 b 252 820 294 792 276 808 b 175 836 229 831 203 836 b 76 814 140 836 106 829 b 2 745 45 798 21 775 z "},"´":{"ha":332,"x_min":0,"x_max":0,"o":"m 150 1044 l 0 1044 l 98 1317 l 298 1317 z "},"µ":{"ha":644,"x_min":0,"x_max":0,"o":"m 483 1 b 268 -54 420 -36 349 -54 b 214 -48 249 -54 231 -52 l 214 -376 l 3 -376 l 3 200 b 0 257 1 214 0 233 l 0 692 l 217 692 l 217 257 b 304 142 217 180 246 142 b 348 156 319 142 334 146 b 380 197 361 165 372 179 b 393 257 389 214 393 234 l 393 691 l 610 693 l 610 1 z "},"¶":{"ha":614,"x_min":0,"x_max":0,"o":"m 359 0 l 359 738 l 454 738 l 454 0 l 581 0 l 581 962 l 392 962 b 77 859 247 959 142 924 b 3 657 26 808 1 741 b 85 470 3 581 31 518 b 224 410 130 430 176 410 l 232 410 l 232 0 z "},"·":{"ha":279,"x_min":0,"x_max":0,"o":"m 62 622 b 17 578 43 612 28 597 b 0 517 5 559 0 540 b 16 454 0 495 5 473 b 61 408 27 434 42 419 b 123 392 79 397 100 392 b 210 428 157 392 186 404 b 245 517 233 452 245 481 b 228 577 245 539 239 559 b 183 622 216 595 201 610 b 123 638 164 633 144 638 b 62 622 102 638 81 633 z "},"¸":{"ha":315,"x_min":0,"x_max":0,"o":"m 262 35 l 161 35 l 99 -94 b 170 -110 133 -95 157 -100 b 189 -140 183 -119 189 -129 b 170 -171 189 -152 182 -162 b 115 -186 155 -181 138 -186 b 48 -161 92 -186 69 -178 l 0 -224 b 115 -255 37 -245 75 -255 b 231 -222 161 -255 199 -244 b 281 -140 264 -200 281 -172 b 258 -80 281 -119 273 -98 b 210 -45 243 -63 227 -52 z "},"¹":{"ha":201,"x_min":0,"x_max":0,"o":"m 56 742 l 56 343 l 168 344 l 168 824 l 0 824 l 1 743 z "},"º":{"ha":385,"x_min":0,"x_max":0,"o":"m 128 660 b 148 709 132 681 138 697 b 185 727 157 721 170 727 b 250 585 229 727 250 680 b 185 442 250 490 229 442 b 148 460 170 442 157 448 b 128 510 138 472 132 489 b 122 585 124 531 122 556 b 128 660 122 614 124 639 z m 327 752 b 272 812 314 777 296 796 b 185 834 248 827 220 834 b 100 812 152 834 123 827 b 46 751 77 795 58 775 b 19 671 33 726 24 699 b 11 585 14 644 11 615 b 19 498 11 555 14 526 b 46 418 24 471 33 444 b 100 358 59 393 77 373 b 185 335 123 342 151 335 b 292 373 230 335 266 348 b 347 468 318 397 336 429 b 361 585 357 504 361 543 b 354 672 361 612 359 641 b 327 752 349 701 340 728 z "},"»":{"ha":742,"x_min":0,"x_max":0,"o":"m 262 125 l 534 484 l 262 844 l 437 844 l 708 484 l 437 125 z m 0 125 l 271 484 l 0 844 l 174 844 l 446 484 l 174 125 z "},"¼":{"ha":795,"x_min":0,"x_max":0,"o":"m 56 880 l 56 481 l 168 482 l 168 962 l 0 962 l 1 882 z m 575 962 l 465 962 l -16 0 l 92 0 z m 744 189 l 684 189 l 684 -6 l 570 -5 l 570 188 l 376 188 l 376 482 l 489 482 l 489 287 l 570 287 l 570 482 l 684 482 l 684 287 l 745 287 z "},"½":{"ha":826,"x_min":0,"x_max":0,"o":"m 56 880 l 56 481 l 168 482 l 168 962 l 0 962 l 1 882 z m 606 109 l 618 123 l 630 137 l 653 165 b 692 216 668 183 681 200 b 720 271 703 232 712 250 b 732 335 728 293 732 314 b 709 419 732 368 724 395 b 648 473 695 443 675 460 b 564 492 623 486 595 492 b 473 473 531 492 501 486 b 399 398 447 460 422 435 l 500 333 b 520 370 504 349 511 361 b 557 385 530 380 542 385 b 602 370 575 385 590 380 b 620 330 614 359 620 347 b 606 278 620 313 615 295 b 567 218 597 261 584 241 l 394 0 l 752 0 l 752 109 z m 609 962 l 499 962 l 18 0 l 125 0 z "},"¾":{"ha":977,"x_min":0,"x_max":0,"o":"m 85 823 l 87 825 l 92 829 b 101 838 94 831 97 834 b 119 852 109 844 115 849 b 137 861 122 854 128 858 b 159 865 145 863 153 865 b 202 851 176 865 191 860 b 218 810 213 842 218 828 b 209 779 218 797 215 786 b 184 764 202 771 194 766 b 150 760 172 762 161 760 l 132 759 l 115 759 l 115 675 l 126 675 l 154 675 b 210 666 176 675 195 672 b 230 626 223 659 230 646 b 212 582 230 606 224 591 b 164 567 199 572 183 567 b 117 579 146 567 130 571 b 79 616 104 587 92 599 l 0 536 b 47 496 13 521 28 507 b 104 469 65 484 85 475 b 165 459 125 463 146 459 b 234 468 190 459 213 462 b 294 496 256 474 276 483 b 336 544 313 509 327 526 b 351 613 347 564 351 587 b 343 659 351 629 349 644 b 320 698 337 674 329 688 b 284 726 310 709 298 719 b 319 769 300 741 311 755 b 330 821 326 783 330 800 b 309 897 330 851 323 876 b 252 946 294 918 276 935 b 175 962 229 957 203 962 b 76 940 140 962 106 955 b 2 871 45 924 21 901 z m 926 189 l 865 189 l 865 -6 l 752 -5 l 752 188 l 558 188 l 557 482 l 671 482 l 671 287 l 752 287 l 752 482 l 865 482 l 865 287 l 926 287 z m 731 962 l 621 962 l 140 0 l 248 0 z "},"¿":{"ha":652,"x_min":0,"x_max":0,"o":"m 452 262 b 334 189 420 213 380 189 b 267 212 309 189 287 197 b 237 269 247 228 237 247 b 249 315 237 288 241 303 b 283 347 256 327 268 338 l 305 363 l 328 378 b 395 449 356 396 378 420 b 418 571 410 478 418 519 l 418 672 l 207 672 l 207 594 b 193 547 207 576 202 560 b 154 509 183 534 170 521 l 129 490 l 103 471 b 28 387 71 446 46 418 b 0 261 9 355 0 313 b 25 149 0 220 8 182 b 92 62 41 115 64 85 b 191 5 121 37 154 18 b 309 -14 230 -7 269 -14 b 429 5 351 -14 392 -8 b 536 59 468 17 504 35 b 618 149 568 83 595 113 z m 375 770 b 420 814 394 781 409 795 b 437 875 432 833 437 852 b 421 939 437 898 432 919 b 377 984 411 957 397 972 b 315 1000 358 995 337 1000 b 228 964 281 1000 252 988 b 193 875 204 941 193 911 b 210 815 193 853 198 833 b 255 771 221 796 236 781 b 315 754 273 760 293 754 b 375 770 336 754 356 760 z "},"À":{"ha":1094,"x_min":0,"x_max":0,"o":"m 625 349 l 530 519 l 435 349 z m 722 171 l 338 171 l 243 0 l 0 0 l 408 741 l 530 962 l 652 741 l 1060 0 l 817 0 z m 219 1316 l 419 1316 l 517 1042 l 367 1042 z "},"Á":{"ha":1094,"x_min":0,"x_max":0,"o":"m 625 349 l 530 519 l 435 349 z m 722 171 l 338 171 l 243 0 l 0 0 l 408 741 l 530 962 l 652 741 l 1060 0 l 817 0 z m 701 1042 l 551 1042 l 648 1316 l 848 1316 z "},"Â":{"ha":1094,"x_min":0,"x_max":0,"o":"m 625 349 l 530 519 l 435 349 z m 722 171 l 338 171 l 243 0 l 0 0 l 408 741 l 530 962 l 652 741 l 1060 0 l 817 0 z m 626 1042 l 533 1146 l 441 1042 l 277 1042 l 543 1359 l 796 1042 z "},"Ã":{"ha":1094,"x_min":0,"x_max":0,"o":"m 625 349 l 530 519 l 435 349 z m 722 171 l 338 171 l 243 0 l 0 0 l 408 741 l 530 962 l 652 741 l 1060 0 l 817 0 z m 716 1266 b 653 1200 705 1222 684 1200 b 548 1232 639 1200 604 1211 b 421 1248 492 1242 450 1248 b 292 1188 369 1248 326 1228 b 233 1042 257 1148 237 1100 l 343 1042 b 368 1093 347 1062 355 1078 b 412 1114 381 1107 395 1114 b 515 1083 434 1114 468 1103 b 629 1053 568 1063 606 1053 b 768 1109 691 1053 737 1072 b 828 1266 798 1145 818 1198 z "},"Ä":{"ha":1094,"x_min":0,"x_max":0,"o":"m 625 349 l 530 519 l 435 349 z m 722 171 l 338 171 l 243 0 l 0 0 l 408 741 l 530 962 l 652 741 l 1060 0 l 817 0 z m 610 1105 b 654 1059 620 1086 635 1071 b 714 1042 672 1048 692 1042 b 778 1059 737 1042 758 1048 b 823 1103 798 1069 812 1084 b 840 1165 834 1122 840 1143 b 804 1252 840 1199 827 1228 b 714 1287 780 1276 750 1287 b 654 1270 692 1287 673 1282 b 610 1225 636 1259 621 1244 b 593 1165 599 1207 593 1187 b 610 1105 593 1144 599 1124 z m 250 1105 b 294 1059 260 1086 275 1071 b 355 1042 313 1048 332 1042 b 418 1059 378 1042 399 1048 b 464 1103 438 1069 453 1084 b 480 1165 475 1122 480 1143 b 444 1252 480 1199 468 1228 b 355 1287 420 1276 391 1287 b 295 1270 333 1287 313 1282 b 251 1225 277 1259 262 1244 b 234 1165 239 1207 234 1187 b 250 1105 234 1144 239 1124 z "},"Å":{"ha":1094,"x_min":0,"x_max":0,"o":"m 435 349 l 530 519 l 625 349 z m 545 936 b 640 981 582 939 614 954 b 686 1090 671 1011 686 1048 b 640 1201 686 1134 671 1171 b 530 1246 610 1232 573 1246 b 420 1201 487 1246 450 1232 b 374 1090 389 1171 374 1134 b 420 981 374 1048 389 1011 b 515 936 446 954 478 939 l 408 741 l 0 0 l 243 0 l 338 171 l 722 171 l 817 0 l 1060 0 l 652 741 z m 489 1096 b 501 1124 489 1107 493 1117 b 529 1136 509 1132 518 1136 b 557 1124 539 1136 549 1132 b 569 1096 565 1117 569 1107 b 557 1068 569 1085 565 1076 b 529 1057 549 1061 539 1057 b 501 1068 518 1057 509 1061 b 489 1096 493 1076 489 1085 z "},"Æ":{"ha":1401,"x_min":0,"x_max":0,"o":"m 570 351 l 755 587 l 755 351 z m 429 172 l 755 172 l 755 0 l 1367 0 l 1367 203 l 991 203 l 991 389 l 1237 389 l 1182 591 l 991 591 l 991 758 l 1339 758 l 1340 962 l 755 962 l 0 0 l 294 0 l 429 172 z "},"Ç":{"ha":849,"x_min":0,"x_max":0,"o":"m 414 -17 b 237 46 351 -9 292 12 b 64 229 164 92 106 153 b 0 481 21 305 0 389 b 64 735 0 574 21 659 b 237 918 106 812 165 873 b 475 985 310 963 389 985 b 712 918 561 985 640 963 b 814 834 751 895 785 866 l 659 673 b 602 726 637 697 619 715 b 475 766 562 752 519 766 b 347 726 430 766 387 752 b 254 620 309 699 277 664 b 220 481 232 576 220 530 b 255 343 220 433 232 387 b 348 237 278 299 309 264 b 475 197 387 211 429 197 b 602 237 520 197 563 211 b 660 292 621 251 641 269 l 815 132 b 712 46 785 98 751 70 b 507 -20 648 7 580 -15 l 477 -66 b 525 -100 494 -72 510 -83 b 549 -161 541 -119 549 -139 b 498 -243 549 -193 532 -220 b 382 -275 467 -264 428 -275 b 267 -244 342 -275 304 -265 l 315 -182 b 382 -206 336 -198 359 -206 b 437 -191 405 -206 422 -201 b 456 -161 450 -182 456 -172 b 437 -130 456 -149 450 -139 b 366 -114 424 -121 400 -115 z "},"È":{"ha":645,"x_min":0,"x_max":0,"o":"m 610 203 l 236 203 l 236 389 l 481 389 l 427 591 l 236 591 l 236 758 l 581 758 l 583 962 l 0 962 l 0 0 l 611 0 z m 106 1316 l 307 1316 l 404 1042 l 254 1042 z "},"É":{"ha":645,"x_min":0,"x_max":0,"o":"m 610 203 l 236 203 l 236 389 l 481 389 l 427 591 l 236 591 l 236 758 l 581 758 l 583 962 l 0 962 l 0 0 l 611 0 z m 378 1043 l 229 1043 l 326 1316 l 526 1316 z "},"Ê":{"ha":645,"x_min":0,"x_max":0,"o":"m 610 203 l 236 203 l 236 389 l 481 389 l 427 591 l 236 591 l 236 758 l 581 758 l 583 962 l 0 962 l 0 0 l 611 0 z m 395 1043 l 302 1147 l 210 1043 l 45 1043 l 311 1359 l 565 1043 z "},"Ë":{"ha":645,"x_min":0,"x_max":0,"o":"m 610 203 l 236 203 l 236 389 l 481 389 l 427 591 l 236 591 l 236 758 l 581 758 l 583 962 l 0 962 l 0 0 l 611 0 z m 378 1106 b 422 1061 389 1087 404 1072 b 483 1044 441 1049 460 1044 b 547 1060 506 1044 527 1049 b 592 1105 566 1071 581 1086 b 608 1166 603 1123 608 1144 b 572 1253 608 1200 596 1230 b 483 1289 549 1277 519 1289 b 423 1272 461 1289 441 1283 b 379 1227 405 1260 390 1245 b 362 1166 368 1208 362 1189 b 378 1106 362 1145 368 1125 z m 19 1106 b 63 1061 29 1087 44 1072 b 123 1044 81 1049 101 1044 b 187 1060 146 1044 168 1049 b 233 1105 207 1071 222 1086 b 249 1166 243 1123 249 1144 b 213 1253 249 1200 237 1230 b 123 1289 189 1277 159 1289 b 64 1272 102 1289 82 1283 b 20 1227 45 1260 31 1245 b 3 1166 8 1208 3 1189 b 19 1106 3 1145 8 1125 z "},"Ì":{"ha":351,"x_min":0,"x_max":0,"o":"m 1 1 l 237 0 l 237 962 l 1 962 z m -80 1315 l 120 1315 l 218 1042 l 68 1042 z "},"Í":{"ha":351,"x_min":0,"x_max":0,"o":"m 0 1 l 236 0 l 236 962 l 0 962 z m 169 1042 l 19 1042 l 117 1315 l 317 1315 z "},"Î":{"ha":553,"x_min":0,"x_max":0,"o":"m -1 1 l 235 0 l 235 962 l -1 962 z m 205 1044 l 113 1147 l 21 1044 l -143 1044 l 122 1360 l 376 1044 z "},"Ï":{"ha":640,"x_min":0,"x_max":0,"o":"m 1 1 l 237 0 l 237 962 l 1 962 z m 196 1104 b 240 1059 206 1085 221 1070 b 300 1042 258 1047 278 1042 b 364 1058 323 1042 345 1047 b 410 1103 384 1069 399 1084 b 426 1164 420 1121 426 1142 b 390 1251 426 1198 414 1227 b 300 1286 366 1275 336 1286 b 241 1270 279 1286 259 1281 b 197 1225 222 1258 208 1243 b 180 1164 185 1206 180 1187 b 196 1104 180 1143 185 1123 z m -163 1104 b -119 1059 -153 1085 -138 1070 b -59 1042 -101 1047 -81 1042 b 5 1058 -36 1042 -15 1047 b 50 1103 24 1069 39 1084 b 66 1164 61 1121 66 1142 b 31 1251 66 1198 54 1227 b -59 1286 7 1275 -23 1286 b -119 1270 -81 1286 -100 1281 b -163 1225 -137 1258 -152 1243 b -180 1164 -174 1206 -180 1187 b -163 1104 -180 1143 -174 1123 z "},"Ð":{"ha":990,"x_min":0,"x_max":0,"o":"m 450 387 l 450 577 l 349 577 l 349 758 l 426 758 b 538 736 465 758 502 751 b 629 675 574 720 604 701 b 689 587 654 650 674 621 b 711 481 703 551 711 516 b 690 377 711 444 704 409 b 629 288 675 344 655 314 b 537 226 602 261 572 241 b 426 203 502 211 465 203 l 349 203 l 349 387 z m 0 577 l 0 387 l 104 387 l 104 1 l 448 1 b 645 37 517 1 583 13 b 808 139 707 62 761 96 b 917 293 854 182 890 234 b 956 481 943 351 956 414 b 917 671 956 550 943 613 b 808 825 890 730 854 782 b 646 926 760 869 706 903 b 448 963 584 951 518 963 l 104 963 l 104 577 z "},"Ñ":{"ha":883,"x_min":0,"x_max":0,"o":"m 849 961 l 613 962 l 613 518 l 3 962 l 0 2 l 237 2 l 237 498 l 846 -1 z m 633 1267 b 571 1201 623 1223 602 1201 b 465 1234 556 1201 521 1212 b 339 1249 410 1244 368 1249 b 210 1190 287 1249 244 1230 b 150 1044 175 1149 155 1101 l 261 1044 b 286 1094 264 1063 272 1080 b 330 1115 298 1108 313 1115 b 433 1084 351 1115 385 1105 b 547 1055 486 1065 524 1055 b 685 1110 609 1055 655 1073 b 745 1267 715 1147 735 1199 z "},"Ò":{"ha":1050,"x_min":0,"x_max":0,"o":"m 273 619 b 372 725 297 663 330 699 b 509 765 414 751 459 765 b 645 725 557 765 602 751 b 744 619 686 699 720 663 b 781 481 768 575 781 529 b 744 342 781 433 768 387 b 644 236 719 298 686 262 b 509 196 603 210 557 196 b 372 236 459 196 414 210 b 273 342 332 262 298 298 b 236 481 248 387 236 433 b 273 619 236 529 248 575 z m 948 734 b 763 918 903 811 841 872 b 509 985 685 962 600 985 b 254 918 417 985 332 962 b 68 734 176 872 114 811 b 0 481 23 656 0 572 b 68 228 0 389 23 304 b 254 45 114 151 176 90 b 509 -22 332 0 417 -22 b 763 45 600 -22 685 0 b 948 228 841 90 903 151 b 1017 481 994 304 1017 389 b 948 734 1017 572 994 656 z m 310 1316 l 510 1316 l 608 1042 l 458 1042 z "},"Ó":{"ha":1050,"x_min":0,"x_max":0,"o":"m 273 619 b 372 725 297 663 330 699 b 509 765 414 751 459 765 b 645 725 557 765 602 751 b 744 619 686 699 720 663 b 781 481 768 575 781 529 b 744 342 781 433 768 387 b 644 236 719 298 686 262 b 509 196 603 210 557 196 b 372 236 459 196 414 210 b 273 342 332 262 298 298 b 236 481 248 387 236 433 b 273 619 236 529 248 575 z m 948 734 b 763 918 903 811 841 872 b 509 985 685 962 600 985 b 254 918 417 985 332 962 b 68 734 176 872 114 811 b 0 481 23 656 0 572 b 68 228 0 389 23 304 b 254 45 114 151 176 90 b 509 -22 332 0 417 -22 b 763 45 600 -22 685 0 b 948 228 841 90 903 151 b 1017 481 994 304 1017 389 b 948 734 1017 572 994 656 z m 606 1042 l 456 1042 l 553 1316 l 753 1316 z "},"Ô":{"ha":1050,"x_min":0,"x_max":0,"o":"m 273 619 b 372 725 297 663 330 699 b 509 765 414 751 459 765 b 645 725 557 765 602 751 b 744 619 686 699 720 663 b 781 481 768 575 781 529 b 744 342 781 433 768 387 b 644 236 719 298 686 262 b 509 196 603 210 557 196 b 372 236 459 196 414 210 b 273 342 332 262 298 298 b 236 481 248 387 236 433 b 273 619 236 529 248 575 z m 948 734 b 763 918 903 811 841 872 b 509 985 685 962 600 985 b 254 918 417 985 332 962 b 68 734 176 872 114 811 b 0 481 23 656 0 572 b 68 228 0 389 23 304 b 254 45 114 151 176 90 b 509 -22 332 0 417 -22 b 763 45 600 -22 685 0 b 948 228 841 90 903 151 b 1017 481 994 304 1017 389 b 948 734 1017 572 994 656 z m 597 1042 l 505 1146 l 412 1042 l 249 1042 l 514 1359 l 768 1042 z "},"Õ":{"ha":1050,"x_min":0,"x_max":0,"o":"m 273 619 b 372 725 297 663 330 699 b 509 765 414 751 459 765 b 645 725 557 765 602 751 b 744 619 686 699 720 663 b 781 481 768 575 781 529 b 744 342 781 433 768 387 b 644 236 719 298 686 262 b 509 196 603 210 557 196 b 372 236 459 196 414 210 b 273 342 332 262 298 298 b 236 481 248 387 236 433 b 273 619 236 529 248 575 z m 948 734 b 763 918 903 811 841 872 b 509 985 685 962 600 985 b 254 918 417 985 332 962 b 68 734 176 872 114 811 b 0 481 23 656 0 572 b 68 228 0 389 23 304 b 254 45 114 151 176 90 b 509 -22 332 0 417 -22 b 763 45 600 -22 685 0 b 948 228 841 90 903 151 b 1017 481 994 304 1017 389 b 948 734 1017 572 994 656 z m 694 1267 b 631 1201 683 1223 662 1201 b 526 1234 617 1201 582 1212 b 399 1249 471 1244 429 1249 b 270 1190 347 1249 304 1230 b 211 1044 235 1149 216 1101 l 321 1044 b 347 1094 325 1063 333 1080 b 391 1115 359 1108 374 1115 b 493 1084 412 1115 446 1105 b 608 1055 546 1065 584 1055 b 746 1110 669 1055 715 1073 b 806 1267 776 1147 796 1199 z "},"Ö":{"ha":1050,"x_min":0,"x_max":0,"o":"m 273 619 b 372 725 297 663 330 699 b 509 765 414 751 459 765 b 645 725 557 765 602 751 b 744 619 686 699 720 663 b 781 481 768 575 781 529 b 744 342 781 433 768 387 b 644 236 719 298 686 262 b 509 196 603 210 557 196 b 372 236 459 196 414 210 b 273 342 332 262 298 298 b 236 481 248 387 236 433 b 273 619 236 529 248 575 z m 948 734 b 763 918 903 811 841 872 b 509 985 685 962 600 985 b 254 918 417 985 332 962 b 68 734 176 872 114 811 b 0 481 23 656 0 572 b 68 228 0 389 23 304 b 254 45 114 151 176 90 b 509 -22 332 0 417 -22 b 763 45 600 -22 685 0 b 948 228 841 90 903 151 b 1017 481 994 304 1017 389 b 948 734 1017 572 994 656 z m 581 1105 b 625 1059 591 1086 606 1071 b 686 1042 644 1048 663 1042 b 749 1059 709 1042 730 1048 b 795 1103 769 1069 784 1084 b 811 1165 806 1122 811 1143 b 775 1252 811 1199 799 1228 b 686 1287 751 1276 722 1287 b 626 1270 664 1287 644 1282 b 582 1225 608 1259 593 1244 b 565 1165 570 1207 565 1187 b 581 1105 565 1144 570 1124 z m 222 1105 b 266 1059 232 1086 247 1071 b 326 1042 284 1048 304 1042 b 390 1059 349 1042 370 1048 b 435 1103 410 1069 425 1084 b 452 1165 446 1122 452 1143 b 416 1252 452 1199 439 1228 b 326 1287 392 1276 362 1287 b 267 1270 304 1287 285 1282 b 222 1225 248 1259 233 1244 b 205 1165 211 1207 205 1187 b 222 1105 205 1144 211 1124 z "},"×":{"ha":665,"x_min":0,"x_max":0,"o":"m 629 555 l 509 675 l 316 482 l 120 677 l 0 558 l 196 362 l 2 169 l 123 48 l 316 242 l 512 46 l 631 166 l 436 362 z "},"Ø":{"ha":1050,"x_min":0,"x_max":0,"o":"m 18 61 l 96 -14 l 191 87 b 254 45 207 74 228 60 b 509 -22 332 0 417 -22 b 763 45 600 -22 685 0 b 948 228 841 90 903 151 b 1017 481 994 304 1017 389 b 948 734 1017 572 994 656 b 885 819 930 766 909 794 l 979 918 l 900 993 l 804 891 b 763 918 791 900 777 909 b 509 985 685 962 600 985 b 254 918 417 985 332 962 b 68 734 176 872 114 811 b 0 481 23 656 0 572 b 68 228 0 389 23 304 b 114 163 83 203 98 181 z m 724 650 b 733 637 727 646 730 642 b 744 619 736 631 741 625 b 781 481 768 575 781 529 b 744 342 781 433 768 387 b 644 236 719 298 686 262 b 509 196 603 210 557 196 b 372 236 459 196 414 210 b 349 253 359 245 351 251 z m 277 335 b 273 342 275 337 274 340 b 236 481 248 387 236 433 b 273 619 236 529 248 575 b 372 725 297 663 330 699 b 509 765 414 751 459 765 b 645 725 557 765 602 751 l 646 724 z "},"Ù":{"ha":825,"x_min":0,"x_max":0,"o":"m 555 962 l 555 436 b 522 258 555 359 544 299 b 384 196 500 216 454 196 b 296 221 346 196 317 204 b 250 288 274 237 258 259 b 237 385 241 314 237 346 l 237 962 l 0 962 l 0 317 b 47 127 0 241 16 178 b 180 14 79 76 123 39 b 378 -22 236 -10 302 -22 b 592 20 458 -22 530 -8 b 738 144 654 48 703 90 b 791 334 773 197 791 261 l 791 962 z m 197 1316 l 397 1316 l 494 1042 l 345 1042 z "},"Ú":{"ha":825,"x_min":0,"x_max":0,"o":"m 555 962 l 555 436 b 522 258 555 359 544 299 b 384 196 500 216 454 196 b 296 221 346 196 317 204 b 250 288 274 237 258 259 b 237 385 241 314 237 346 l 237 962 l 0 962 l 0 317 b 47 127 0 241 16 178 b 180 14 79 76 123 39 b 378 -22 236 -10 302 -22 b 592 20 458 -22 530 -8 b 738 144 654 48 703 90 b 791 334 773 197 791 261 l 791 962 z m 495 1063 l 345 1063 l 443 1336 l 643 1336 z "},"Û":{"ha":825,"x_min":0,"x_max":0,"o":"m 555 962 l 555 436 b 522 258 555 359 544 299 b 384 196 500 216 454 196 b 296 221 346 196 317 204 b 250 288 274 237 258 259 b 237 385 241 314 237 346 l 237 962 l 0 962 l 0 317 b 47 127 0 241 16 178 b 180 14 79 76 123 39 b 378 -22 236 -10 302 -22 b 592 20 458 -22 530 -8 b 738 144 654 48 703 90 b 791 334 773 197 791 261 l 791 962 z m 491 1042 l 399 1146 l 307 1042 l 142 1042 l 408 1359 l 662 1042 z "},"Ü":{"ha":825,"x_min":0,"x_max":0,"o":"m 555 962 l 555 436 b 522 258 555 359 544 299 b 384 196 500 216 454 196 b 296 221 346 196 317 204 b 250 288 274 237 258 259 b 237 385 241 314 237 346 l 237 962 l 0 962 l 0 317 b 47 127 0 241 16 178 b 180 14 79 76 123 39 b 378 -22 236 -10 302 -22 b 592 20 458 -22 530 -8 b 738 144 654 48 703 90 b 791 334 773 197 791 261 l 791 962 z m 469 1105 b 513 1060 479 1086 494 1072 b 573 1043 531 1048 551 1043 b 637 1059 596 1043 617 1048 b 682 1104 656 1070 671 1085 b 699 1166 693 1122 699 1143 b 663 1253 699 1200 686 1229 b 573 1288 639 1276 609 1288 b 513 1271 551 1288 532 1282 b 469 1226 495 1259 480 1244 b 452 1166 458 1208 452 1188 b 469 1105 452 1145 458 1124 z m 109 1105 b 153 1060 119 1086 134 1072 b 214 1043 172 1048 191 1043 b 277 1059 237 1043 258 1048 b 323 1104 297 1070 312 1085 b 339 1166 334 1122 339 1143 b 303 1253 339 1200 327 1229 b 214 1288 279 1276 250 1288 b 154 1271 192 1288 172 1282 b 110 1226 136 1259 121 1244 b 93 1166 98 1208 93 1188 b 109 1105 93 1145 98 1124 z "},"Ý":{"ha":882,"x_min":0,"x_max":0,"o":"m 552 446 l 552 0 l 302 0 l 302 444 l 0 962 l 276 962 l 425 678 l 574 962 l 848 962 z m 495 1042 l 345 1042 l 443 1315 l 643 1315 z "},"Þ":{"ha":809,"x_min":0,"x_max":0,"o":"m 377 598 b 511 575 437 598 482 591 b 555 478 541 559 555 528 b 538 417 555 452 549 431 b 492 387 528 403 512 393 b 420 377 471 380 446 377 l 236 377 l 236 598 z m 236 962 l 0 962 l 0 1 l 236 0 l 236 142 l 475 142 b 643 184 541 142 597 156 b 743 301 688 212 722 250 b 775 473 764 352 775 409 b 739 659 775 542 763 604 b 629 787 713 713 677 756 b 462 833 581 818 526 833 l 236 833 z "},"ß":{"ha":846,"x_min":0,"x_max":0,"o":"m 20 693 l 20 714 b 108 931 20 799 50 871 b 216 998 134 959 170 981 b 342 1021 257 1013 299 1021 l 376 1021 b 603 931 471 1019 547 989 b 684 821 637 894 665 857 b 713 683 704 783 713 738 b 694 584 713 646 707 613 b 629 503 681 557 659 530 b 695 448 654 489 677 471 b 738 374 713 426 728 401 b 753 289 748 347 753 319 b 725 157 753 239 743 195 b 648 66 706 120 680 90 b 537 14 613 41 576 24 b 410 -3 498 2 455 -3 b 301 14 375 -3 338 3 l 301 239 b 323 224 309 233 315 229 b 408 201 347 208 375 201 b 496 229 443 201 472 210 b 530 313 518 247 530 275 b 492 388 530 350 517 375 b 391 407 467 401 433 407 l 355 407 b 338 406 353 406 347 406 l 330 406 l 319 406 l 319 565 b 490 703 442 565 499 611 b 356 834 486 785 441 829 b 284 811 329 834 305 827 b 239 753 264 796 249 777 l 235 738 b 231 722 233 735 232 730 l 231 721 l 231 719 l 231 712 l 230 712 l 230 656 l 231 -1 l 20 -1 l 20 585 l -60 585 l -60 693 z "},"à":{"ha":829,"x_min":0,"x_max":0,"o":"m 205 1058 l 406 1058 l 503 785 l 353 785 z m 397 526 b 309 503 366 526 336 518 b 241 439 281 487 259 466 b 216 351 224 412 216 383 b 271 227 216 303 235 262 b 397 176 307 193 349 176 b 525 227 447 176 489 193 b 579 351 561 262 579 303 b 554 439 579 383 571 412 b 487 503 536 466 514 487 b 397 526 459 518 429 526 z m 580 20 b 548 7 563 13 552 9 b 397 -20 499 -11 449 -20 b 201 28 329 -20 263 -4 b 55 161 140 60 91 104 b 0 351 18 218 0 281 b 32 499 0 404 11 453 b 119 617 53 545 82 584 b 247 694 157 650 199 676 b 397 722 296 712 346 722 b 548 694 450 722 500 713 b 675 617 597 676 640 650 b 764 499 713 583 743 543 b 795 351 785 453 795 404 l 795 -2 l 580 0 z "},"á":{"ha":829,"x_min":0,"x_max":0,"o":"m 474 785 l 324 785 l 422 1058 l 622 1058 z m 397 526 b 309 503 366 526 336 518 b 241 439 281 487 259 466 b 216 351 224 412 216 383 b 271 227 216 303 235 262 b 397 176 307 193 349 176 b 525 227 447 176 489 193 b 579 351 561 262 579 303 b 554 439 579 383 571 412 b 487 503 536 466 514 487 b 397 526 459 518 429 526 z m 580 20 b 548 7 563 13 552 9 b 397 -20 499 -11 449 -20 b 201 28 329 -20 263 -4 b 55 161 140 60 91 104 b 0 351 18 218 0 281 b 32 499 0 404 11 453 b 119 617 53 545 82 584 b 247 694 157 650 199 676 b 397 722 296 712 346 722 b 548 694 450 722 500 713 b 675 617 597 676 640 650 b 764 499 713 583 743 543 b 795 351 785 453 795 404 l 795 -2 l 580 0 z "},"â":{"ha":829,"x_min":0,"x_max":0,"o":"m 511 785 l 418 888 l 326 785 l 162 785 l 427 1101 l 681 785 z m 397 526 b 309 503 366 526 336 518 b 241 439 281 487 259 466 b 216 351 224 412 216 383 b 271 227 216 303 235 262 b 397 176 307 193 349 176 b 525 227 447 176 489 193 b 579 351 561 262 579 303 b 554 439 579 383 571 412 b 487 503 536 466 514 487 b 397 526 459 518 429 526 z m 580 20 b 548 7 563 13 552 9 b 397 -20 499 -11 449 -20 b 201 28 329 -20 263 -4 b 55 161 140 60 91 104 b 0 351 18 218 0 281 b 32 499 0 404 11 453 b 119 617 53 545 82 584 b 247 694 157 650 199 676 b 397 722 296 712 346 722 b 548 694 450 722 500 713 b 675 617 597 676 640 650 b 764 499 713 583 743 543 b 795 351 785 453 795 404 l 795 -2 l 580 0 z "},"ã":{"ha":829,"x_min":0,"x_max":0,"o":"m 593 1009 b 530 943 581 965 560 943 b 425 975 515 943 480 954 b 298 991 369 985 327 991 b 168 931 245 991 203 971 b 109 785 134 891 114 843 l 220 785 b 245 836 223 805 231 821 b 289 857 258 850 272 857 b 391 826 311 857 345 846 b 506 796 444 806 482 796 b 644 852 568 796 614 814 b 705 1009 674 888 694 941 z m 397 526 b 309 503 366 526 336 518 b 241 439 281 487 259 466 b 216 351 224 412 216 383 b 271 227 216 303 235 262 b 397 176 307 193 349 176 b 525 227 447 176 489 193 b 579 351 561 262 579 303 b 554 439 579 383 571 412 b 487 503 536 466 514 487 b 397 526 459 518 429 526 z m 580 20 b 548 7 563 13 552 9 b 397 -20 499 -11 449 -20 b 201 28 329 -20 263 -4 b 55 161 140 60 91 104 b 0 351 18 218 0 281 b 32 499 0 404 11 453 b 119 617 53 545 82 584 b 247 694 157 650 199 676 b 397 722 296 712 346 722 b 548 694 450 722 500 713 b 675 617 597 676 640 650 b 764 499 713 583 743 543 b 795 351 785 453 795 404 l 795 -2 l 580 0 z "},"ä":{"ha":829,"x_min":0,"x_max":0,"o":"m 465 847 b 509 802 475 828 490 813 b 569 785 527 790 547 785 b 633 801 592 785 613 790 b 678 846 652 812 667 827 b 694 907 689 864 694 885 b 659 994 694 941 682 970 b 569 1029 635 1018 605 1029 b 509 1013 547 1029 528 1024 b 465 968 491 1001 476 986 b 448 907 454 949 448 930 b 465 847 448 886 454 866 z m 105 847 b 149 802 115 828 130 813 b 210 785 168 790 187 785 b 273 801 233 785 254 790 b 319 846 293 812 308 827 b 335 907 330 864 335 885 b 299 994 335 941 323 970 b 210 1029 275 1018 245 1029 b 150 1013 188 1029 168 1024 b 106 968 132 1001 117 986 b 89 907 94 949 89 930 b 105 847 89 886 94 866 z m 397 526 b 309 503 366 526 336 518 b 241 439 281 487 259 466 b 216 351 224 412 216 383 b 271 227 216 303 235 262 b 397 176 307 193 349 176 b 525 227 447 176 489 193 b 579 351 561 262 579 303 b 554 439 579 383 571 412 b 487 503 536 466 514 487 b 397 526 459 518 429 526 z m 580 20 b 548 7 563 13 552 9 b 397 -20 499 -11 449 -20 b 201 28 329 -20 263 -4 b 55 161 140 60 91 104 b 0 351 18 218 0 281 b 32 499 0 404 11 453 b 119 617 53 545 82 584 b 247 694 157 650 199 676 b 397 722 296 712 346 722 b 548 694 450 722 500 713 b 675 617 597 676 640 650 b 764 499 713 583 743 543 b 795 351 785 453 795 404 l 795 -2 l 580 0 z "},"å":{"ha":829,"x_min":0,"x_max":0,"o":"m 525 829 b 570 939 555 859 570 896 b 525 1049 570 982 555 1019 b 415 1095 494 1080 458 1095 b 304 1049 372 1095 335 1080 b 259 939 274 1019 259 982 b 304 829 259 896 274 859 b 415 783 335 798 372 783 b 525 829 458 783 494 798 z m 376 941 b 388 970 376 953 380 962 b 416 981 395 977 405 981 b 444 970 426 981 435 977 b 456 941 452 962 456 953 b 444 913 456 930 452 921 b 416 902 435 906 426 902 b 388 913 405 902 395 906 b 376 941 380 921 376 930 z m 397 526 b 309 503 366 526 336 518 b 241 439 281 487 259 466 b 216 351 224 412 216 383 b 271 227 216 303 235 262 b 397 176 307 193 349 176 b 525 227 447 176 489 193 b 579 351 561 262 579 303 b 554 439 579 383 571 412 b 487 503 536 466 514 487 b 397 526 459 518 429 526 z m 580 20 b 548 7 563 13 552 9 b 397 -20 499 -11 449 -20 b 201 28 329 -20 263 -4 b 55 161 140 60 91 104 b 0 351 18 218 0 281 b 32 499 0 404 11 453 b 119 617 53 545 82 584 b 247 694 157 650 199 676 b 397 722 296 712 346 722 b 548 694 450 722 500 713 b 675 617 597 676 640 650 b 764 499 713 583 743 543 b 795 351 785 453 795 404 l 795 -2 l 580 0 z "},"æ":{"ha":1225,"x_min":0,"x_max":0,"o":"m 943 480 b 895 524 927 499 911 513 b 810 547 869 539 840 547 b 724 524 779 547 751 539 b 677 480 708 513 692 499 l 943 480 z m 304 295 b 246 239 266 288 246 269 b 260 201 246 223 251 210 b 301 186 270 191 283 186 b 360 213 326 186 345 195 b 382 285 375 231 382 256 l 382 306 z m 82 698 b 338 745 151 729 236 745 b 556 668 429 745 503 719 l 564 660 b 665 721 594 686 628 706 b 810 749 713 739 761 749 b 954 721 859 749 907 739 b 1076 642 1000 703 1040 676 b 1160 519 1112 607 1140 566 b 1191 369 1181 473 1191 422 l 1191 363 b 1190 355 1191 359 1191 357 l 1189 343 l 1105 343 l 1105 342 l 638 342 b 688 241 644 302 660 269 b 810 188 722 205 763 188 b 932 241 857 188 897 205 l 933 242 l 935 245 l 937 248 l 939 249 l 1055 78 b 954 14 1021 50 987 28 b 810 -14 907 -4 859 -14 b 622 36 742 -14 680 3 b 555 83 597 50 574 66 b 369 -18 509 22 447 -12 b 79 41 229 -31 132 -12 b 0 220 26 93 0 153 b 238 462 0 359 79 439 l 410 485 b 380 542 410 508 400 527 b 298 564 359 556 331 564 b 82 506 240 570 168 551 l 82 698 z "},"ç":{"ha":688,"x_min":0,"x_max":0,"o":"m 286 -94 b 357 -110 319 -95 343 -100 b 376 -140 370 -119 376 -129 b 356 -171 376 -152 369 -162 b 302 -186 342 -181 324 -186 b 235 -161 278 -186 256 -178 l 186 -224 b 302 -255 224 -245 262 -255 b 418 -222 347 -255 386 -244 b 468 -140 451 -200 468 -172 b 444 -80 468 -119 460 -98 b 397 -45 429 -63 414 -52 l 412 -22 b 486 -12 434 -21 459 -18 b 583 20 518 -5 551 5 b 654 71 613 35 637 52 l 536 227 b 399 174 498 191 452 174 b 303 201 363 174 331 182 b 239 273 275 218 253 243 b 216 376 224 304 216 338 b 269 500 216 426 234 467 b 395 550 303 534 345 550 b 471 537 422 550 448 546 b 534 500 494 529 515 517 l 647 659 b 530 724 613 686 574 708 b 395 746 486 739 441 746 b 237 718 338 746 286 736 b 111 636 188 698 146 671 b 29 510 76 601 49 559 b 0 349 9 463 0 409 b 48 165 0 283 16 222 b 186 29 80 109 126 64 b 323 -17 227 5 273 -9 z "},"è":{"ha":796,"x_min":0,"x_max":0,"o":"m 182 1059 l 382 1059 l 480 785 l 330 785 z m 514 460 b 467 503 499 478 484 492 b 381 526 440 518 412 526 b 296 503 351 526 322 518 b 248 460 279 492 263 478 l 514 460 z m 525 694 b 648 617 571 676 612 650 b 732 498 684 584 711 545 b 762 352 752 453 762 404 l 762 342 l 762 338 l 760 327 l 676 327 l 676 326 l 210 326 b 259 227 215 288 231 255 b 381 176 294 193 334 176 b 503 227 428 176 469 193 l 505 229 l 507 231 l 509 233 l 510 235 l 627 68 b 525 7 594 42 560 21 b 381 -20 479 -12 431 -20 b 193 28 314 -20 251 -4 b 53 161 134 60 87 105 b 0 352 18 218 0 281 b 31 498 0 405 10 454 b 115 616 51 544 79 583 b 237 694 151 651 191 677 b 381 722 283 713 331 722 b 525 694 431 722 479 713 z "},"é":{"ha":796,"x_min":0,"x_max":0,"o":"m 458 785 l 308 785 l 406 1059 l 606 1059 z m 514 460 b 467 503 499 478 484 492 b 381 526 440 518 412 526 b 296 503 351 526 322 518 b 248 460 279 492 263 478 l 514 460 z m 525 694 b 648 617 571 676 612 650 b 732 498 684 584 711 545 b 762 352 752 453 762 404 l 762 342 l 762 338 l 760 327 l 676 327 l 676 326 l 210 326 b 259 227 215 288 231 255 b 381 176 294 193 334 176 b 503 227 428 176 469 193 l 505 229 l 507 231 l 509 233 l 510 235 l 627 68 b 525 7 594 42 560 21 b 381 -20 479 -12 431 -20 b 193 28 314 -20 251 -4 b 53 161 134 60 87 105 b 0 352 18 218 0 281 b 31 498 0 405 10 454 b 115 616 51 544 79 583 b 237 694 151 651 191 677 b 381 722 283 713 331 722 b 525 694 431 722 479 713 z "},"ê":{"ha":796,"x_min":0,"x_max":0,"o":"m 470 785 l 378 889 l 286 785 l 121 785 l 387 1102 l 641 785 z m 514 460 b 467 503 499 478 484 492 b 381 526 440 518 412 526 b 296 503 351 526 322 518 b 248 460 279 492 263 478 l 514 460 z m 525 694 b 648 617 571 676 612 650 b 732 498 684 584 711 545 b 762 352 752 453 762 404 l 762 342 l 762 338 l 760 327 l 676 327 l 676 326 l 210 326 b 259 227 215 288 231 255 b 381 176 294 193 334 176 b 503 227 428 176 469 193 l 505 229 l 507 231 l 509 233 l 510 235 l 627 68 b 525 7 594 42 560 21 b 381 -20 479 -12 431 -20 b 193 28 314 -20 251 -4 b 53 161 134 60 87 105 b 0 352 18 218 0 281 b 31 498 0 405 10 454 b 115 616 51 544 79 583 b 237 694 151 651 191 677 b 381 722 283 713 331 722 b 525 694 431 722 479 713 z "},"ë":{"ha":796,"x_min":0,"x_max":0,"o":"m 454 847 b 498 802 465 828 479 813 b 559 785 517 790 536 785 b 623 801 582 785 603 790 b 668 846 642 812 657 827 b 684 907 679 864 684 885 b 648 994 684 941 672 970 b 559 1029 625 1018 595 1029 b 499 1013 537 1029 517 1024 b 455 968 481 1001 466 986 b 438 907 444 949 438 930 b 454 847 438 886 444 866 z m 95 847 b 139 802 105 828 120 813 b 199 785 157 790 177 785 b 263 801 222 785 243 790 b 309 846 283 812 298 827 b 325 907 319 864 325 885 b 289 994 325 941 313 970 b 199 1029 265 1018 235 1029 b 140 1013 178 1029 158 1024 b 96 968 121 1001 106 986 b 79 907 84 949 79 930 b 95 847 79 886 84 866 z m 514 460 b 467 503 499 478 484 492 b 381 526 440 518 412 526 b 296 503 351 526 322 518 b 248 460 279 492 263 478 l 514 460 z m 525 694 b 648 617 571 676 612 650 b 732 498 684 584 711 545 b 762 352 752 453 762 404 l 762 342 l 762 338 l 760 327 l 676 327 l 676 326 l 210 326 b 259 227 215 288 231 255 b 381 176 294 193 334 176 b 503 227 428 176 469 193 l 505 229 l 507 231 l 509 233 l 510 235 l 627 68 b 525 7 594 42 560 21 b 381 -20 479 -12 431 -20 b 193 28 314 -20 251 -4 b 53 161 134 60 87 105 b 0 352 18 218 0 281 b 31 498 0 405 10 454 b 115 616 51 544 79 583 b 237 694 151 651 191 677 b 381 722 283 713 331 722 b 525 694 431 722 479 713 z "},"ì":{"ha":356,"x_min":0,"x_max":0,"o":"m 0 693 l 0 -1 l 216 -1 l 216 691 z m -106 1059 l 94 1059 l 192 786 l 42 786 z "},"í":{"ha":353,"x_min":0,"x_max":0,"o":"m 0 693 l 0 -1 l 216 -1 l 216 691 z m 172 786 l 22 786 l 119 1059 l 319 1059 z "},"î":{"ha":553,"x_min":0,"x_max":0,"o":"m 1 693 l 1 -1 l 217 -1 l 217 691 z m 198 784 l 105 888 l 13 784 l -151 784 l 115 1101 l 368 784 z "},"ï":{"ha":640,"x_min":0,"x_max":0,"o":"m -1 693 l -1 -1 l 215 -1 l 215 691 z m 193 848 b 237 803 203 829 218 814 b 298 786 256 791 275 786 b 361 802 321 786 342 791 b 407 847 381 813 396 828 b 423 909 418 865 423 886 b 387 996 423 943 411 972 b 298 1031 363 1019 334 1031 b 238 1014 276 1031 256 1025 b 194 969 220 1002 205 987 b 177 909 182 951 177 931 b 193 848 177 888 182 867 z m -166 848 b -122 803 -156 829 -141 814 b -62 786 -104 791 -84 786 b 2 802 -39 786 -18 791 b 47 847 22 813 37 828 b 64 909 58 865 64 886 b 28 996 64 943 52 972 b -62 1031 4 1019 -26 1031 b -121 1014 -83 1031 -103 1025 b -165 969 -140 1002 -155 987 b -182 909 -177 951 -182 931 b -166 848 -182 888 -177 867 z "},"ð":{"ha":829,"x_min":0,"x_max":0,"o":"m 397 180 b 271 234 349 180 307 198 b 216 363 235 270 216 313 b 241 453 216 395 224 425 b 309 519 258 481 281 503 b 397 543 336 535 366 543 b 487 519 429 543 459 535 b 554 453 515 503 537 481 b 579 363 571 425 579 395 b 525 234 579 313 561 270 b 397 180 489 198 447 180 z m 486 1000 l 427 1047 l 366 970 b 320 995 351 979 336 987 b 300 1005 314 998 308 1002 l 292 1010 l 283 1015 l 216 920 b 294 880 244 911 270 897 l 240 812 l 300 765 l 349 827 b 414 751 370 806 392 781 b 248 718 349 747 293 736 b 119 637 199 699 157 672 b 32 515 82 603 53 562 b 0 363 11 467 0 416 b 55 165 0 290 18 224 b 201 28 91 106 140 61 b 397 -22 263 -5 329 -22 b 548 6 450 -22 500 -13 b 676 87 595 24 638 52 b 764 210 714 123 743 163 b 795 363 785 256 795 307 b 791 418 795 382 794 400 b 431 931 772 618 652 789 z "},"ñ":{"ha":646,"x_min":0,"x_max":0,"o":"m 484 1009 b 421 943 473 965 452 943 b 315 975 406 943 371 954 b 189 991 260 985 218 991 b 60 931 137 991 94 971 b 0 785 25 891 5 842 l 111 785 b 136 836 114 805 122 821 b 180 857 149 850 163 857 b 283 826 201 857 235 846 b 397 796 336 806 374 796 b 535 852 459 796 505 814 b 595 1009 565 888 585 941 z m 300 532 b 217 421 245 530 217 493 l 217 0 l 0 0 l 0 421 b 300 722 0 612 100 712 l 312 722 b 612 421 512 712 612 612 l 612 0 l 395 0 l 395 421 b 312 532 395 493 367 530 z "},"ò":{"ha":829,"x_min":0,"x_max":0,"o":"m 199 1059 l 399 1059 l 497 785 l 347 785 z m 55 160 b 201 26 91 104 140 59 b 397 -22 263 -6 329 -22 b 548 5 450 -22 500 -13 b 676 83 595 23 637 49 b 764 203 713 118 743 158 b 795 351 785 248 795 297 b 764 499 795 404 785 453 b 676 618 743 544 713 584 b 548 696 638 653 595 679 b 397 723 500 714 450 723 b 248 696 346 723 296 714 b 119 618 199 677 157 651 b 32 499 82 585 53 545 b 0 351 11 453 0 404 b 55 160 0 281 18 217 z m 397 174 b 271 227 349 174 307 192 b 216 351 235 261 216 303 b 241 439 216 383 224 412 b 309 503 259 466 281 487 b 397 526 336 518 366 526 b 487 503 429 526 459 518 b 554 439 514 487 536 466 b 579 351 571 412 579 383 b 525 227 579 303 561 261 b 397 174 489 192 446 174 z "},"ó":{"ha":829,"x_min":0,"x_max":0,"o":"m 479 785 l 329 785 l 427 1059 l 627 1059 z m 55 160 b 201 26 91 104 140 59 b 397 -22 263 -6 329 -22 b 548 5 450 -22 500 -13 b 676 83 595 23 637 49 b 764 203 713 118 743 158 b 795 351 785 248 795 297 b 764 499 795 404 785 453 b 676 618 743 544 713 584 b 548 696 638 653 595 679 b 397 723 500 714 450 723 b 248 696 346 723 296 714 b 119 618 199 677 157 651 b 32 499 82 585 53 545 b 0 351 11 453 0 404 b 55 160 0 281 18 217 z m 397 174 b 271 227 349 174 307 192 b 216 351 235 261 216 303 b 241 439 216 383 224 412 b 309 503 259 466 281 487 b 397 526 336 518 366 526 b 487 503 429 526 459 518 b 554 439 514 487 536 466 b 579 351 571 412 579 383 b 525 227 579 303 561 261 b 397 174 489 192 446 174 z "},"ô":{"ha":829,"x_min":0,"x_max":0,"o":"m 487 784 l 394 888 l 302 784 l 138 784 l 404 1101 l 657 784 z m 55 160 b 201 26 91 104 140 59 b 397 -22 263 -6 329 -22 b 548 5 450 -22 500 -13 b 676 83 595 23 637 49 b 764 203 713 118 743 158 b 795 351 785 248 795 297 b 764 499 795 404 785 453 b 676 618 743 544 713 584 b 548 696 638 653 595 679 b 397 723 500 714 450 723 b 248 696 346 723 296 714 b 119 618 199 677 157 651 b 32 499 82 585 53 545 b 0 351 11 453 0 404 b 55 160 0 281 18 217 z m 397 174 b 271 227 349 174 307 192 b 216 351 235 261 216 303 b 241 439 216 383 224 412 b 309 503 259 466 281 487 b 397 526 336 518 366 526 b 487 503 429 526 459 518 b 554 439 514 487 536 466 b 579 351 571 412 579 383 b 525 227 579 303 561 261 b 397 174 489 192 446 174 z "},"õ":{"ha":829,"x_min":0,"x_max":0,"o":"m 584 1009 b 521 943 572 965 551 943 b 416 975 507 943 471 954 b 289 991 360 985 318 991 b 159 931 237 991 194 971 b 100 785 125 891 105 843 l 211 785 b 236 836 214 805 222 821 b 280 857 249 850 263 857 b 382 826 302 857 336 846 b 497 796 435 806 473 796 b 635 852 559 796 605 814 b 696 1009 665 888 686 941 z m 55 160 b 201 26 91 104 140 59 b 397 -22 263 -6 329 -22 b 548 5 450 -22 500 -13 b 676 83 595 23 637 49 b 764 203 713 118 743 158 b 795 351 785 248 795 297 b 764 499 795 404 785 453 b 676 618 743 544 713 584 b 548 696 638 653 595 679 b 397 723 500 714 450 723 b 248 696 346 723 296 714 b 119 618 199 677 157 651 b 32 499 82 585 53 545 b 0 351 11 453 0 404 b 55 160 0 281 18 217 z m 397 174 b 271 227 349 174 307 192 b 216 351 235 261 216 303 b 241 439 216 383 224 412 b 309 503 259 466 281 487 b 397 526 336 518 366 526 b 487 503 429 526 459 518 b 554 439 514 487 536 466 b 579 351 571 412 579 383 b 525 227 579 303 561 261 b 397 174 489 192 446 174 z "},"ö":{"ha":829,"x_min":0,"x_max":0,"o":"m 471 848 b 515 803 481 829 496 814 b 575 786 533 791 553 786 b 639 802 598 786 619 791 b 684 847 659 813 673 828 b 701 909 695 865 701 886 b 665 996 701 943 688 972 b 575 1031 641 1019 611 1031 b 515 1014 553 1031 534 1025 b 471 969 497 1002 482 987 b 454 909 460 951 454 931 b 471 848 454 888 460 867 z m 111 848 b 155 803 121 829 136 814 b 216 786 174 791 193 786 b 279 802 239 786 260 791 b 325 847 299 813 314 828 b 341 909 336 865 341 886 b 305 996 341 943 329 972 b 216 1031 281 1019 252 1031 b 156 1014 194 1031 174 1025 b 112 969 138 1002 123 987 b 95 909 100 951 95 931 b 111 848 95 888 100 867 z m 55 160 b 201 26 91 104 140 59 b 397 -22 263 -6 329 -22 b 548 5 450 -22 500 -13 b 676 83 595 23 637 49 b 764 203 713 118 743 158 b 795 351 785 248 795 297 b 764 499 795 404 785 453 b 676 618 743 544 713 584 b 548 696 638 653 595 679 b 397 723 500 714 450 723 b 248 696 346 723 296 714 b 119 618 199 677 157 651 b 32 499 82 585 53 545 b 0 351 11 453 0 404 b 55 160 0 281 18 217 z m 397 174 b 271 227 349 174 307 192 b 216 351 235 261 216 303 b 241 439 216 383 224 412 b 309 503 259 466 281 487 b 397 526 336 518 366 526 b 487 503 429 526 459 518 b 554 439 514 487 536 466 b 579 351 571 412 579 383 b 525 227 579 303 561 261 b 397 174 489 192 446 174 z "},"÷":{"ha":751,"x_min":0,"x_max":0,"o":"m 0 447 l 0 276 l 717 276 l 717 447 z m 247 541 b 291 495 257 522 272 507 b 351 478 309 484 329 478 b 415 494 374 478 395 484 b 460 539 435 505 450 520 b 477 601 471 557 477 578 b 441 688 477 635 465 664 b 351 723 417 711 387 723 b 292 706 330 723 310 718 b 248 661 273 694 258 680 b 231 601 236 643 231 623 b 247 541 231 580 236 559 z m 247 59 b 291 14 257 40 272 25 b 351 -3 309 2 329 -3 b 415 13 374 -3 395 2 b 460 58 435 24 450 39 b 477 119 471 76 477 97 b 441 206 477 153 465 182 b 351 241 417 230 387 241 b 292 224 330 241 310 236 b 248 180 273 213 258 198 b 231 119 236 161 231 142 b 247 59 231 98 236 78 z "},"ø":{"ha":836,"x_min":0,"x_max":0,"o":"m 241 275 b 223 352 229 299 223 325 b 248 439 223 384 231 413 b 315 503 266 467 288 488 b 404 527 343 519 373 527 b 482 509 431 527 456 521 z m 562 437 b 586 352 578 411 586 382 b 532 227 586 304 568 262 b 404 174 496 192 453 174 b 316 197 372 174 342 182 z m 633 658 b 555 697 611 673 585 686 b 404 724 507 715 456 724 b 254 697 353 724 302 715 b 126 618 206 679 163 653 b 39 500 89 585 60 546 b 7 352 18 454 7 404 b 62 160 7 282 25 218 l 67 152 l 74 143 b 87 124 79 136 83 130 l 0 39 l 77 -35 l 166 51 b 208 26 178 43 192 35 b 404 -23 270 -7 336 -23 b 555 5 456 -23 507 -14 b 683 83 602 22 644 49 b 771 203 720 118 750 158 b 802 352 792 248 802 297 b 770 500 802 404 791 454 b 714 587 756 530 738 559 l 795 665 l 718 740 z "},"ù":{"ha":646,"x_min":0,"x_max":0,"o":"m 94 1058 l 294 1058 l 391 785 l 241 785 z m 217 290 b 300 176 217 216 245 178 l 312 176 b 395 290 367 178 395 216 l 395 694 l 612 694 l 612 290 b 312 -21 612 94 512 -10 l 300 -21 b 0 290 100 -10 0 94 l 0 694 l 217 694 z "},"ú":{"ha":646,"x_min":0,"x_max":0,"o":"m 379 786 l 229 786 l 327 1059 l 527 1059 z m 217 290 b 300 176 217 216 245 178 l 312 176 b 395 290 367 178 395 216 l 395 694 l 612 694 l 612 290 b 312 -21 612 94 512 -10 l 300 -21 b 0 290 100 -10 0 94 l 0 694 l 217 694 z "},"û":{"ha":646,"x_min":0,"x_max":0,"o":"m 397 785 l 305 889 l 213 785 l 49 785 l 314 1102 l 568 785 z m 217 290 b 300 176 217 216 245 178 l 312 176 b 395 290 367 178 395 216 l 395 694 l 612 694 l 612 290 b 312 -21 612 94 512 -10 l 300 -21 b 0 290 100 -10 0 94 l 0 694 l 217 694 z "},"ü":{"ha":646,"x_min":0,"x_max":0,"o":"m 382 847 b 427 802 393 828 408 813 b 487 785 445 790 465 785 b 551 801 510 785 531 790 b 596 846 570 812 585 827 b 612 907 607 864 612 885 b 576 994 612 941 600 970 b 487 1029 553 1018 523 1029 b 427 1013 465 1029 446 1024 b 383 968 409 1001 394 986 b 366 907 372 949 366 930 b 382 847 366 886 372 866 z m 23 847 b 67 802 33 828 48 813 b 127 785 85 790 105 785 b 191 801 151 785 172 790 b 237 846 211 812 226 827 b 253 907 248 864 253 885 b 217 994 253 941 241 970 b 127 1029 193 1018 163 1029 b 68 1013 106 1029 86 1024 b 24 968 50 1001 35 986 b 7 907 12 949 7 930 b 23 847 7 886 12 866 z m 217 290 b 300 176 217 216 245 178 l 312 176 b 395 290 367 178 395 216 l 395 694 l 612 694 l 612 290 b 312 -21 612 94 512 -10 l 300 -21 b 0 290 100 -10 0 94 l 0 694 l 217 694 z "},"ý":{"ha":704,"x_min":0,"x_max":0,"o":"m 454 -1 b 340 -31 433 -20 395 -31 b 20 275 127 -44 20 58 l 20 694 l 237 694 l 237 290 b 265 197 237 249 246 218 b 345 165 284 176 311 165 b 425 197 378 165 405 176 b 453 290 444 218 453 250 l 453 693 l 670 694 l 670 -82 b 581 -299 670 -166 640 -239 b 469 -366 553 -327 515 -349 b 339 -389 427 -381 383 -389 l 303 -389 b 71 -299 206 -387 129 -357 b 0 -195 33 -260 9 -225 l 196 -80 b 236 -167 198 -115 211 -143 b 325 -202 261 -191 290 -202 b 398 -179 351 -202 376 -195 b 445 -121 419 -165 435 -145 l 446 -119 l 447 -115 l 448 -111 l 450 -106 b 453 -90 451 -103 452 -98 l 453 -89 l 454 -87 l 454 -80 l 454 -80 z m 418 786 l 269 786 l 366 1059 l 566 1059 z "},"þ":{"ha":830,"x_min":0,"x_max":0,"o":"m 271 469 b 217 340 235 433 217 389 b 242 250 217 307 225 277 b 309 184 259 222 281 200 b 398 159 337 168 367 159 b 488 184 430 159 460 168 b 555 250 515 200 538 222 b 580 340 572 277 580 307 b 526 469 580 389 562 433 b 398 522 490 505 448 522 b 271 469 349 522 307 505 z m 214 681 b 398 725 272 710 334 725 b 549 697 450 725 500 715 b 676 616 596 679 639 652 b 764 492 713 581 743 540 b 796 340 785 444 796 393 b 764 187 796 286 785 235 b 676 65 743 140 713 100 b 549 -16 640 29 597 3 b 398 -43 499 -34 449 -43 b 248 -16 347 -43 297 -34 l 232 -9 l 217 -2 l 217 -260 l 1 -260 l 0 962 l 214 962 z "},"ÿ":{"ha":704,"x_min":0,"x_max":0,"o":"m 454 -1 b 340 -31 433 -20 395 -31 b 20 275 127 -44 20 58 l 20 694 l 237 694 l 237 290 b 265 197 237 249 246 218 b 345 165 284 176 311 165 b 425 197 378 165 405 176 b 453 290 444 218 453 250 l 453 693 l 670 694 l 670 -82 b 581 -299 670 -166 640 -239 b 469 -366 553 -327 515 -349 b 339 -389 427 -381 383 -389 l 303 -389 b 71 -299 206 -387 129 -357 b 0 -195 33 -260 9 -225 l 196 -80 b 236 -167 198 -115 211 -143 b 325 -202 261 -191 290 -202 b 398 -179 351 -202 376 -195 b 445 -121 419 -165 435 -145 l 446 -119 l 447 -115 l 448 -111 l 450 -106 b 453 -90 451 -103 452 -98 l 453 -89 l 454 -87 l 454 -80 l 454 -80 z m 425 848 b 469 802 435 829 450 814 b 529 785 487 791 507 785 b 593 802 552 785 573 791 b 638 846 612 812 627 827 b 654 908 649 865 654 886 b 618 995 654 942 642 971 b 529 1030 595 1019 565 1030 b 469 1013 507 1030 488 1025 b 425 968 451 1002 436 987 b 408 908 414 950 408 930 b 425 848 408 887 414 867 z m 65 848 b 109 802 75 829 90 814 b 170 785 127 791 147 785 b 233 802 193 785 214 791 b 279 846 253 812 268 827 b 295 908 290 865 295 886 b 259 995 295 942 283 971 b 170 1030 235 1019 205 1030 b 110 1013 148 1030 128 1025 b 66 968 92 1002 77 987 b 49 908 54 950 49 930 b 65 848 49 887 54 867 z "},"ı":{"ha":250,"x_min":0,"x_max":0,"o":"m 0 693 l 0 -1 l 216 -1 l 216 691 z "},"ˆ":{"ha":553,"x_min":0,"x_max":0,"o":"m 349 804 l 256 908 l 164 804 l 0 804 l 265 1121 l 519 804 z "},"ˇ":{"ha":553,"x_min":0,"x_max":0,"o":"m 170 1121 l 263 1017 l 355 1121 l 519 1121 l 254 804 l 0 1121 z "},"ˉ":{"ha":616,"x_min":0,"x_max":0,"o":"m 0 1133 l 0 962 l 582 962 l 582 1133 z "},"˘":{"ha":562,"x_min":0,"x_max":0,"o":"m 528 1197 b 448 1023 520 1122 494 1063 b 261 962 403 983 340 962 b 126 992 212 962 167 972 b 34 1076 87 1012 57 1040 b 0 1197 12 1112 1 1152 l 163 1197 b 196 1138 168 1172 178 1152 b 265 1116 214 1124 237 1116 b 333 1138 293 1116 316 1124 b 366 1197 350 1152 361 1172 z "},"˙":{"ha":279,"x_min":0,"x_max":0,"o":"m 62 1026 b 17 982 43 1016 28 1001 b 0 922 5 964 0 944 b 16 858 0 899 5 878 b 61 812 27 838 42 823 b 123 796 79 802 100 796 b 210 832 157 796 186 808 b 245 922 233 856 245 886 b 228 981 245 943 239 963 b 183 1026 216 1000 201 1015 b 123 1042 164 1037 144 1042 b 62 1026 102 1042 81 1037 z "},"˚":{"ha":345,"x_min":0,"x_max":0,"o":"m 266 736 b 311 846 296 767 311 804 b 266 957 311 890 296 926 b 155 1002 235 987 199 1002 b 45 957 113 1002 76 987 b 0 846 15 926 0 890 b 45 736 0 804 15 767 b 155 691 76 706 113 691 b 266 736 199 691 235 706 z m 119 853 b 131 882 119 865 123 874 b 159 893 138 889 148 893 b 187 882 169 893 178 889 b 199 853 195 874 199 865 b 187 825 199 842 195 833 b 159 814 178 818 169 814 b 131 825 148 814 138 818 b 119 853 123 833 119 842 z "},"˛":{"ha":599,"x_min":0,"x_max":0,"o":"m 313 142 b 88 -69 193 38 117 -33 b 19 -211 51 -114 28 -161 b 94 -410 6 -291 31 -357 b 320 -470 153 -458 229 -478 b 565 -373 397 -464 479 -431 l 476 -195 b 330 -279 417 -248 368 -275 b 255 -261 298 -282 273 -276 b 238 -213 241 -248 235 -232 b 264 -136 243 -183 251 -157 b 382 5 278 -111 318 -64 z "},"˜":{"ha":629,"x_min":0,"x_max":0,"o":"m 484 1099 b 421 1032 473 1055 452 1032 b 315 1065 406 1032 371 1043 b 189 1080 260 1075 218 1080 b 60 1021 137 1080 94 1061 b 0 875 25 981 5 932 l 111 875 b 136 925 114 895 122 911 b 180 946 149 939 163 946 b 283 916 201 946 235 936 b 397 886 336 896 374 886 b 535 941 459 886 505 904 b 595 1099 565 978 585 1030 z "},"˝":{"ha":562,"x_min":0,"x_max":0,"o":"m 150 824 l 0 824 l 98 1097 l 298 1097 z m 380 824 l 231 824 l 328 1097 l 528 1097 z "},"–":{"ha":602,"x_min":0,"x_max":0,"o":"m 568 382 l 568 552 l 1 552 l 0 382 z "},"—":{"ha":785,"x_min":0,"x_max":0,"o":"m 751 382 l 750 552 l 1 552 l 0 382 z "},"‘":{"ha":283,"x_min":0,"x_max":0,"o":"m 9 962 l 249 962 l 248 1047 b 214 1122 247 1076 235 1101 b 149 1155 195 1141 174 1152 b 201 1174 163 1162 180 1168 l 200 1241 b 9 1040 66 1221 3 1154 z "},"’":{"ha":283,"x_min":0,"x_max":0,"o":"m 239 1241 l 0 1241 l 0 1156 b 35 1081 2 1127 14 1102 b 100 1048 54 1063 75 1052 b 48 1029 86 1041 69 1035 l 49 962 b 239 1164 182 983 245 1050 z "},"‚":{"ha":283,"x_min":0,"x_max":0,"o":"m 239 212 l 0 212 l 0 127 b 35 52 2 98 14 73 b 100 20 54 34 75 23 b 48 1 86 12 69 6 l 49 -66 b 239 135 182 -46 245 21 z "},"“":{"ha":554,"x_min":0,"x_max":0,"o":"m 281 840 l 520 840 l 519 925 b 486 1000 518 954 507 979 b 420 1033 467 1019 445 1029 b 472 1052 434 1040 451 1046 l 471 1119 b 281 918 338 1099 275 1031 z m 9 840 l 249 840 l 248 925 b 214 1000 247 954 235 979 b 149 1033 195 1019 174 1029 b 201 1052 163 1040 180 1046 l 200 1119 b 9 918 66 1099 3 1031 z "},"”":{"ha":554,"x_min":0,"x_max":0,"o":"m 239 1119 l 0 1119 l 0 1034 b 35 959 2 1005 14 980 b 100 926 54 941 75 930 b 48 907 86 919 69 913 l 49 840 b 239 1042 182 861 245 928 z m 511 1119 l 271 1119 l 271 1034 b 306 959 273 1005 285 980 b 372 926 325 941 347 930 b 319 907 357 919 340 913 l 320 840 b 511 1042 454 861 517 928 z "},"„":{"ha":554,"x_min":0,"x_max":0,"o":"m 239 212 l 0 212 l 0 127 b 35 52 2 98 14 73 b 100 20 54 34 75 23 b 48 1 86 12 69 6 l 49 -66 b 239 135 182 -46 245 21 z m 511 212 l 271 212 l 271 127 b 306 52 273 98 285 73 b 372 20 325 34 347 23 b 319 1 357 12 340 6 l 320 -66 b 511 135 454 -46 517 21 z "},"†":{"ha":665,"x_min":0,"x_max":0,"o":"m 631 796 l 631 949 l 391 949 l 391 1202 l 238 1202 l 238 949 l 0 949 l 0 796 l 238 796 l 238 -189 l 391 -189 l 391 796 z "},"‡":{"ha":665,"x_min":0,"x_max":0,"o":"m 0 949 l 0 796 l 238 796 l 238 243 l 0 243 l 0 91 l 238 91 l 238 -189 l 391 -189 l 391 91 l 631 91 l 631 243 l 391 243 l 391 796 l 631 796 l 631 949 l 391 949 l 391 1202 l 238 1202 l 238 949 z "},"•":{"ha":258,"x_min":0,"x_max":0,"o":"m 192 432 b 224 511 214 454 224 480 b 192 591 224 542 214 568 b 112 623 170 612 143 623 b 33 591 81 623 55 612 b 0 511 11 568 0 542 b 33 432 0 480 11 454 b 112 399 55 410 81 399 b 192 432 143 399 170 410 z "},"…":{"ha":898,"x_min":0,"x_max":0,"o":"m 62 212 b 17 168 43 201 28 186 b 0 107 5 149 0 130 b 16 43 0 85 5 63 b 61 -2 27 24 42 9 b 123 -18 79 -13 100 -18 b 210 18 157 -18 186 -6 b 245 107 233 41 245 71 b 228 167 245 129 239 149 b 183 212 216 185 201 200 b 123 228 164 222 144 228 b 62 212 102 228 81 222 z m 371 212 b 326 168 352 201 337 186 b 309 107 314 149 309 130 b 325 43 309 85 314 63 b 370 -2 336 24 351 9 b 431 -18 388 -13 409 -18 b 518 18 465 -18 494 -6 b 553 107 542 41 553 71 b 536 167 553 129 548 149 b 492 212 525 185 510 200 b 431 228 473 222 452 228 b 371 212 410 228 390 222 z m 682 212 b 636 168 663 201 648 186 b 619 107 625 149 619 130 b 635 43 619 85 625 63 b 680 -2 646 24 661 9 b 742 -18 699 -13 720 -18 b 829 18 776 -18 805 -6 b 864 107 852 41 864 71 b 847 167 864 129 859 149 b 802 212 836 185 821 200 b 742 228 783 222 763 228 b 682 212 721 228 701 222 z "},"‹":{"ha":479,"x_min":0,"x_max":0,"o":"m 271 125 l 0 484 l 271 844 l 446 844 l 174 484 l 446 125 z "},"›":{"ha":479,"x_min":0,"x_max":0,"o":"m 0 125 l 271 484 l 0 844 l 174 844 l 446 484 l 174 125 z "},"⁄":{"ha":625,"x_min":0,"x_max":0,"o":"m 595 962 l 486 962 l 4 0 l 112 0 z "},"₣":{"ha":774,"x_min":0,"x_max":0,"o":"m 541 136 l 541 309 l 394 309 l 394 423 l 640 423 l 642 626 l 394 626 l 394 758 l 741 758 l 741 962 l 158 962 l 158 309 l 0 309 l 0 136 l 158 136 l 158 1 l 394 1 l 394 136 z "},"₤":{"ha":598,"x_min":0,"x_max":0,"o":"m 20 183 b 140 297 80 223 120 261 l 0 297 l 0 406 l 149 406 b 119 467 142 427 132 447 l 0 467 l 0 575 l 54 575 b 41 623 48 591 44 607 b 58 776 32 685 37 736 b 167 884 85 825 121 861 b 281 912 203 901 241 910 b 397 892 323 914 361 907 b 493 819 440 873 472 849 b 530 734 507 798 519 769 l 368 666 b 292 745 355 715 329 741 b 218 689 254 748 229 730 b 245 575 210 656 218 618 l 444 575 l 444 467 l 315 467 b 339 406 327 445 334 425 l 444 406 l 444 297 l 334 297 l 334 296 b 317 256 326 275 321 262 l 309 260 l 306 262 l 304 263 l 303 263 b 507 289 351 224 419 233 l 564 123 l 550 115 b 326 73 466 57 391 43 b 100 45 259 104 184 94 z "},"₧":{"ha":1513,"x_min":0,"x_max":0,"o":"m 274 758 b 364 732 313 758 343 749 b 395 656 385 714 395 689 b 364 578 395 622 385 596 b 274 551 343 560 313 551 l 213 551 l 213 758 z m 639 511 l 639 262 b 672 103 639 197 650 144 b 770 9 694 61 727 30 b 987 -22 812 -12 884 -22 l 1198 -22 b 1335 6 1245 -22 1291 -13 b 1440 90 1378 24 1413 52 b 1479 221 1466 127 1479 170 b 1434 371 1479 290 1464 339 b 1322 435 1403 403 1366 424 l 1261 451 b 1200 467 1238 457 1218 463 b 1145 521 1164 477 1145 496 b 1219 564 1145 549 1170 564 b 1333 524 1261 564 1299 550 l 1453 646 b 1382 698 1432 665 1409 682 b 1299 734 1357 712 1330 724 b 1215 746 1271 742 1243 746 b 1080 720 1167 746 1122 737 b 1021 684 1059 711 1039 699 l 1023 693 l 855 693 l 855 961 l 639 962 l 639 693 l 606 693 b 583 802 604 736 596 772 b 514 897 567 842 544 873 b 406 947 484 920 448 937 b 258 962 367 958 317 962 l 0 962 l 0 0 l 213 0 l 213 347 l 287 347 b 412 369 330 347 371 355 b 515 431 451 382 485 403 b 576 511 541 453 560 479 z m 945 511 b 990 363 945 444 960 395 b 1103 296 1021 330 1058 308 b 1224 264 1162 280 1203 269 b 1278 218 1260 254 1278 239 b 1049 168 1259 177 1183 160 b 855 279 916 174 851 212 l 855 511 z "},"€":{"ha":659,"x_min":0,"x_max":0,"o":"m 13 644 b 45 715 22 669 33 692 b 201 880 83 784 136 839 b 416 941 267 920 339 941 b 487 935 439 941 463 939 l 487 730 b 416 743 466 739 442 743 b 300 706 375 743 336 730 b 237 644 277 690 256 669 l 484 644 l 446 521 l 189 521 b 186 486 186 512 186 500 b 188 455 186 475 186 465 l 484 455 l 446 332 l 235 332 b 301 265 253 304 275 282 b 416 229 336 241 374 229 b 487 242 442 229 466 233 l 487 39 b 416 33 463 35 439 33 b 201 93 339 33 267 53 b 45 258 136 133 83 188 b 12 332 33 279 22 304 l -138 332 l -101 455 l -12 455 b -13 486 -13 460 -13 470 b -12 521 -13 488 -12 500 l -138 521 l -101 644 z "},"№":{"ha":1463,"x_min":0,"x_max":0,"o":"m 846 962 l 613 962 l 613 518 l 3 962 l 0 2 l 237 2 l 237 498 l 846 -1 z m 937 437 b 1035 345 962 397 995 367 b 1165 311 1075 322 1118 311 b 1265 330 1201 311 1235 317 b 1350 384 1298 343 1326 361 b 1409 466 1375 408 1394 435 b 1430 568 1423 496 1430 530 b 1409 669 1430 605 1423 639 b 1350 751 1394 700 1375 727 b 1265 804 1325 774 1297 792 b 1165 822 1234 816 1200 822 b 1065 804 1131 822 1097 816 b 981 750 1034 791 1005 773 b 922 669 956 728 937 701 b 901 568 908 636 901 602 b 937 437 901 519 913 475 z m 1165 470 b 1098 498 1139 470 1117 479 b 1069 567 1078 517 1069 541 b 1082 615 1069 583 1074 600 b 1118 650 1091 630 1103 642 b 1165 663 1132 659 1147 663 b 1213 650 1183 663 1198 659 b 1249 615 1227 642 1239 631 b 1261 567 1257 601 1261 585 b 1233 498 1261 541 1252 517 b 1165 470 1213 479 1191 470 z m 933 285 l 933 115 l 1402 115 l 1402 285 z "},"™":{"ha":699,"x_min":0,"x_max":0,"o":"m 83 612 l 190 612 l 190 909 l 267 909 l 267 998 l 2 998 l 0 909 l 83 909 z m 665 998 l 664 613 l 559 614 l 559 787 l 475 712 l 398 784 l 397 613 l 293 614 l 294 998 l 475 847 z "},"∂":{"ha":752,"x_min":0,"x_max":0,"o":"m 242 966 b 547 885 374 966 475 939 b 690 410 661 798 709 640 b 576 119 680 296 642 198 b 318 0 511 39 425 0 b 79 96 210 0 131 32 b 11 328 26 161 3 239 b 115 565 18 418 53 497 b 353 666 176 632 256 666 b 494 617 423 666 470 650 l 501 617 b 248 879 481 783 397 871 z m 250 182 b 344 131 270 148 301 131 b 455 196 392 131 429 153 b 502 347 481 239 497 290 b 505 458 506 393 507 431 b 374 496 470 483 426 496 b 271 439 332 496 298 477 b 225 307 245 401 229 357 b 250 182 221 257 229 216 z "},"∆":{"ha":599,"x_min":0,"x_max":0,"o":"m 313 142 b 88 -69 193 38 117 -33 b 19 -211 51 -114 28 -161 b 94 -410 6 -291 31 -357 b 320 -470 153 -458 229 -478 b 565 -373 397 -464 479 -431 l 476 -195 b 330 -279 417 -248 368 -275 b 255 -261 298 -282 273 -276 b 238 -213 241 -248 235 -232 b 264 -136 243 -183 251 -157 b 382 5 278 -111 318 -64 z "},"∏":{"ha":826,"x_min":0,"x_max":0,"o":"m 538 751 l 538 -279 l 792 -279 l 792 966 l 0 966 l 0 -279 l 254 -279 l 254 751 z "},"∑":{"ha":972,"x_min":0,"x_max":0,"o":"m 407 357 l 9 -272 l 939 -274 l 939 -62 l 436 -62 l 667 357 l 425 751 l 939 751 l 939 963 l 0 960 z "},"−":{"ha":602,"x_min":0,"x_max":0,"o":"m 568 382 l 568 552 l 1 552 l 0 382 z "},"√":{"ha":796,"x_min":0,"x_max":0,"o":"m 113 527 l 0 527 l 0 437 l 56 437 l 273 0 l 762 1042 l 649 1042 l 266 241 l 124 525 l 113 525 z "},"∞":{"ha":987,"x_min":0,"x_max":0,"o":"m 502 513 b 703 639 561 597 628 639 b 886 567 781 639 842 615 b 953 397 930 519 953 462 b 884 224 953 332 930 273 b 696 150 839 174 777 150 b 474 285 595 150 521 195 l 460 285 b 249 150 399 195 328 150 b 66 222 171 150 111 174 b 0 392 22 270 0 327 b 68 566 0 458 23 516 b 256 639 114 614 177 639 b 488 513 366 639 444 597 l 502 513 z m 144 392 b 178 296 144 355 155 323 b 269 256 200 269 231 256 b 419 372 334 256 383 294 b 269 533 385 479 335 533 b 178 491 231 533 200 519 b 144 392 155 462 144 429 z m 534 420 b 682 256 578 311 627 256 b 775 295 722 256 753 269 b 809 390 798 321 809 353 b 774 490 809 428 798 461 b 682 533 751 519 720 533 b 534 420 621 533 572 496 z "},"∫":{"ha":292,"x_min":0,"x_max":0,"o":"m 73 68 b 58 15 73 41 68 24 b 1 -1 48 6 28 1 l 0 -105 b 100 -88 40 -105 73 -100 b 165 -35 127 -77 150 -59 b 189 68 181 -12 189 22 l 187 861 b 200 923 186 894 190 914 b 257 938 209 932 228 937 l 258 1042 b 158 1026 219 1042 186 1037 b 93 973 130 1015 109 997 b 72 865 77 947 70 911 z "},"≈":{"ha":629,"x_min":0,"x_max":0,"o":"m 484 734 b 421 667 473 690 452 667 b 315 700 406 667 371 678 b 189 715 260 710 218 715 b 60 656 137 715 94 696 b 0 510 25 616 5 567 l 111 510 b 136 560 114 530 122 546 b 180 581 149 574 163 581 b 283 551 201 581 235 571 b 397 521 336 531 374 521 b 535 576 459 521 505 539 b 595 734 565 613 585 665 z m 484 496 b 421 430 473 452 452 430 b 315 463 406 430 371 441 b 189 478 260 473 218 478 b 60 418 137 478 94 458 b 0 273 25 378 5 330 l 111 273 b 136 323 114 292 122 309 b 180 344 149 337 163 344 b 283 313 201 344 235 334 b 397 283 336 294 374 283 b 535 339 459 283 505 302 b 595 496 565 376 585 428 z "},"≤":{"ha":802,"x_min":0,"x_max":0,"o":"m 308 623 l 767 827 l 767 987 l 0 627 l 767 256 l 767 416 z m 768 77 l 766 203 l 10 203 l 8 77 z "},"≥":{"ha":804,"x_min":0,"x_max":0,"o":"m 3 416 l 3 256 l 770 627 l 3 987 l 3 827 l 462 623 z m 762 77 l 760 203 l 0 203 l 2 77 z "},"ﬀ":{"ha":886,"x_min":0,"x_max":0,"o":"m 503 509 l 503 1 l 720 1 l 720 509 l 852 509 l 804 695 l 720 695 b 747 795 720 745 729 778 b 857 819 766 811 802 819 l 856 1019 b 669 988 782 1019 720 1009 b 547 889 616 967 576 935 b 503 695 517 844 503 779 l 333 695 b 361 795 333 745 342 778 b 471 819 379 811 416 819 l 469 1019 b 282 988 395 1019 333 1009 b 160 889 230 967 189 935 b 117 695 131 844 117 779 l -3 695 l 45 509 l 117 509 l 117 1 l 333 1 l 333 509 z "},"ﬃ":{"ha":1139,"x_min":0,"x_max":0,"o":"m 856 1019 b 669 988 779 1013 717 1002 b 547 889 616 967 576 935 b 503 695 517 844 503 779 l 333 695 b 361 795 333 745 342 778 b 471 819 379 811 416 819 l 469 1019 b 282 988 395 1019 333 1009 b 160 889 230 967 189 935 b 117 695 131 844 117 779 l -3 695 l 45 509 l 117 509 l 117 1 l 333 1 l 333 509 l 503 509 l 503 1 l 720 1 l 720 509 l 888 509 l 888 1 l 1104 1 l 1104 694 l 720 695 b 747 795 720 745 729 778 b 857 819 766 811 802 819 l 857 823 l 1096 823 l 1096 1017 z "},"ﬄ":{"ha":1074,"x_min":0,"x_max":0,"o":"m 682 692 b 709 788 682 739 691 771 b 816 817 728 804 764 814 l 816 692 z m 326 694 b 357 795 328 745 338 779 b 465 824 376 811 412 821 l 465 1019 b 278 988 391 1019 329 1009 b 156 889 226 967 185 935 b 113 695 127 844 113 779 l -3 695 l 46 509 l 113 509 l 113 1 l 329 1 l 329 508 l 465 509 l 465 0 l 682 0 l 682 503 l 816 503 l 816 -1 l 1037 -1 l 1037 1011 l 818 1011 l 818 1013 b 631 981 744 1013 682 1002 b 509 882 578 960 538 928 b 465 694 479 837 465 774 z "},"ﬅ":{"ha":866,"x_min":0,"x_max":0,"o":"m 373 695 l 325 509 l 444 509 l 444 276 b 477 117 444 211 454 158 b 575 22 499 75 532 43 b 736 -9 617 1 671 -9 b 770 -6 748 -9 760 -8 l 832 210 b 775 201 820 203 801 201 b 660 293 699 201 660 231 l 660 509 l 745 509 l 794 695 l 660 695 l 660 961 l 657 961 l 657 1017 l 353 1017 b 165 988 279 1019 216 1009 b 43 889 113 967 73 935 b 0 695 14 844 0 779 l 0 1 l 216 1 l 216 695 b 244 795 216 745 226 778 b 352 824 263 811 299 821 l 352 825 l 444 825 l 444 695 z "},"ﬆ":{"ha":1069,"x_min":0,"x_max":0,"o":"m 287 467 b 232 520 250 477 232 495 b 306 563 232 549 256 563 b 423 538 354 566 393 557 b 540 510 454 519 492 509 l 646 511 l 646 276 b 680 117 646 211 657 158 b 778 22 702 75 734 43 b 939 -9 820 1 873 -9 b 972 -6 951 -9 962 -8 l 1035 210 b 978 201 1023 203 1004 201 b 863 293 901 201 863 231 l 863 511 l 986 511 l 1030 693 l 863 693 l 863 961 l 646 962 l 646 693 l 541 692 b 444 720 505 693 473 702 b 302 745 415 736 368 745 b 167 720 254 745 209 736 b 68 641 125 702 93 675 b 31 511 43 605 31 562 b 77 362 31 444 46 394 b 190 295 107 330 144 307 b 311 263 249 279 290 269 b 364 218 347 254 364 239 b 267 159 364 179 332 159 b 110 226 205 159 153 182 l 0 76 b 90 18 32 51 62 32 b 178 -14 119 3 149 -7 b 285 -23 212 -20 247 -23 b 421 5 332 -23 377 -14 b 526 89 465 24 500 52 b 566 220 553 126 566 170 b 520 370 566 289 551 338 b 408 435 490 402 452 423 b 287 467 354 448 313 459 z "},"Ā":{"ha":1094,"x_min":0,"x_max":0,"o":"m 625 349 l 530 519 l 435 349 z m 722 171 l 338 171 l 243 0 l 0 0 l 408 741 l 530 962 l 652 741 l 1060 0 l 817 0 z m 239 1215 l 239 1044 l 821 1044 l 821 1215 z "},"ā":{"ha":829,"x_min":0,"x_max":0,"o":"m 124 954 l 124 783 l 706 783 l 706 954 z m 397 526 b 309 503 366 526 336 518 b 241 439 281 487 259 466 b 216 351 224 412 216 383 b 271 227 216 303 235 262 b 397 176 307 193 349 176 b 525 227 447 176 489 193 b 579 351 561 262 579 303 b 554 439 579 383 571 412 b 487 503 536 466 514 487 b 397 526 459 518 429 526 z m 580 20 b 548 7 563 13 552 9 b 397 -20 499 -11 449 -20 b 201 28 329 -20 263 -4 b 55 161 140 60 91 104 b 0 351 18 218 0 281 b 32 499 0 404 11 453 b 119 617 53 545 82 584 b 247 694 157 650 199 676 b 397 722 296 712 346 722 b 548 694 450 722 500 713 b 675 617 597 676 640 650 b 764 499 713 583 743 543 b 795 351 785 453 795 404 l 795 -2 l 580 0 z "},"Ă":{"ha":1094,"x_min":0,"x_max":0,"o":"m 625 349 l 530 519 l 435 349 z m 722 171 l 338 171 l 243 0 l 0 0 l 408 741 l 530 962 l 652 741 l 1060 0 l 817 0 z m 793 1276 b 715 1102 787 1200 760 1142 b 527 1041 669 1061 607 1041 b 393 1071 478 1041 433 1051 b 300 1155 354 1090 323 1118 b 267 1276 278 1191 267 1231 l 429 1276 b 463 1217 434 1251 445 1231 b 532 1195 481 1202 504 1195 b 600 1217 558 1195 581 1202 b 632 1276 616 1231 627 1251 z "},"ă":{"ha":829,"x_min":0,"x_max":0,"o":"m 692 1019 b 613 845 685 943 659 885 b 425 784 568 804 505 784 b 291 814 376 784 332 794 b 199 898 252 833 222 861 b 165 1019 176 934 165 974 l 328 1019 b 361 960 332 994 343 974 b 430 938 379 945 402 938 b 498 960 456 938 479 945 b 530 1019 515 974 526 994 z m 397 526 b 309 503 366 526 336 518 b 241 439 281 487 259 466 b 216 351 224 412 216 383 b 271 227 216 303 235 262 b 397 176 307 193 349 176 b 525 227 447 176 489 193 b 579 351 561 262 579 303 b 554 439 579 383 571 412 b 487 503 536 466 514 487 b 397 526 459 518 429 526 z m 580 20 b 548 7 563 13 552 9 b 397 -20 499 -11 449 -20 b 201 28 329 -20 263 -4 b 55 161 140 60 91 104 b 0 351 18 218 0 281 b 32 499 0 404 11 453 b 119 617 53 545 82 584 b 247 694 157 650 199 676 b 397 722 296 712 346 722 b 548 694 450 722 500 713 b 675 617 597 676 640 650 b 764 499 713 583 743 543 b 795 351 785 453 795 404 l 795 -2 l 580 0 z "},"Ą":{"ha":1094,"x_min":0,"x_max":0,"o":"m 625 349 l 530 519 l 435 349 z m 583 -378 b 527 -174 526 -321 507 -252 b 608 -39 540 -125 567 -80 b 766 91 633 -13 686 31 l 722 171 l 338 171 l 243 0 l 0 0 l 408 741 l 530 962 l 652 741 l 1060 0 b 777 -121 926 0 831 -40 b 745 -195 762 -142 751 -166 b 758 -244 740 -215 744 -231 b 830 -269 774 -261 798 -269 b 937 -229 869 -269 905 -256 l 1036 -404 b 804 -458 958 -441 881 -459 b 583 -378 710 -458 637 -432 z "},"ą":{"ha":809,"x_min":0,"x_max":0,"o":"m 241 435 b 309 500 258 462 281 484 b 398 524 336 515 366 524 b 487 500 429 524 459 515 b 554 435 515 484 537 462 b 579 347 571 409 579 379 b 525 220 579 299 561 256 b 398 168 489 186 446 168 b 271 220 349 168 307 186 b 216 347 235 256 216 299 b 241 435 216 379 224 409 z m 120 77 b 248 -3 157 42 199 16 b 309 -21 266 -10 286 -16 b 226 -126 269 -53 241 -87 b 259 -314 199 -195 210 -258 b 458 -410 304 -368 371 -399 b 705 -370 531 -418 614 -405 l 655 -199 b 503 -243 591 -233 540 -248 b 437 -214 472 -240 450 -230 b 429 -169 425 -201 422 -186 b 467 -106 439 -144 452 -123 b 775 -8 512 -58 614 -25 l 775 671 l 587 671 b 549 695 574 682 562 690 b 398 722 500 713 450 722 b 248 695 346 722 296 713 b 120 616 202 678 159 652 b 32 496 81 582 52 542 b 0 347 11 450 0 400 b 32 197 0 295 11 245 b 120 77 52 152 81 111 z "},"Ć":{"ha":849,"x_min":0,"x_max":0,"o":"m 815 132 b 712 46 785 98 751 70 b 475 -21 640 1 561 -21 b 237 46 389 -21 310 1 b 64 229 164 92 106 153 b 0 481 21 305 0 389 b 64 735 0 574 21 659 b 237 918 106 812 165 873 b 475 985 310 963 389 985 b 712 918 561 985 640 963 b 814 834 751 895 785 866 l 659 673 b 602 726 637 697 619 715 b 475 766 562 752 519 766 b 347 726 430 766 387 752 b 254 620 309 699 277 664 b 220 481 232 576 220 530 b 255 343 220 433 232 387 b 348 237 278 299 309 264 b 475 197 387 211 429 197 b 602 237 520 197 563 211 b 660 292 621 251 641 269 z m 525 1056 l 375 1056 l 473 1329 l 673 1329 z "},"ć":{"ha":688,"x_min":0,"x_max":0,"o":"m 647 637 b 530 701 613 664 574 685 b 395 722 485 715 440 722 b 237 694 338 722 286 713 b 111 616 189 676 146 650 b 29 494 76 581 49 541 b 0 337 9 448 0 395 b 48 159 0 274 16 214 b 186 28 80 104 126 61 b 395 -22 247 -5 317 -22 b 486 -12 424 -22 454 -19 b 583 19 519 -5 551 5 b 654 68 614 33 637 50 l 536 219 b 399 168 498 184 452 168 b 303 194 363 168 331 176 b 239 264 275 211 253 235 b 216 364 224 294 216 327 b 269 484 216 412 234 452 b 395 532 303 516 345 532 b 471 520 422 532 447 528 b 534 484 493 512 515 500 z m 434 785 l 284 785 l 382 1058 l 582 1058 z "},"Ĉ":{"ha":849,"x_min":0,"x_max":0,"o":"m 815 132 b 712 46 785 98 751 70 b 475 -21 640 1 561 -21 b 237 46 389 -21 310 1 b 64 229 164 92 106 153 b 0 481 21 305 0 389 b 64 735 0 574 21 659 b 237 918 106 812 165 873 b 475 985 310 963 389 985 b 712 918 561 985 640 963 b 814 834 751 895 785 866 l 659 673 b 602 726 637 697 619 715 b 475 766 562 752 519 766 b 347 726 430 766 387 752 b 254 620 309 699 277 664 b 220 481 232 576 220 530 b 255 343 220 433 232 387 b 348 237 278 299 309 264 b 475 197 387 211 429 197 b 602 237 520 197 563 211 b 660 292 621 251 641 269 z m 557 1063 l 465 1166 l 372 1063 l 208 1063 l 473 1379 l 728 1063 z "},"ĉ":{"ha":688,"x_min":0,"x_max":0,"o":"m 647 637 b 530 701 613 664 574 685 b 395 722 485 715 440 722 b 237 694 338 722 286 713 b 111 616 189 676 146 650 b 29 494 76 581 49 541 b 0 337 9 448 0 395 b 48 159 0 274 16 214 b 186 28 80 104 126 61 b 395 -22 247 -5 317 -22 b 486 -12 424 -22 454 -19 b 583 19 519 -5 551 5 b 654 68 614 33 637 50 l 536 219 b 399 168 498 184 452 168 b 303 194 363 168 331 176 b 239 264 275 211 253 235 b 216 364 224 294 216 327 b 269 484 216 412 234 452 b 395 532 303 516 345 532 b 471 520 422 532 447 528 b 534 484 493 512 515 500 z m 473 785 l 380 889 l 288 785 l 125 785 l 390 1102 l 644 785 z "},"Ċ":{"ha":849,"x_min":0,"x_max":0,"o":"m 815 132 b 712 46 785 98 751 70 b 475 -21 640 1 561 -21 b 237 46 389 -21 310 1 b 64 229 164 92 106 153 b 0 481 21 305 0 389 b 64 735 0 574 21 659 b 237 918 106 812 165 873 b 475 985 310 963 389 985 b 712 918 561 985 640 963 b 814 834 751 895 785 866 l 659 673 b 602 726 637 697 619 715 b 475 766 562 752 519 766 b 347 726 430 766 387 752 b 254 620 309 699 277 664 b 220 481 232 576 220 530 b 255 343 220 433 232 387 b 348 237 278 299 309 264 b 475 197 387 211 429 197 b 602 237 520 197 563 211 b 660 292 621 251 641 269 z m 408 1293 b 363 1249 389 1282 374 1267 b 346 1188 351 1230 346 1211 b 362 1124 346 1166 351 1144 b 407 1079 373 1105 388 1090 b 469 1063 425 1068 446 1063 b 555 1099 503 1063 532 1075 b 591 1188 579 1122 591 1152 b 574 1248 591 1210 585 1230 b 529 1293 562 1266 547 1281 b 469 1309 510 1303 490 1309 b 408 1293 448 1309 427 1303 z "},"ċ":{"ha":688,"x_min":0,"x_max":0,"o":"m 647 637 b 530 701 613 664 574 685 b 395 722 485 715 440 722 b 237 694 338 722 286 713 b 111 616 189 676 146 650 b 29 494 76 581 49 541 b 0 337 9 448 0 395 b 48 159 0 274 16 214 b 186 28 80 104 126 61 b 395 -22 247 -5 317 -22 b 486 -12 424 -22 454 -19 b 583 19 519 -5 551 5 b 654 68 614 33 637 50 l 536 219 b 399 168 498 184 452 168 b 303 194 363 168 331 176 b 239 264 275 211 253 235 b 216 364 224 294 216 327 b 269 484 216 412 234 452 b 395 532 303 516 345 532 b 471 520 422 532 447 528 b 534 484 493 512 515 500 z m 321 1015 b 276 971 302 1005 288 990 b 259 911 264 953 259 933 b 275 847 259 888 264 867 b 320 802 286 827 301 812 b 382 785 338 791 359 785 b 469 821 416 785 445 798 b 504 911 492 845 504 875 b 487 970 504 932 498 952 b 442 1015 475 989 460 1004 b 382 1031 423 1026 403 1031 b 321 1015 361 1031 340 1026 z "},"Č":{"ha":849,"x_min":0,"x_max":0,"o":"m 815 132 b 712 46 785 98 751 70 b 475 -21 640 1 561 -21 b 237 46 389 -21 310 1 b 64 229 164 92 106 153 b 0 481 21 305 0 389 b 64 735 0 574 21 659 b 237 918 106 812 165 873 b 475 985 310 963 389 985 b 712 918 561 985 640 963 b 814 834 751 895 785 866 l 659 673 b 602 726 637 697 619 715 b 475 766 562 752 519 766 b 347 726 430 766 387 752 b 254 620 309 699 277 664 b 220 481 232 576 220 530 b 255 343 220 433 232 387 b 348 237 278 299 309 264 b 475 197 387 211 429 197 b 602 237 520 197 563 211 b 660 292 621 251 641 269 z m 382 1379 l 475 1276 l 567 1379 l 731 1379 l 466 1063 l 212 1379 z "},"č":{"ha":688,"x_min":0,"x_max":0,"o":"m 647 637 b 530 701 613 664 574 685 b 395 722 485 715 440 722 b 237 694 338 722 286 713 b 111 616 189 676 146 650 b 29 494 76 581 49 541 b 0 337 9 448 0 395 b 48 159 0 274 16 214 b 186 28 80 104 126 61 b 395 -22 247 -5 317 -22 b 486 -12 424 -22 454 -19 b 583 19 519 -5 551 5 b 654 68 614 33 637 50 l 536 219 b 399 168 498 184 452 168 b 303 194 363 168 331 176 b 239 264 275 211 253 235 b 216 364 224 294 216 327 b 269 484 216 412 234 452 b 395 532 303 516 345 532 b 471 520 422 532 447 528 b 534 484 493 512 515 500 z m 305 1102 l 398 998 l 490 1102 l 654 1102 l 389 785 l 135 1102 z "},"Ď":{"ha":886,"x_min":0,"x_max":0,"o":"m 344 1 b 541 37 414 1 479 13 b 704 139 603 62 657 96 b 813 293 750 182 787 234 b 852 481 840 351 852 414 b 813 671 852 550 840 613 b 704 825 787 730 750 782 b 542 926 656 869 602 903 b 344 963 480 951 414 963 l 0 963 l 0 1 z m 322 758 b 434 736 361 758 398 751 b 526 675 470 720 500 701 b 585 587 551 650 570 621 b 607 481 600 551 607 516 b 586 377 607 444 600 409 b 525 288 572 344 551 314 b 433 226 498 261 468 241 b 322 203 398 211 361 203 l 245 203 l 245 758 z m 294 1359 l 387 1255 l 479 1359 l 642 1359 l 377 1042 l 123 1359 z "},"ď":{"ha":1131,"x_min":0,"x_max":0,"o":"m 309 507 b 398 531 336 523 366 531 b 487 507 430 531 459 523 b 554 442 515 491 537 470 b 579 353 571 416 579 386 b 525 227 579 304 561 262 b 398 174 489 192 447 174 b 271 227 349 174 307 192 b 216 353 235 262 216 304 b 241 442 216 386 224 416 b 309 507 258 470 281 491 z m 795 970 l 579 970 l 579 689 l 564 696 l 549 703 b 398 730 500 721 450 730 b 248 703 346 730 296 721 b 120 624 202 686 159 659 b 32 503 81 588 52 548 b 0 353 11 456 0 407 b 32 204 0 300 11 251 b 120 83 53 157 82 117 b 248 3 157 48 199 22 b 398 -24 296 -15 346 -24 b 594 25 467 -24 532 -8 b 741 160 656 58 705 102 b 795 349 777 216 795 279 z m 1087 966 l 848 966 l 848 881 b 882 806 850 852 861 827 b 948 773 901 787 923 777 b 896 754 934 766 917 760 l 897 687 b 1087 888 1030 707 1093 774 z "},"Đ":{"ha":990,"x_min":0,"x_max":0,"o":"m 450 387 l 450 577 l 349 577 l 349 758 l 426 758 b 538 736 465 758 502 751 b 629 675 574 720 604 701 b 689 587 654 650 674 621 b 711 481 703 551 711 516 b 690 377 711 444 704 409 b 629 288 675 344 655 314 b 537 226 602 261 572 241 b 426 203 502 211 465 203 l 349 203 l 349 387 z m 0 577 l 0 387 l 104 387 l 104 1 l 448 1 b 645 37 517 1 583 13 b 808 139 707 62 761 96 b 917 293 854 182 890 234 b 956 481 943 351 956 414 b 917 671 956 550 943 613 b 808 825 890 730 854 782 b 646 926 760 869 706 903 b 448 963 584 951 518 963 l 104 963 l 104 577 z "},"đ":{"ha":948,"x_min":0,"x_max":0,"o":"m 241 435 b 309 500 258 463 281 484 b 398 525 336 517 366 525 b 487 500 430 525 459 517 b 554 435 515 484 537 463 b 579 345 571 408 579 378 b 525 217 579 296 561 253 b 398 163 489 181 447 163 b 271 217 349 163 307 181 b 216 345 235 253 216 296 b 241 435 216 378 224 408 z m 914 841 l 914 963 l 798 963 l 798 1042 l 582 1043 l 581 963 l 460 963 l 460 841 l 581 841 l 579 686 l 564 692 l 549 699 b 398 727 499 718 449 727 b 248 699 347 727 297 718 b 120 619 201 682 159 655 b 32 497 81 583 52 543 b 0 345 11 450 0 399 b 32 193 0 292 11 241 b 120 70 53 146 82 105 b 248 -10 157 35 199 8 b 398 -39 295 -29 345 -39 b 594 12 467 -39 532 -22 b 741 149 656 45 705 91 b 795 340 777 206 795 271 l 794 841 z "},"Ē":{"ha":645,"x_min":0,"x_max":0,"o":"m 610 203 l 236 203 l 236 389 l 481 389 l 427 591 l 236 591 l 236 758 l 583 759 l 583 962 l 0 962 l 0 0 l 611 0 z m 1 1212 l 1 1041 l 583 1041 l 583 1212 z "},"ē":{"ha":796,"x_min":0,"x_max":0,"o":"m 97 956 l 97 785 l 679 785 l 679 956 z m 514 460 b 467 503 499 478 484 492 b 381 526 440 518 412 526 b 296 503 351 526 322 518 b 248 460 279 492 263 478 l 514 460 z m 525 694 b 648 617 571 676 612 650 b 732 498 684 584 711 545 b 762 352 752 453 762 404 l 762 342 l 762 338 l 760 327 l 676 327 l 676 326 l 210 326 b 259 227 215 288 231 255 b 381 176 294 193 334 176 b 503 227 428 176 469 193 l 505 229 l 507 231 l 509 233 l 510 235 l 627 68 b 525 7 594 42 560 21 b 381 -20 479 -12 431 -20 b 193 28 314 -20 251 -4 b 53 161 134 60 87 105 b 0 352 18 218 0 281 b 31 498 0 405 10 454 b 115 616 51 544 79 583 b 237 694 151 651 191 677 b 381 722 283 713 331 722 b 525 694 431 722 479 713 z "},"Ĕ":{"ha":645,"x_min":0,"x_max":0,"o":"m 610 203 l 236 203 l 236 389 l 481 389 l 427 591 l 236 591 l 236 758 l 581 758 l 583 962 l 0 962 l 0 0 l 611 0 z m 569 1279 b 490 1105 562 1204 536 1145 b 302 1044 445 1065 382 1044 b 168 1074 254 1044 209 1055 b 76 1158 130 1094 99 1122 b 42 1279 54 1194 43 1234 l 205 1279 b 238 1220 210 1254 220 1234 b 307 1198 256 1206 279 1198 b 375 1220 334 1198 357 1206 b 408 1279 392 1234 403 1254 z "},"ĕ":{"ha":796,"x_min":0,"x_max":0,"o":"m 645 1021 b 566 848 637 946 611 888 b 378 787 520 807 458 787 b 243 817 329 787 284 797 b 151 901 205 836 174 864 b 117 1021 129 937 118 977 l 280 1021 b 313 962 285 996 296 977 b 382 941 332 948 355 941 b 450 962 410 941 433 948 b 483 1021 467 977 478 996 z m 514 460 b 467 503 499 478 484 492 b 381 526 440 518 412 526 b 296 503 351 526 322 518 b 248 460 279 492 263 478 l 514 460 z m 525 694 b 648 617 571 676 612 650 b 732 498 684 584 711 545 b 762 352 752 453 762 404 l 762 342 l 762 338 l 760 327 l 676 327 l 676 326 l 210 326 b 259 227 215 288 231 255 b 381 176 294 193 334 176 b 503 227 428 176 469 193 l 505 229 l 507 231 l 509 233 l 510 235 l 627 68 b 525 7 594 42 560 21 b 381 -20 479 -12 431 -20 b 193 28 314 -20 251 -4 b 53 161 134 60 87 105 b 0 352 18 218 0 281 b 31 498 0 405 10 454 b 115 616 51 544 79 583 b 237 694 151 651 191 677 b 381 722 283 713 331 722 b 525 694 431 722 479 713 z "},"Ė":{"ha":645,"x_min":0,"x_max":0,"o":"m 610 203 l 236 203 l 236 389 l 481 389 l 427 591 l 236 591 l 236 758 l 581 758 l 583 962 l 0 962 l 0 0 l 611 0 z m 245 1272 b 200 1228 227 1262 212 1247 b 183 1168 189 1210 183 1190 b 199 1104 183 1145 189 1124 b 244 1059 210 1084 225 1069 b 306 1042 262 1048 283 1042 b 393 1078 340 1042 369 1055 b 428 1168 416 1102 428 1132 b 411 1227 428 1190 422 1209 b 366 1272 399 1246 385 1261 b 306 1289 347 1283 327 1289 b 245 1272 285 1289 264 1283 z "},"ė":{"ha":796,"x_min":0,"x_max":0,"o":"m 321 1015 b 276 970 302 1004 288 989 b 259 910 264 952 259 932 b 275 846 259 888 264 866 b 320 801 286 827 301 812 b 382 785 338 790 359 785 b 469 821 416 785 445 797 b 504 910 492 844 504 874 b 487 970 504 932 498 951 b 442 1015 475 988 460 1003 b 382 1031 423 1025 403 1031 b 321 1015 361 1031 340 1025 z m 514 460 b 467 503 499 478 484 492 b 381 526 440 518 412 526 b 296 503 351 526 322 518 b 248 460 279 492 263 478 l 514 460 z m 525 694 b 648 617 571 676 612 650 b 732 498 684 584 711 545 b 762 352 752 453 762 404 l 762 342 l 762 338 l 760 327 l 676 327 l 676 326 l 210 326 b 259 227 215 288 231 255 b 381 176 294 193 334 176 b 503 227 428 176 469 193 l 505 229 l 507 231 l 509 233 l 510 235 l 627 68 b 525 7 594 42 560 21 b 381 -20 479 -12 431 -20 b 193 28 314 -20 251 -4 b 53 161 134 60 87 105 b 0 352 18 218 0 281 b 31 498 0 405 10 454 b 115 616 51 544 79 583 b 237 694 151 651 191 677 b 381 722 283 713 331 722 b 525 694 431 722 479 713 z "},"Ę":{"ha":642,"x_min":0,"x_max":0,"o":"m 203 0 b 170 -39 190 -13 179 -26 b 157 -251 126 -108 121 -178 b 338 -399 190 -319 250 -369 b 581 -411 412 -425 493 -429 l 573 -213 b 431 -231 513 -237 465 -242 b 365 -182 397 -219 375 -203 b 380 -92 351 -162 356 -132 b 608 0 405 -52 481 -21 l 608 203 l 236 203 l 236 389 l 481 389 l 427 591 l 236 591 l 236 758 l 581 758 l 583 962 l 0 962 l 0 0 z "},"ę":{"ha":796,"x_min":0,"x_max":0,"o":"m 514 457 b 467 500 498 475 482 490 b 381 523 440 515 412 523 b 296 500 351 523 322 515 b 248 457 280 490 264 475 l 514 457 z m 307 -382 b 125 -261 224 -363 163 -323 b 114 -58 85 -195 81 -127 b 180 28 130 -26 151 3 b 53 155 127 60 85 102 b 0 348 18 213 0 277 b 31 496 0 401 10 450 b 115 615 52 542 79 582 b 237 694 151 650 191 676 b 381 721 283 712 331 721 b 525 694 431 721 479 712 b 648 616 572 675 612 649 b 732 496 684 583 711 543 b 762 348 752 450 762 400 l 762 338 l 762 334 l 760 323 l 676 323 l 676 321 l 210 321 b 259 222 215 283 231 250 b 381 170 294 187 334 170 b 503 222 428 170 469 187 l 505 224 l 507 226 l 509 229 l 510 230 l 627 62 b 423 -20 557 23 489 -4 b 303 -87 356 -37 316 -60 b 307 -171 290 -118 291 -146 b 367 -208 318 -189 338 -202 b 454 -195 401 -216 431 -212 l 547 -362 b 307 -382 456 -391 375 -398 z "},"Ě":{"ha":645,"x_min":0,"x_max":0,"o":"m 610 203 l 236 203 l 236 389 l 481 389 l 427 591 l 236 591 l 236 758 l 581 758 l 583 962 l 0 962 l 0 0 l 611 0 z m 223 1359 l 316 1255 l 408 1359 l 572 1359 l 307 1042 l 53 1359 z "},"ě":{"ha":796,"x_min":0,"x_max":0,"o":"m 306 1102 l 398 998 l 490 1102 l 654 1102 l 389 785 l 135 1102 z m 514 460 b 467 503 499 478 484 492 b 381 526 440 518 412 526 b 296 503 351 526 322 518 b 248 460 279 492 263 478 l 514 460 z m 525 694 b 648 617 571 676 612 650 b 732 498 684 584 711 545 b 762 352 752 453 762 404 l 762 342 l 762 338 l 760 327 l 676 327 l 676 326 l 210 326 b 259 227 215 288 231 255 b 381 176 294 193 334 176 b 503 227 428 176 469 193 l 505 229 l 507 231 l 509 233 l 510 235 l 627 68 b 525 7 594 42 560 21 b 381 -20 479 -12 431 -20 b 193 28 314 -20 251 -4 b 53 161 134 60 87 105 b 0 352 18 218 0 281 b 31 498 0 405 10 454 b 115 616 51 544 79 583 b 237 694 151 651 191 677 b 381 722 283 713 331 722 b 525 694 431 722 479 713 z "},"Ĝ":{"ha":945,"x_min":0,"x_max":0,"o":"m 884 845 b 775 918 853 872 817 897 b 646 964 734 939 691 954 b 509 980 597 975 552 980 b 254 913 417 980 332 958 b 68 730 176 867 114 806 b 0 476 23 652 0 567 b 68 223 0 385 23 300 b 254 40 114 146 176 85 b 509 -27 332 -5 417 -27 b 621 -19 544 -27 581 -24 b 729 2 665 -13 701 -5 b 829 34 760 9 793 20 b 911 72 867 49 895 62 l 911 569 l 496 569 l 581 366 l 675 366 l 675 227 b 614 199 662 214 642 205 b 539 191 587 194 562 191 b 386 226 483 191 432 203 b 277 324 339 248 303 281 b 236 476 250 367 236 418 b 257 589 236 518 243 556 b 316 680 271 624 291 654 b 407 739 341 705 372 725 b 521 760 441 753 479 760 b 641 737 563 760 603 753 b 745 673 680 722 714 701 z m 602 1063 l 509 1166 l 417 1063 l 253 1063 l 518 1379 l 772 1063 z "},"ĝ":{"ha":791,"x_min":0,"x_max":0,"o":"m 389 175 b 266 227 343 175 302 193 b 213 352 231 262 213 304 b 237 439 213 382 221 412 b 303 503 254 466 276 488 b 389 526 330 519 358 526 b 477 503 420 526 449 519 b 542 439 505 488 526 466 b 566 352 558 412 566 382 b 513 227 566 304 549 262 b 389 175 477 193 436 175 z m 758 348 b 563 693 758 522 692 637 b 376 726 522 715 460 726 b 234 698 328 726 281 716 b 113 619 189 680 148 653 b 31 498 78 585 50 544 b 0 349 10 452 0 402 b 52 155 0 277 18 212 b 191 19 87 97 133 52 b 376 -31 248 -14 310 -31 b 518 -3 425 -31 472 -21 l 524 -1 l 529 2 l 529 -69 l 528 -69 l 528 -73 l 528 -76 l 527 -79 l 527 -80 b 524 -96 526 -87 525 -93 l 522 -101 l 521 -106 l 519 -110 l 519 -112 b 469 -174 509 -137 492 -157 b 391 -198 446 -190 420 -198 b 298 -161 355 -198 324 -186 b 255 -69 271 -136 257 -105 l 48 -190 b 123 -300 57 -223 82 -260 b 369 -395 184 -362 267 -393 l 407 -395 b 544 -371 452 -395 498 -387 b 662 -300 593 -353 633 -330 b 757 -71 725 -237 757 -161 l 757 -21 z m 481 785 l 389 889 l 296 785 l 133 785 l 398 1102 l 652 785 z "},"Ğ":{"ha":945,"x_min":0,"x_max":0,"o":"m 884 845 b 775 918 853 872 817 897 b 646 964 734 939 691 954 b 509 980 597 975 552 980 b 254 913 417 980 332 958 b 68 730 176 867 114 806 b 0 476 23 652 0 567 b 68 223 0 385 23 300 b 254 40 114 146 176 85 b 509 -27 332 -5 417 -27 b 621 -19 544 -27 581 -24 b 729 2 665 -13 701 -5 b 829 34 760 9 793 20 b 911 72 867 49 895 62 l 911 569 l 496 569 l 581 366 l 675 366 l 675 227 b 614 199 662 214 642 205 b 539 191 587 194 562 191 b 386 226 483 191 432 203 b 277 324 339 248 303 281 b 236 476 250 367 236 418 b 257 589 236 518 243 556 b 316 680 271 624 291 654 b 407 739 341 705 372 725 b 521 760 441 753 479 760 b 641 737 563 760 603 753 b 745 673 680 722 714 701 z m 777 1297 b 697 1124 769 1222 743 1164 b 510 1063 652 1083 589 1063 b 375 1093 460 1063 416 1073 b 283 1177 336 1112 306 1140 b 249 1297 260 1213 250 1253 l 412 1297 b 445 1238 416 1272 427 1253 b 514 1217 463 1224 486 1217 b 582 1238 542 1217 565 1224 b 614 1297 599 1253 610 1272 z "},"ğ":{"ha":791,"x_min":0,"x_max":0,"o":"m 389 175 b 266 227 343 175 302 193 b 213 352 231 262 213 304 b 237 439 213 382 221 412 b 303 503 254 466 276 488 b 389 526 330 519 358 526 b 477 503 420 526 449 519 b 542 439 505 488 526 466 b 566 352 558 412 566 382 b 513 227 566 304 549 262 b 389 175 477 193 436 175 z m 758 348 b 563 693 758 522 692 637 b 376 726 522 715 460 726 b 234 698 328 726 281 716 b 113 619 189 680 148 653 b 31 498 78 585 50 544 b 0 349 10 452 0 402 b 52 155 0 277 18 212 b 191 19 87 97 133 52 b 376 -31 248 -14 310 -31 b 518 -3 425 -31 472 -21 l 524 -1 l 529 2 l 529 -69 l 528 -69 l 528 -73 l 528 -76 l 527 -79 l 527 -80 b 524 -96 526 -87 525 -93 l 522 -101 l 521 -106 l 519 -110 l 519 -112 b 469 -174 509 -137 492 -157 b 391 -198 446 -190 420 -198 b 298 -161 355 -198 324 -186 b 255 -69 271 -136 257 -105 l 48 -190 b 123 -300 57 -223 82 -260 b 369 -395 184 -362 267 -393 l 407 -395 b 544 -371 452 -395 498 -387 b 662 -300 593 -353 633 -330 b 757 -71 725 -237 757 -161 l 757 -21 z m 656 1021 b 577 848 649 946 623 888 b 389 787 532 807 469 787 b 255 817 340 787 296 797 b 163 901 216 836 186 864 b 129 1021 140 937 130 977 l 292 1021 b 325 962 296 996 307 977 b 394 941 343 948 366 941 b 462 962 420 941 444 948 b 494 1021 479 977 490 996 z "},"Ġ":{"ha":945,"x_min":0,"x_max":0,"o":"m 884 845 b 775 918 853 872 817 897 b 646 964 734 939 691 954 b 509 980 597 975 552 980 b 254 913 417 980 332 958 b 68 730 176 867 114 806 b 0 476 23 652 0 567 b 68 223 0 385 23 300 b 254 40 114 146 176 85 b 509 -27 332 -5 417 -27 b 621 -19 544 -27 581 -24 b 729 2 665 -13 701 -5 b 829 34 760 9 793 20 b 911 72 867 49 895 62 l 911 569 l 496 569 l 581 366 l 675 366 l 675 227 b 614 199 662 214 642 205 b 539 191 587 194 562 191 b 386 226 483 191 432 203 b 277 324 339 248 303 281 b 236 476 250 367 236 418 b 257 589 236 518 243 556 b 316 680 271 624 291 654 b 407 739 341 705 372 725 b 521 760 441 753 479 760 b 641 737 563 760 603 753 b 745 673 680 722 714 701 z m 439 1293 b 394 1249 420 1282 406 1267 b 377 1188 382 1230 377 1211 b 393 1124 377 1166 382 1144 b 438 1079 404 1105 419 1090 b 500 1063 456 1068 477 1063 b 587 1099 534 1063 563 1075 b 622 1188 610 1122 622 1152 b 605 1248 622 1210 616 1230 b 560 1293 593 1266 578 1281 b 500 1309 541 1303 521 1309 b 439 1293 479 1309 458 1303 z "},"ġ":{"ha":791,"x_min":0,"x_max":0,"o":"m 389 175 b 266 227 343 175 302 193 b 213 352 231 262 213 304 b 237 439 213 382 221 412 b 303 503 254 466 276 488 b 389 526 330 519 358 526 b 477 503 420 526 449 519 b 542 439 505 488 526 466 b 566 352 558 412 566 382 b 513 227 566 304 549 262 b 389 175 477 193 436 175 z m 758 348 b 563 693 758 522 692 637 b 376 726 522 715 460 726 b 234 698 328 726 281 716 b 113 619 189 680 148 653 b 31 498 78 585 50 544 b 0 349 10 452 0 402 b 52 155 0 277 18 212 b 191 19 87 97 133 52 b 376 -31 248 -14 310 -31 b 518 -3 425 -31 472 -21 l 524 -1 l 529 2 l 529 -69 l 528 -69 l 528 -73 l 528 -76 l 527 -79 l 527 -80 b 524 -96 526 -87 525 -93 l 522 -101 l 521 -106 l 519 -110 l 519 -112 b 469 -174 509 -137 492 -157 b 391 -198 446 -190 420 -198 b 298 -161 355 -198 324 -186 b 255 -69 271 -136 257 -105 l 48 -190 b 123 -300 57 -223 82 -260 b 369 -395 184 -362 267 -393 l 407 -395 b 544 -371 452 -395 498 -387 b 662 -300 593 -353 633 -330 b 757 -71 725 -237 757 -161 l 757 -21 z m 336 1015 b 290 971 317 1005 302 990 b 273 911 279 953 273 933 b 290 847 273 888 279 867 b 334 802 300 827 315 812 b 396 785 353 791 374 785 b 483 821 430 785 459 798 b 518 911 507 845 518 875 b 501 970 518 932 513 952 b 456 1015 490 989 475 1004 b 396 1031 437 1026 417 1031 b 336 1015 375 1031 355 1026 z "},"Ģ":{"ha":945,"x_min":0,"x_max":0,"o":"m 884 845 b 775 918 853 872 817 897 b 646 964 734 939 691 954 b 509 980 597 975 552 980 b 254 913 417 980 332 958 b 68 730 176 867 114 806 b 0 476 23 652 0 567 b 68 223 0 385 23 300 b 254 40 114 146 176 85 b 509 -27 332 -5 417 -27 b 621 -19 544 -27 581 -24 b 729 2 665 -13 701 -5 b 829 34 760 9 793 20 b 911 72 867 49 895 62 l 911 569 l 496 569 l 581 366 l 675 366 l 675 227 b 614 199 662 214 642 205 b 539 191 587 194 562 191 b 386 226 483 191 432 203 b 277 324 339 248 303 281 b 236 476 250 367 236 418 b 257 589 236 518 243 556 b 316 680 271 624 291 654 b 407 739 341 705 372 725 b 521 760 441 753 479 760 b 641 737 563 760 603 753 b 745 673 680 722 714 701 z m 623 -111 l 384 -111 l 384 -196 b 418 -271 386 -225 397 -250 b 484 -304 437 -290 459 -300 b 432 -323 470 -311 453 -317 l 433 -390 b 623 -189 566 -370 629 -302 z "},"ģ":{"ha":791,"x_min":0,"x_max":0,"o":"m 389 175 b 266 227 343 175 302 193 b 213 352 231 262 213 304 b 237 439 213 382 221 412 b 303 503 254 466 276 488 b 389 526 330 519 358 526 b 477 503 420 526 449 519 b 542 439 505 488 526 466 b 566 352 558 412 566 382 b 513 227 566 304 549 262 b 389 175 477 193 436 175 z m 758 348 b 563 693 758 522 692 637 b 376 726 522 715 460 726 b 234 698 328 726 281 716 b 113 619 189 680 148 653 b 31 498 78 585 50 544 b 0 349 10 452 0 402 b 52 155 0 277 18 212 b 191 19 87 97 133 52 b 376 -31 248 -14 310 -31 b 518 -3 425 -31 472 -21 l 524 -1 l 529 2 l 529 -69 l 528 -69 l 528 -73 l 528 -76 l 527 -79 l 527 -80 b 524 -96 526 -87 525 -93 l 522 -101 l 521 -106 l 519 -110 l 519 -112 b 469 -174 509 -137 492 -157 b 391 -198 446 -190 420 -198 b 298 -161 355 -198 324 -186 b 255 -69 271 -136 257 -105 l 48 -190 b 123 -300 57 -223 82 -260 b 369 -395 184 -362 267 -393 l 407 -395 b 544 -371 452 -395 498 -387 b 662 -300 593 -353 633 -330 b 757 -71 725 -237 757 -161 l 757 -21 z m 300 785 l 540 785 l 539 870 b 505 945 538 899 526 924 b 439 978 486 964 465 975 b 492 997 454 985 471 991 l 491 1064 b 300 863 357 1044 294 977 z "},"Ĥ":{"ha":811,"x_min":0,"x_max":0,"o":"m 236 0 l 0 0 l 0 962 l 236 962 l 236 611 l 541 611 l 541 962 l 777 962 l 777 0 l 541 0 l 541 393 l 236 393 z m 494 1042 l 402 1146 l 310 1042 l 146 1042 l 411 1359 l 665 1042 z "},"ĥ":{"ha":684,"x_min":0,"x_max":0,"o":"m 0 962 l 0 -1 l 217 0 l 217 425 b 246 519 217 467 227 498 b 325 550 265 540 292 550 b 405 519 359 550 386 540 b 433 425 424 498 433 467 l 433 -1 l 650 0 l 650 440 b 389 746 650 644 564 746 b 294 728 357 746 326 740 b 217 677 264 715 238 699 l 217 963 z m 435 1042 l 342 1146 l 250 1042 l 86 1042 l 351 1359 l 605 1042 z "},"Ħ":{"ha":1040,"x_min":0,"x_max":0,"o":"m 778 655 l 778 0 l 542 0 l 542 353 l 237 353 l 237 0 l 1 0 l 1 655 l -113 655 l -113 868 l 1 868 l 1 962 l 237 962 l 237 868 l 542 868 l 542 962 l 778 962 l 778 868 l 894 868 l 894 655 z m 237 655 l 237 570 l 542 570 l 542 655 z "},"ħ":{"ha":803,"x_min":0,"x_max":0,"o":"m -119 962 l -119 772 l 0 772 l 0 -1 l 217 0 l 217 425 b 246 519 217 467 227 498 b 325 550 265 540 292 550 b 405 519 359 550 386 540 b 433 425 424 498 433 467 l 433 -1 l 650 0 l 650 440 b 389 746 650 644 564 746 b 294 728 357 746 326 740 b 217 677 264 715 238 699 l 217 772 l 336 772 l 336 962 l 217 962 l 217 1043 l 0 1042 l 0 962 z "},"Ĩ":{"ha":629,"x_min":0,"x_max":0,"o":"m -1 1 l 235 0 l 235 962 l -1 962 z m 323 1266 b 261 1200 313 1222 292 1200 b 155 1232 246 1200 211 1211 b 29 1248 100 1242 58 1248 b -100 1188 -23 1248 -66 1228 b -160 1042 -135 1148 -155 1099 l -49 1042 b -24 1093 -46 1062 -38 1078 b 20 1114 -12 1107 3 1114 b 123 1083 41 1114 75 1103 b 237 1053 176 1063 214 1053 b 375 1109 299 1053 345 1072 b 435 1266 405 1145 425 1198 z "},"ĩ":{"ha":629,"x_min":0,"x_max":0,"o":"m -1 693 l -1 -1 l 216 -1 l 216 691 z m 313 1010 b 250 943 302 966 281 943 b 145 976 236 943 201 954 b 18 991 90 986 47 991 b -111 932 -34 991 -77 972 b -170 786 -146 892 -165 844 l -60 786 b -35 836 -56 806 -48 822 b 9 857 -22 850 -7 857 b 112 827 31 857 65 847 b 227 797 165 807 203 797 b 365 852 288 797 334 815 b 425 1010 395 889 415 941 z "},"Ī":{"ha":616,"x_min":0,"x_max":0,"o":"m 0 1 l 236 0 l 236 962 l 0 962 z m -173 1215 l -173 1044 l 409 1044 l 409 1215 z "},"ī":{"ha":616,"x_min":0,"x_max":0,"o":"m -1 693 l -1 -1 l 216 -1 l 216 694 z m -183 957 l -183 786 l 399 786 l 399 957 z "},"Ĭ":{"ha":562,"x_min":0,"x_max":0,"o":"m 1 1 l 237 0 l 237 962 l 1 962 z m 383 1277 b 304 1103 376 1202 349 1143 b 117 1042 258 1063 196 1042 b -18 1072 67 1042 22 1053 b -111 1156 -57 1092 -87 1120 b -144 1277 -133 1192 -144 1232 l 18 1277 b 52 1218 23 1252 34 1232 b 121 1196 70 1204 93 1196 b 189 1218 149 1196 172 1204 b 221 1277 205 1232 216 1252 z "},"ĭ":{"ha":561,"x_min":0,"x_max":0,"o":"m 1 694 l 1 0 l 217 1 l 217 692 z m 380 1020 b 301 846 373 945 347 886 b 113 785 256 806 193 785 b -21 815 64 785 20 795 b -113 899 -60 835 -90 863 b -147 1020 -136 935 -146 975 l 16 1020 b 49 961 20 995 31 975 b 118 939 67 947 90 939 b 186 961 144 939 168 947 b 218 1020 203 975 214 995 z "},"Į":{"ha":603,"x_min":0,"x_max":0,"o":"m 0 117 b -216 -33 -111 47 -182 -3 b -300 -159 -258 -71 -286 -112 b -251 -363 -322 -235 -306 -302 b -37 -459 -199 -420 -127 -452 b 214 -405 40 -465 123 -448 l 148 -219 b -5 -275 85 -260 34 -279 b -75 -245 -37 -273 -60 -263 b -87 -197 -88 -231 -92 -215 b 236 0 -51 -113 57 -47 l 236 962 l 0 962 z "},"į":{"ha":577,"x_min":0,"x_max":0,"o":"m 161 792 b 201 833 178 802 191 816 b 216 890 212 850 216 869 b 201 947 216 911 212 930 b 161 989 191 964 178 979 b 104 1004 144 999 125 1004 b 47 989 83 1004 64 999 b 6 947 31 979 17 965 b -9 890 -4 930 -9 911 b 7 833 -9 871 -3 851 b 47 791 17 815 31 802 b 104 777 64 781 83 777 b 161 792 125 777 144 782 z m -1 108 b -198 1 -96 62 -162 26 b -288 -103 -241 -28 -271 -63 b -253 -283 -314 -168 -302 -227 b -52 -378 -206 -335 -139 -367 b 196 -347 21 -389 104 -378 l 144 -181 b -8 -221 81 -213 30 -226 b -75 -191 -39 -218 -61 -208 b -83 -149 -86 -178 -89 -164 b -45 -90 -73 -125 -60 -105 b 216 -1 26 -29 113 0 l 216 691 l -1 693 z "},"İ":{"ha":279,"x_min":0,"x_max":0,"o":"m 4 1 l 240 0 l 240 962 l 4 962 z m 62 1304 b 17 1260 43 1294 28 1279 b 0 1200 5 1242 0 1222 b 16 1136 0 1177 5 1156 b 61 1090 27 1116 42 1101 b 123 1074 79 1080 100 1074 b 210 1110 157 1074 186 1086 b 245 1200 233 1134 245 1164 b 228 1259 245 1221 239 1241 b 183 1304 216 1278 201 1293 b 123 1320 164 1315 144 1320 b 62 1304 102 1320 81 1315 z "},"Ĳ":{"ha":576,"x_min":0,"x_max":0,"o":"m 0 1 l 236 0 l 236 962 l 0 962 z m 542 964 l 542 36 l 541 36 b 525 -53 538 3 533 -26 b 392 -256 501 -130 457 -197 b 165 -374 327 -314 252 -353 b 64 -389 135 -382 101 -387 l 64 -182 b 94 -178 78 -180 88 -179 l 98 -177 l 103 -176 l 106 -176 l 108 -176 b 231 -111 156 -163 197 -141 b 304 0 265 -80 290 -43 b 308 17 305 5 307 10 b 313 46 310 26 311 35 l 313 46 l 313 964 z "},"ĳ":{"ha":547,"x_min":0,"x_max":0,"o":"m 8 693 l 8 -1 l 224 -1 l 224 691 z m 170 792 b 210 833 186 802 200 816 b 225 890 220 850 225 869 b 210 947 225 911 220 930 b 170 989 200 964 186 979 b 113 1004 153 999 134 1004 b 56 989 92 1004 73 999 b 15 947 39 979 26 965 b 0 890 5 930 0 911 b 16 833 0 871 5 851 b 56 791 26 815 39 802 b 113 777 73 781 92 777 b 170 792 134 777 153 782 z m 208 -258 b 355 -240 268 -258 317 -252 b 447 -186 395 -229 425 -210 b 494 -96 468 -163 484 -133 b 508 36 503 -57 508 -14 l 508 694 l 292 694 l 292 57 b 275 -20 292 22 286 -3 b 227 -54 264 -38 248 -50 b 140 -62 206 -60 178 -62 z m 457 792 b 498 833 474 802 488 816 b 513 890 508 850 513 869 b 498 947 513 911 508 930 b 457 989 488 964 474 979 b 400 1004 440 999 421 1004 b 344 989 379 1004 361 999 b 302 947 327 979 313 965 b 288 890 292 930 288 911 b 303 833 288 871 293 851 b 344 791 313 815 327 802 b 400 777 361 781 379 777 b 457 792 421 777 440 782 z "},"Ĵ":{"ha":660,"x_min":0,"x_max":0,"o":"m 227 964 l 227 36 l 226 36 b 210 -53 224 3 218 -26 b 77 -256 186 -130 142 -197 b -149 -374 12 -314 -63 -353 b -250 -389 -180 -382 -214 -387 l -250 -182 b -220 -178 -237 -180 -227 -179 l -216 -177 l -212 -176 l -209 -176 l -207 -176 b -84 -111 -159 -163 -118 -141 b -11 0 -50 -80 -25 -43 b -7 17 -9 5 -8 10 b -2 46 -5 26 -3 35 l -1 46 l -1 964 z m 205 1042 l 113 1146 l 20 1042 l -144 1042 l 121 1359 l 376 1042 z "},"ĵ":{"ha":562,"x_min":0,"x_max":0,"o":"m 68 -258 b 215 -240 127 -258 176 -252 b 307 -186 254 -229 285 -210 b 354 -96 328 -163 344 -133 b 368 36 363 -57 368 -14 l 368 694 l 151 694 l 151 57 b 135 -20 151 22 146 -3 b 87 -54 124 -38 108 -50 b 0 -62 66 -60 37 -62 z m 357 785 l 264 889 l 172 785 l 8 785 l 273 1102 l 528 785 z "},"Ķ":{"ha":797,"x_min":0,"x_max":0,"o":"m 508 1 l 763 1 l 457 467 l 761 963 l 507 963 l 226 504 l 226 963 l 0 963 l 0 1 l 226 1 l 226 432 z m 479 -98 l 239 -98 l 239 -182 b 274 -258 241 -212 253 -237 b 340 -290 293 -276 315 -287 b 288 -309 326 -298 309 -304 l 288 -376 b 479 -175 422 -356 485 -289 z "},"ķ":{"ha":777,"x_min":0,"x_max":0,"o":"m 217 0 l 217 340 l 472 0 l 743 0 l 448 396 l 699 694 l 444 694 l 220 431 l 217 431 l 217 962 l 0 962 l 0 0 z m 453 -98 l 214 -98 l 214 -182 b 248 -258 216 -212 227 -237 b 314 -290 267 -276 289 -287 b 262 -309 300 -298 283 -304 l 262 -376 b 453 -175 396 -356 459 -289 z "},"ĸ":{"ha":777,"x_min":0,"x_max":0,"o":"m 217 0 l 217 340 l 472 0 l 743 0 l 448 396 l 699 694 l 444 694 l 220 431 l 217 431 l 217 692 l 0 692 l 0 0 z "},"Ĺ":{"ha":583,"x_min":0,"x_max":0,"o":"m 549 220 l 236 220 l 236 962 l 0 962 l 0 0 l 486 0 z m 328 1042 l 178 1042 l 275 1316 l 475 1316 z "},"ĺ":{"ha":361,"x_min":0,"x_max":0,"o":"m 0 -1 l 216 1 l 216 963 l 0 962 z m 179 1042 l 29 1042 l 127 1316 l 327 1316 z "},"Ļ":{"ha":583,"x_min":0,"x_max":0,"o":"m 549 220 l 236 220 l 236 962 l 0 962 l 0 0 l 486 0 z m 382 -98 l 143 -98 l 143 -182 b 178 -258 145 -212 157 -237 b 243 -290 197 -276 218 -287 b 191 -309 229 -298 212 -304 l 192 -376 b 382 -175 326 -356 389 -289 z "},"ļ":{"ha":264,"x_min":0,"x_max":0,"o":"m 1 -1 l 218 1 l 218 963 l 1 962 z m 221 -98 l 0 -98 l 0 -182 b 32 -258 2 -212 12 -237 b 93 -290 50 -276 70 -287 b 45 -309 83 -296 66 -303 l 45 -376 b 221 -175 168 -356 227 -289 z "},"Ľ":{"ha":606,"x_min":0,"x_max":0,"o":"m 549 220 l 236 220 l 236 962 l 0 962 l 0 0 l 486 0 z m 562 972 l 323 972 l 323 888 b 357 812 325 859 336 833 b 423 780 376 794 398 783 b 371 761 409 772 392 766 l 372 694 b 562 895 505 714 568 781 z "},"ľ":{"ha":562,"x_min":0,"x_max":0,"o":"m 0 -1 l 216 1 l 216 963 l 0 962 z m 519 962 l 279 962 l 279 878 b 314 802 281 848 293 823 b 380 770 333 784 355 773 b 328 751 366 762 349 756 l 328 684 b 519 885 462 704 525 771 z "},"Ŀ":{"ha":583,"x_min":0,"x_max":0,"o":"m 549 220 l 236 220 l 236 962 l 0 962 l 0 0 l 486 0 z m 338 588 b 292 544 319 578 304 563 b 275 484 281 526 275 506 b 292 420 275 461 281 439 b 336 374 302 400 317 385 b 398 358 355 363 376 358 b 485 394 432 358 461 370 b 520 484 509 418 520 448 b 503 543 520 505 515 525 b 458 588 492 562 477 576 b 398 604 439 599 419 604 b 338 588 377 604 357 599 z "},"ŀ":{"ha":517,"x_min":0,"x_max":0,"o":"m 0 -1 l 216 1 l 216 963 l 0 962 z m 301 588 b 256 544 282 578 267 563 b 239 484 244 526 239 506 b 255 420 239 461 244 439 b 300 374 266 400 281 385 b 361 358 318 363 339 358 b 448 394 395 358 425 370 b 484 484 472 418 484 448 b 467 543 484 505 478 525 b 422 588 455 562 440 576 b 361 604 403 599 382 604 b 301 588 340 604 320 599 z "},"Ł":{"ha":714,"x_min":0,"x_max":0,"o":"m 369 688 l 316 738 l 233 661 l 233 962 l -3 962 l -3 443 l -134 321 l -81 271 l -3 343 l -3 0 l 483 0 l 546 220 l 233 220 l 233 562 z "},"ł":{"ha":444,"x_min":0,"x_max":0,"o":"m -94 412 l -50 355 l -1 394 l -1 -1 l 216 1 l 216 562 l 317 641 l 273 696 l 216 652 l 216 963 l -1 962 l -1 484 z "},"Ń":{"ha":883,"x_min":0,"x_max":0,"o":"m 849 961 l 613 962 l 613 518 l 3 962 l 0 2 l 237 2 l 237 498 l 846 -1 z m 460 1042 l 310 1042 l 408 1316 l 608 1316 z "},"ń":{"ha":646,"x_min":0,"x_max":0,"o":"m 381 785 l 231 785 l 329 1058 l 529 1058 z m 300 526 b 217 410 245 524 217 485 l 217 0 l 0 0 l 0 410 b 300 722 0 608 100 711 l 312 722 b 612 410 512 711 612 608 l 612 0 l 395 0 l 395 410 b 312 526 395 485 367 524 z "},"Ņ":{"ha":883,"x_min":0,"x_max":0,"o":"m 849 961 l 613 962 l 613 518 l 3 962 l 0 2 l 237 2 l 237 498 l 846 -1 z m 572 -98 l 332 -98 l 332 -182 b 367 -258 334 -212 346 -237 b 433 -290 386 -276 408 -287 b 380 -309 418 -298 401 -304 l 381 -376 b 572 -175 515 -356 578 -289 z "},"ņ":{"ha":646,"x_min":0,"x_max":0,"o":"m 431 -98 l 192 -98 l 192 -182 b 227 -258 194 -212 205 -237 b 292 -290 245 -276 267 -287 b 240 -309 278 -298 261 -304 l 241 -376 b 431 -175 374 -356 437 -289 z m 300 526 b 217 410 245 524 217 485 l 217 0 l 0 0 l 0 410 b 300 722 0 608 100 711 l 312 722 b 612 410 512 711 612 608 l 612 0 l 395 0 l 395 410 b 312 526 395 485 367 524 z "},"Ň":{"ha":883,"x_min":0,"x_max":0,"o":"m 849 961 l 613 962 l 613 518 l 3 962 l 0 2 l 237 2 l 237 498 l 846 -1 z m 333 1299 l 425 1196 l 517 1299 l 682 1299 l 416 983 l 162 1299 z "},"ň":{"ha":646,"x_min":0,"x_max":0,"o":"m 226 1102 l 319 998 l 411 1102 l 575 1102 l 309 785 l 56 1102 z m 300 526 b 217 410 245 524 217 485 l 217 0 l 0 0 l 0 410 b 300 722 0 608 100 711 l 312 722 b 612 410 512 711 612 608 l 612 0 l 395 0 l 395 410 b 312 526 395 485 367 524 z "},"ŉ":{"ha":880,"x_min":0,"x_max":0,"o":"m 127 723 l -112 723 l -112 638 b -77 563 -110 609 -98 584 b -12 530 -58 545 -37 534 b -64 511 -26 523 -43 517 l -63 444 b 127 646 71 465 134 532 z m 420 526 b 338 410 366 524 338 485 l 338 0 l 121 0 l 121 410 b 420 722 121 608 220 711 l 433 722 b 732 410 633 711 732 608 l 732 0 l 515 0 l 515 410 b 433 526 515 485 488 524 z "},"Ŋ":{"ha":883,"x_min":0,"x_max":0,"o":"m 625 -9 b 608 -90 625 -46 619 -73 b 558 -125 596 -108 580 -119 b 468 -133 536 -130 506 -133 l 538 -336 b 690 -317 601 -336 652 -330 b 785 -261 730 -304 762 -286 b 834 -168 808 -235 824 -204 b 848 -31 844 -130 848 -85 l 848 649 l 849 961 l 613 962 l 613 518 l 3 962 l 0 2 l 237 2 l 237 498 l 625 180 z "},"ŋ":{"ha":646,"x_min":0,"x_max":0,"o":"m 205 -205 b 321 -144 250 -193 289 -174 b 391 -42 353 -116 376 -82 b 398 -3 394 -31 396 -18 l 398 417 b 315 530 398 490 370 528 l 303 530 b 291 529 302 530 298 530 b 220 417 244 522 220 485 l 220 -8 l 3 -8 l 3 417 b 303 722 3 610 103 712 l 315 722 b 615 420 515 712 614 611 b 616 419 616 420 616 420 l 616 -9 l 614 -9 b 600 -92 612 -39 608 -66 b 474 -279 577 -163 536 -226 b 259 -389 412 -333 340 -370 b 163 -403 231 -396 199 -401 l 163 -212 b 191 -208 170 -211 180 -210 l 196 -206 l 200 -205 b 203 -205 201 -205 203 -205 l 205 -205 z "},"Ō":{"ha":1050,"x_min":0,"x_max":0,"o":"m 273 619 b 372 725 297 663 330 699 b 509 765 414 751 459 765 b 645 725 557 765 602 751 b 744 619 686 699 720 663 b 781 481 768 575 781 529 b 744 342 781 433 768 387 b 644 236 719 298 686 262 b 509 196 603 210 557 196 b 372 236 459 196 414 210 b 273 342 332 262 298 298 b 236 481 248 387 236 433 b 273 619 236 529 248 575 z m 948 734 b 763 918 903 811 841 872 b 509 985 685 962 600 985 b 254 918 417 985 332 962 b 68 734 176 872 114 811 b 0 481 23 656 0 572 b 68 228 0 389 23 304 b 254 45 114 151 176 90 b 509 -22 332 0 417 -22 b 763 45 600 -22 685 0 b 948 228 841 90 903 151 b 1017 481 994 304 1017 389 b 948 734 1017 572 994 656 z m 218 1234 l 218 1063 l 800 1063 l 800 1234 z "},"ō":{"ha":829,"x_min":0,"x_max":0,"o":"m 107 956 l 107 785 l 689 785 l 689 956 z m 55 160 b 201 26 91 104 140 59 b 397 -22 263 -6 329 -22 b 548 5 450 -22 500 -13 b 676 83 595 23 637 49 b 764 203 713 118 743 158 b 795 351 785 248 795 297 b 764 499 795 404 785 453 b 676 618 743 544 713 584 b 548 696 638 653 595 679 b 397 723 500 714 450 723 b 248 696 346 723 296 714 b 119 618 199 677 157 651 b 32 499 82 585 53 545 b 0 351 11 453 0 404 b 55 160 0 281 18 217 z m 397 174 b 271 227 349 174 307 192 b 216 351 235 261 216 303 b 241 439 216 383 224 412 b 309 503 259 466 281 487 b 397 526 336 518 366 526 b 487 503 429 526 459 518 b 554 439 514 487 536 466 b 579 351 571 412 579 383 b 525 227 579 303 561 261 b 397 174 489 192 446 174 z "},"Ŏ":{"ha":1050,"x_min":0,"x_max":0,"o":"m 273 619 b 372 725 297 663 330 699 b 509 765 414 751 459 765 b 645 725 557 765 602 751 b 744 619 686 699 720 663 b 781 481 768 575 781 529 b 744 342 781 433 768 387 b 644 236 719 298 686 262 b 509 196 603 210 557 196 b 372 236 459 196 414 210 b 273 342 332 262 298 298 b 236 481 248 387 236 433 b 273 619 236 529 248 575 z m 948 734 b 763 918 903 811 841 872 b 509 985 685 962 600 985 b 254 918 417 985 332 962 b 68 734 176 872 114 811 b 0 481 23 656 0 572 b 68 228 0 389 23 304 b 254 45 114 151 176 90 b 509 -22 332 0 417 -22 b 763 45 600 -22 685 0 b 948 228 841 90 903 151 b 1017 481 994 304 1017 389 b 948 734 1017 572 994 656 z m 779 1277 b 701 1103 772 1202 746 1143 b 513 1042 655 1063 593 1042 b 378 1072 464 1042 419 1053 b 286 1156 340 1092 309 1120 b 252 1277 264 1192 253 1232 l 415 1277 b 448 1218 420 1252 431 1232 b 517 1196 467 1204 490 1196 b 585 1218 544 1196 567 1204 b 618 1277 602 1232 613 1252 z "},"ŏ":{"ha":829,"x_min":0,"x_max":0,"o":"m 661 1020 b 583 846 654 945 628 886 b 395 785 537 806 475 785 b 260 815 346 785 301 795 b 168 899 222 835 191 863 b 134 1020 146 935 135 975 l 297 1020 b 330 961 302 995 313 975 b 399 939 349 947 372 939 b 467 961 426 939 449 947 b 500 1020 484 975 495 995 z m 55 160 b 201 26 91 104 140 59 b 397 -22 263 -6 329 -22 b 548 5 450 -22 500 -13 b 676 83 595 23 637 49 b 764 203 713 118 743 158 b 795 351 785 248 795 297 b 764 499 795 404 785 453 b 676 618 743 544 713 584 b 548 696 638 653 595 679 b 397 723 500 714 450 723 b 248 696 346 723 296 714 b 119 618 199 677 157 651 b 32 499 82 585 53 545 b 0 351 11 453 0 404 b 55 160 0 281 18 217 z m 397 174 b 271 227 349 174 307 192 b 216 351 235 261 216 303 b 241 439 216 383 224 412 b 309 503 259 466 281 487 b 397 526 336 518 366 526 b 487 503 429 526 459 518 b 554 439 514 487 536 466 b 579 351 571 412 579 383 b 525 227 579 303 561 261 b 397 174 489 192 446 174 z "},"Ő":{"ha":1050,"x_min":0,"x_max":0,"o":"m 273 619 b 372 725 297 663 330 699 b 509 765 414 751 459 765 b 645 725 557 765 602 751 b 744 619 686 699 720 663 b 781 481 768 575 781 529 b 744 342 781 433 768 387 b 644 236 719 298 686 262 b 509 196 603 210 557 196 b 372 236 459 196 414 210 b 273 342 332 262 298 298 b 236 481 248 387 236 433 b 273 619 236 529 248 575 z m 948 734 b 763 918 903 811 841 872 b 509 985 685 962 600 985 b 254 918 417 985 332 962 b 68 734 176 872 114 811 b 0 481 23 656 0 572 b 68 228 0 389 23 304 b 254 45 114 151 176 90 b 509 -22 332 0 417 -22 b 763 45 600 -22 685 0 b 948 228 841 90 903 151 b 1017 481 994 304 1017 389 b 948 734 1017 572 994 656 z m 465 1063 l 315 1063 l 413 1336 l 613 1336 z m 696 1063 l 546 1063 l 644 1336 l 844 1336 z "},"ő":{"ha":829,"x_min":0,"x_max":0,"o":"m 348 785 l 198 785 l 296 1059 l 496 1059 z m 578 785 l 429 785 l 526 1059 l 726 1059 z m 55 160 b 201 26 91 104 140 59 b 397 -22 263 -6 329 -22 b 548 5 450 -22 500 -13 b 676 83 595 23 637 49 b 764 203 713 118 743 158 b 795 351 785 248 795 297 b 764 499 795 404 785 453 b 676 618 743 544 713 584 b 548 696 638 653 595 679 b 397 723 500 714 450 723 b 248 696 346 723 296 714 b 119 618 199 677 157 651 b 32 499 82 585 53 545 b 0 351 11 453 0 404 b 55 160 0 281 18 217 z m 397 174 b 271 227 349 174 307 192 b 216 351 235 261 216 303 b 241 439 216 383 224 412 b 309 503 259 466 281 487 b 397 526 336 518 366 526 b 487 503 429 526 459 518 b 554 439 514 487 536 466 b 579 351 571 412 579 383 b 525 227 579 303 561 261 b 397 174 489 192 446 174 z "},"Œ":{"ha":1381,"x_min":0,"x_max":0,"o":"m 259 619 b 359 725 283 663 317 699 b 495 765 400 751 446 765 b 631 725 543 765 589 751 b 730 619 673 699 706 663 b 767 481 755 575 767 529 b 730 342 767 433 755 387 b 631 236 705 298 672 262 b 495 196 589 210 544 196 b 359 236 446 196 400 210 b 260 342 318 262 285 298 b 222 481 235 387 222 433 b 259 619 222 529 235 575 z m 1348 0 l 1346 203 l 972 203 l 972 389 l 1218 389 l 1163 591 l 972 591 l 972 758 l 1317 758 l 1319 962 l 660 962 b 509 985 612 977 562 985 b 254 918 417 985 332 962 b 68 734 176 872 114 811 b 0 481 23 656 0 572 b 68 228 0 389 23 304 b 254 45 114 151 176 90 b 509 -22 332 0 417 -22 b 660 0 562 -22 612 -15 z "},"œ":{"ha":1385,"x_min":0,"x_max":0,"o":"m 397 174 b 271 226 349 174 307 191 b 216 351 235 261 216 302 b 241 438 216 382 224 412 b 309 502 259 465 281 486 b 397 526 336 517 366 526 b 487 502 429 526 459 517 b 554 438 514 486 536 465 b 579 351 571 412 579 382 b 525 226 579 302 561 261 b 397 174 489 191 447 174 z m 837 458 b 884 500 853 477 869 491 b 970 523 911 515 939 523 b 1055 500 1000 523 1029 515 b 1103 458 1071 491 1086 477 z m 690 97 b 782 28 717 70 747 47 b 970 -20 840 -4 903 -20 b 1114 7 1020 -20 1068 -12 b 1215 68 1149 21 1183 42 l 1099 234 l 1097 233 l 1095 230 l 1093 228 l 1092 226 b 970 175 1057 192 1017 175 b 848 226 923 175 882 192 b 798 324 820 254 804 286 l 1265 324 l 1265 326 l 1349 326 l 1350 337 b 1351 345 1351 338 1351 341 l 1351 350 b 1320 496 1351 402 1341 451 b 1236 614 1300 542 1272 581 b 1114 691 1200 648 1159 674 b 970 718 1068 709 1020 718 b 825 691 920 718 871 709 b 703 614 780 674 739 648 l 692 603 b 676 618 684 609 680 614 b 548 695 638 652 595 678 b 397 722 500 713 450 722 b 248 695 346 722 296 713 b 119 617 199 677 157 650 b 32 499 82 584 53 545 b 0 351 11 452 0 403 b 55 159 0 281 18 217 b 201 26 91 102 140 58 b 397 -22 263 -6 329 -22 b 548 5 450 -22 500 -13 b 676 83 595 23 637 49 z "},"Ŕ":{"ha":771,"x_min":0,"x_max":0,"o":"m 236 758 b 372 731 296 758 341 749 b 416 629 401 713 416 679 b 395 549 416 596 410 570 b 335 503 381 528 361 512 b 236 489 309 494 276 489 z m 236 2 l 236 432 l 239 432 l 461 1 l 737 1 l 498 421 b 610 517 545 439 583 471 b 652 665 638 564 652 614 b 604 837 652 735 636 793 b 469 932 572 881 527 913 b 268 962 410 952 343 962 l 0 962 l 0 2 z m 347 1042 l 197 1042 l 294 1316 l 494 1316 z "},"ŕ":{"ha":402,"x_min":0,"x_max":0,"o":"m 220 785 l 71 785 l 168 1059 l 368 1059 z m 356 513 b 312 526 344 522 329 526 l 300 526 b 217 411 245 524 217 486 l 217 0 l 0 0 l 0 411 b 300 722 0 608 100 712 l 312 722 b 356 718 328 722 342 720 z "},"Ŗ":{"ha":771,"x_min":0,"x_max":0,"o":"m 236 758 b 372 731 296 758 341 749 b 416 629 401 713 416 679 b 395 549 416 596 410 570 b 335 503 381 528 361 512 b 236 489 309 494 276 489 z m 236 2 l 236 432 l 239 432 l 461 1 l 737 1 l 498 421 b 610 517 545 439 583 471 b 652 665 638 564 652 614 b 604 837 652 735 636 793 b 469 932 572 881 527 913 b 268 962 410 952 343 962 l 0 962 l 0 2 z m 454 -98 l 215 -98 l 215 -182 b 250 -258 217 -212 229 -237 b 315 -290 269 -276 290 -287 b 263 -309 301 -298 284 -304 l 264 -376 b 454 -175 397 -356 460 -289 z "},"ŗ":{"ha":390,"x_min":0,"x_max":0,"o":"m 218 -98 l 0 -98 l 0 -182 b 31 -258 2 -211 12 -236 b 92 -290 49 -276 69 -287 b 44 -309 81 -296 65 -302 l 44 -376 b 218 -175 165 -356 224 -289 z m 356 513 b 312 526 344 522 329 526 l 300 526 b 217 411 245 524 217 486 l 217 0 l 0 0 l 0 411 b 300 722 0 608 100 712 l 312 722 b 356 718 328 722 342 720 z "},"Ř":{"ha":771,"x_min":0,"x_max":0,"o":"m 236 758 b 372 731 296 758 341 749 b 416 629 401 713 416 679 b 395 549 416 596 410 570 b 335 503 381 528 361 512 b 236 489 309 494 276 489 z m 236 2 l 236 432 l 239 432 l 461 1 l 737 1 l 498 421 b 610 517 545 439 583 471 b 652 665 638 564 652 614 b 604 837 652 735 636 793 b 469 932 572 881 527 913 b 268 962 410 952 343 962 l 0 962 l 0 2 z m 235 1359 l 328 1255 l 420 1359 l 583 1359 l 318 1042 l 64 1359 z "},"ř":{"ha":553,"x_min":0,"x_max":0,"o":"m 97 1103 l 190 999 l 282 1103 l 446 1103 l 180 786 l -73 1103 z m 356 513 b 312 526 344 522 329 526 l 300 526 b 217 411 245 524 217 486 l 217 0 l 0 0 l 0 411 b 300 722 0 608 100 712 l 312 722 b 356 718 328 722 342 720 z "},"Ś":{"ha":659,"x_min":0,"x_max":0,"o":"m 604 873 b 476 956 567 909 524 937 b 330 985 428 975 379 985 b 178 949 275 985 225 973 b 62 846 130 926 92 892 b 18 688 33 801 18 748 b 69 509 18 608 35 549 b 193 419 104 469 146 439 l 229 404 l 264 390 b 334 361 297 377 320 367 b 401 282 378 341 401 315 b 365 218 401 254 389 233 b 288 196 340 203 315 196 b 127 273 222 196 168 222 l 0 92 b 137 6 39 54 85 25 b 297 -22 189 -13 242 -22 b 532 61 393 -22 471 5 b 625 298 594 116 625 195 b 573 481 625 379 608 440 b 448 572 538 523 496 553 b 309 628 393 593 347 612 b 243 705 265 647 243 673 b 273 761 243 728 253 747 b 336 782 293 775 313 782 b 414 764 366 782 392 776 b 488 708 436 753 460 734 z m 376 1042 l 227 1042 l 324 1316 l 524 1316 z "},"ś":{"ha":600,"x_min":0,"x_max":0,"o":"m 0 73 b 90 17 29 51 59 32 b 178 -13 116 3 146 -7 b 285 -22 212 -19 247 -22 b 421 5 331 -22 376 -13 b 526 86 465 22 500 50 b 566 214 553 122 566 164 b 520 359 566 280 551 328 b 408 421 491 389 454 410 b 287 452 362 432 321 442 b 232 504 250 463 232 480 b 306 545 232 532 256 545 b 420 507 347 545 385 532 l 539 625 b 469 675 518 644 495 661 b 386 711 445 689 418 701 b 302 722 357 718 328 722 b 167 697 252 722 208 714 b 68 621 126 680 94 655 b 31 495 43 587 31 545 b 77 351 31 431 46 382 b 190 286 106 319 144 298 b 262 267 215 279 239 273 b 311 255 279 263 295 259 b 364 211 347 246 364 232 b 267 155 364 174 332 155 b 110 219 205 155 153 176 z m 366 785 l 216 785 l 313 1059 l 513 1059 z "},"Ŝ":{"ha":659,"x_min":0,"x_max":0,"o":"m 604 873 b 476 956 567 909 524 937 b 330 985 428 975 379 985 b 178 949 275 985 225 973 b 62 846 130 926 92 892 b 18 688 33 801 18 748 b 69 509 18 608 35 549 b 193 419 104 469 146 439 l 229 404 l 264 390 b 334 361 297 377 320 367 b 401 282 378 341 401 315 b 365 218 401 254 389 233 b 288 196 340 203 315 196 b 127 273 222 196 168 222 l 0 92 b 137 6 39 54 85 25 b 297 -22 189 -13 242 -22 b 532 61 393 -22 471 5 b 625 298 594 116 625 195 b 573 481 625 379 608 440 b 448 572 538 523 496 553 b 309 628 393 593 347 612 b 243 705 265 647 243 673 b 273 761 243 728 253 747 b 336 782 293 775 313 782 b 414 764 366 782 392 776 b 488 708 436 753 460 734 z m 424 1042 l 332 1146 l 239 1042 l 75 1042 l 340 1359 l 595 1042 z "},"ŝ":{"ha":602,"x_min":0,"x_max":0,"o":"m 0 73 b 90 17 29 51 59 32 b 178 -13 116 3 146 -7 b 285 -22 212 -19 247 -22 b 421 5 331 -22 376 -13 b 526 86 465 22 500 50 b 566 214 553 122 566 164 b 520 359 566 280 551 328 b 408 421 491 389 454 410 b 287 452 362 432 321 442 b 232 504 250 463 232 480 b 306 545 232 532 256 545 b 420 507 347 545 385 532 l 539 625 b 469 675 518 644 495 661 b 386 711 445 689 418 701 b 302 722 357 718 328 722 b 167 697 252 722 208 714 b 68 621 126 680 94 655 b 31 495 43 587 31 545 b 77 351 31 431 46 382 b 190 286 106 319 144 298 b 262 267 215 279 239 273 b 311 255 279 263 295 259 b 364 211 347 246 364 232 b 267 155 364 174 332 155 b 110 219 205 155 153 176 z m 397 841 l 304 945 l 212 841 l 48 841 l 313 1158 l 568 841 z "},"Ş":{"ha":659,"x_min":0,"x_max":0,"o":"m 271 -94 b 342 -110 305 -95 329 -100 b 361 -140 355 -119 361 -129 b 342 -171 361 -152 355 -162 b 288 -186 328 -181 310 -186 b 220 -161 264 -186 241 -178 l 172 -224 b 288 -255 210 -245 248 -255 b 404 -222 333 -255 372 -244 b 454 -140 437 -200 454 -172 b 430 -80 454 -119 446 -98 b 382 -45 415 -63 399 -52 l 406 -8 b 532 61 454 5 496 28 b 625 298 594 116 625 195 b 573 481 625 379 608 440 b 448 572 538 523 496 553 b 309 628 393 593 347 612 b 243 705 265 647 243 673 b 273 761 243 728 253 747 b 336 782 293 775 313 782 b 414 764 366 782 392 776 b 488 708 436 753 460 734 l 604 873 b 476 956 567 909 524 937 b 330 985 428 975 379 985 b 178 949 275 985 225 973 b 62 846 130 926 92 892 b 18 688 33 801 18 748 b 69 509 18 608 35 549 b 193 419 104 469 146 439 l 229 404 l 264 390 b 334 361 297 377 320 367 b 401 282 378 341 401 315 b 365 218 401 254 389 233 b 288 196 340 203 315 196 b 127 273 222 196 168 222 l 0 92 b 137 6 39 54 85 25 b 297 -22 189 -13 242 -22 l 306 -22 z "},"ş":{"ha":600,"x_min":0,"x_max":0,"o":"m 241 -98 b 313 -113 275 -99 298 -104 b 332 -143 326 -122 332 -132 b 312 -173 332 -154 325 -164 b 258 -187 298 -182 280 -187 b 191 -163 234 -187 212 -179 l 142 -224 b 258 -255 180 -245 218 -255 b 374 -223 303 -255 342 -244 b 424 -143 407 -201 424 -174 b 400 -84 424 -122 416 -102 b 353 -50 386 -68 370 -56 l 375 -16 b 421 0 390 -12 406 -7 b 526 81 465 18 500 45 b 566 210 553 117 566 160 b 520 356 566 277 551 326 b 408 419 490 387 453 408 b 287 450 362 430 321 440 b 232 503 250 460 232 478 b 306 544 232 530 256 544 b 420 505 347 544 385 531 l 539 625 b 469 675 519 643 496 660 b 386 710 444 690 416 701 b 302 722 357 718 330 722 b 167 697 252 722 208 714 b 68 621 127 681 94 655 b 31 493 43 586 31 544 b 77 348 31 428 46 380 b 190 283 107 316 144 294 b 262 264 215 276 239 270 b 311 252 279 260 295 256 b 364 207 347 242 364 227 b 267 150 364 169 332 150 b 110 215 205 150 153 172 l 0 68 b 90 12 31 45 61 26 b 178 -18 116 -2 146 -12 b 276 -28 202 -24 235 -27 z "},"Š":{"ha":659,"x_min":0,"x_max":0,"o":"m 604 873 b 476 956 567 909 524 937 b 330 985 428 975 379 985 b 178 949 275 985 225 973 b 62 846 130 926 92 892 b 18 688 33 801 18 748 b 69 509 18 608 35 549 b 193 419 104 469 146 439 l 229 404 l 264 390 b 334 361 297 377 320 367 b 401 282 378 341 401 315 b 365 218 401 254 389 233 b 288 196 340 203 315 196 b 127 273 222 196 168 222 l 0 92 b 137 6 39 54 85 25 b 297 -22 189 -13 242 -22 b 532 61 393 -22 471 5 b 625 298 594 116 625 195 b 573 481 625 379 608 440 b 448 572 538 523 496 553 b 309 628 393 593 347 612 b 243 705 265 647 243 673 b 273 761 243 728 253 747 b 336 782 293 775 313 782 b 414 764 366 782 392 776 b 488 708 436 753 460 734 z m 252 1359 l 345 1255 l 437 1359 l 601 1359 l 336 1042 l 81 1359 z "},"š":{"ha":602,"x_min":0,"x_max":0,"o":"m 0 73 b 90 17 29 51 59 32 b 178 -13 116 3 146 -7 b 285 -22 212 -19 247 -22 b 421 5 331 -22 376 -13 b 526 86 465 22 500 50 b 566 214 553 122 566 164 b 520 359 566 280 551 328 b 408 421 491 389 454 410 b 287 452 362 432 321 442 b 232 504 250 463 232 480 b 306 545 232 532 256 545 b 420 507 347 545 385 532 l 539 625 b 469 675 518 644 495 661 b 386 711 445 689 418 701 b 302 722 357 718 328 722 b 167 697 252 722 208 714 b 68 621 126 680 94 655 b 31 495 43 587 31 545 b 77 351 31 431 46 382 b 190 286 106 319 144 298 b 262 267 215 279 239 273 b 311 255 279 263 295 259 b 364 211 347 246 364 232 b 267 155 364 174 332 155 b 110 219 205 155 153 176 z m 220 1103 l 312 999 l 404 1103 l 568 1103 l 303 786 l 49 1103 z "},"Ţ":{"ha":743,"x_min":0,"x_max":0,"o":"m 272 -94 b 343 -110 306 -95 330 -100 b 362 -140 356 -119 362 -129 b 342 -171 362 -152 355 -162 b 288 -186 328 -181 311 -186 b 221 -161 264 -186 242 -178 l 173 -224 b 288 -255 210 -245 248 -255 b 404 -222 334 -255 372 -244 b 454 -140 437 -200 454 -172 b 431 -80 454 -119 446 -98 b 383 -45 416 -63 400 -52 l 412 0 l 480 0 l 480 743 l 709 743 l 652 962 l 0 962 l 59 743 l 244 743 l 244 0 l 317 0 z "},"Ť":{"ha":743,"x_min":0,"x_max":0,"o":"m 244 0 l 480 0 l 480 743 l 709 743 l 652 962 l 0 962 l 59 743 l 244 743 z m 285 1359 l 378 1255 l 470 1359 l 633 1359 l 368 1042 l 115 1359 z "},"ť":{"ha":824,"x_min":0,"x_max":0,"o":"m 806 841 l 567 841 l 567 756 b 602 681 569 727 581 702 b 667 648 621 663 642 652 b 615 629 653 641 636 635 l 616 562 b 806 764 749 583 812 650 z m 169 276 b 202 117 169 211 180 158 b 300 22 224 75 257 43 b 462 -9 342 1 396 -9 b 495 -6 473 -9 485 -8 l 557 210 b 500 201 545 203 526 201 b 385 293 424 201 385 231 l 385 509 l 481 509 l 529 695 l 385 695 l 385 961 l 169 962 l 169 695 l 75 695 l 26 509 l 169 509 z "},"Ŧ":{"ha":743,"x_min":0,"x_max":0,"o":"m 127 576 l 127 386 l 244 386 l 244 0 l 480 0 l 480 386 l 582 386 l 582 576 l 480 576 l 480 743 l 709 743 l 652 962 l 0 962 l 59 743 l 244 743 l 244 576 z "},"ŧ":{"ha":541,"x_min":0,"x_max":0,"o":"m 0 446 l 0 262 l 119 262 b 152 103 119 197 130 144 b 250 9 174 61 207 30 b 412 -22 292 -12 346 -22 b 445 -20 423 -22 435 -22 l 507 196 b 450 187 495 190 476 187 b 336 262 380 187 342 212 l 454 262 l 454 446 l 335 446 l 335 511 l 458 511 l 458 694 l 335 693 l 335 961 l 119 962 l 119 693 l 6 693 l 4 510 l 119 511 l 119 446 z "},"Ũ":{"ha":825,"x_min":0,"x_max":0,"o":"m 555 962 l 555 436 b 522 258 555 359 544 299 b 384 196 500 216 454 196 b 296 221 346 196 317 204 b 250 288 274 237 258 259 b 237 385 241 314 237 346 l 237 962 l 0 962 l 0 317 b 47 127 0 241 16 178 b 180 14 79 76 123 39 b 378 -22 236 -10 302 -22 b 592 20 458 -22 530 -8 b 738 144 654 48 703 90 b 791 334 773 197 791 261 l 791 962 z m 601 1266 b 538 1200 590 1222 569 1200 b 433 1232 524 1200 488 1211 b 307 1248 378 1242 336 1248 b 177 1188 254 1248 212 1228 b 117 1042 142 1148 122 1099 l 229 1042 b 253 1093 231 1062 239 1078 b 297 1114 266 1107 280 1114 b 400 1083 318 1114 353 1103 b 515 1053 453 1063 491 1053 b 652 1109 576 1053 623 1072 b 713 1266 682 1145 703 1198 z "},"ũ":{"ha":667,"x_min":0,"x_max":0,"o":"m 522 1010 b 459 943 511 966 490 943 b 353 976 444 943 409 954 b 227 991 298 986 256 991 b 98 932 175 991 132 972 b 38 786 63 892 43 843 l 149 786 b 174 836 152 806 160 822 b 218 857 186 850 201 857 b 321 827 239 857 273 847 b 435 797 374 807 412 797 b 573 852 497 797 543 815 b 633 1010 603 889 623 941 z m 217 290 b 300 176 217 216 245 178 l 312 176 b 395 290 367 178 395 216 l 395 694 l 612 694 l 612 290 b 312 -21 612 94 512 -10 l 300 -21 b 0 290 100 -10 0 94 l 0 694 l 217 694 z "},"Ū":{"ha":825,"x_min":0,"x_max":0,"o":"m 555 962 l 555 436 b 522 258 555 359 544 299 b 384 196 500 216 454 196 b 296 221 346 196 317 204 b 250 288 274 237 258 259 b 237 385 241 314 237 346 l 237 962 l 0 962 l 0 317 b 47 127 0 241 16 178 b 180 14 79 76 123 39 b 378 -22 236 -10 302 -22 b 592 20 458 -22 530 -8 b 738 144 654 48 703 90 b 791 334 773 197 791 261 l 791 962 z m 121 1213 l 121 1042 l 703 1042 l 703 1213 z "},"ū":{"ha":646,"x_min":0,"x_max":0,"o":"m 15 956 l 15 785 l 597 785 l 597 956 z m 217 290 b 300 176 217 216 245 178 l 312 176 b 395 290 367 178 395 216 l 395 694 l 612 694 l 612 290 b 312 -21 612 94 512 -10 l 300 -21 b 0 290 100 -10 0 94 l 0 694 l 217 694 z "},"Ŭ":{"ha":825,"x_min":0,"x_max":0,"o":"m 555 962 l 555 436 b 522 258 555 359 544 299 b 384 196 500 216 454 196 b 296 221 346 196 317 204 b 250 288 274 237 258 259 b 237 385 241 314 237 346 l 237 962 l 0 962 l 0 317 b 47 127 0 241 16 178 b 180 14 79 76 123 39 b 378 -22 236 -10 302 -22 b 592 20 458 -22 530 -8 b 738 144 654 48 703 90 b 791 334 773 197 791 261 l 791 962 z m 659 1277 b 580 1103 652 1202 625 1143 b 393 1042 534 1063 472 1042 b 258 1072 343 1042 298 1053 b 165 1156 219 1092 189 1120 b 132 1277 143 1192 132 1232 l 294 1277 b 328 1218 299 1252 310 1232 b 397 1196 346 1204 369 1196 b 465 1218 425 1196 448 1204 b 497 1277 481 1232 492 1252 z "},"ŭ":{"ha":646,"x_min":0,"x_max":0,"o":"m 570 1020 b 490 846 562 945 536 886 b 303 785 445 806 382 785 b 168 815 254 785 209 795 b 76 899 130 835 99 863 b 42 1020 54 935 43 975 l 205 1020 b 238 961 210 995 220 975 b 307 939 256 947 279 939 b 375 961 335 939 358 947 b 408 1020 392 975 403 995 z m 217 290 b 300 176 217 216 245 178 l 312 176 b 395 290 367 178 395 216 l 395 694 l 612 694 l 612 290 b 312 -21 612 94 512 -10 l 300 -21 b 0 290 100 -10 0 94 l 0 694 l 217 694 z "},"Ů":{"ha":825,"x_min":0,"x_max":0,"o":"m 555 962 l 555 436 b 522 258 555 359 544 299 b 384 196 500 216 454 196 b 296 221 346 196 317 204 b 250 288 274 237 258 259 b 237 385 241 314 237 346 l 237 962 l 0 962 l 0 317 b 47 127 0 241 16 178 b 180 14 79 76 123 39 b 378 -22 236 -10 302 -22 b 592 20 458 -22 530 -8 b 738 144 654 48 703 90 b 791 334 773 197 791 261 l 791 962 z m 506 1088 b 551 1198 536 1118 551 1155 b 506 1308 551 1241 536 1278 b 395 1354 475 1339 439 1354 b 286 1308 353 1354 316 1339 b 239 1198 255 1278 239 1240 b 286 1088 239 1155 255 1118 b 395 1042 316 1057 353 1042 b 506 1088 439 1042 475 1057 z m 355 1199 b 367 1227 355 1211 359 1220 b 395 1239 374 1235 384 1239 b 423 1227 405 1239 414 1235 b 435 1199 431 1220 435 1211 b 423 1171 435 1188 431 1179 b 395 1160 414 1164 405 1160 b 367 1171 384 1160 374 1164 b 355 1199 359 1179 355 1188 z "},"ů":{"ha":646,"x_min":0,"x_max":0,"o":"m 416 829 b 462 939 447 860 462 897 b 416 1050 462 983 447 1019 b 306 1095 386 1080 349 1095 b 196 1050 263 1095 227 1080 b 150 939 165 1019 150 982 b 196 829 150 897 165 860 b 306 784 227 799 263 784 b 416 829 349 784 386 799 z m 266 939 b 278 968 266 951 270 960 b 306 979 286 975 295 979 b 334 968 316 979 326 975 b 346 939 342 960 346 951 b 334 911 346 928 342 919 b 306 900 326 904 316 900 b 278 911 295 900 286 904 b 266 939 270 919 266 928 z m 217 290 b 300 176 217 216 245 178 l 312 176 b 395 290 367 178 395 216 l 395 694 l 612 694 l 612 290 b 312 -21 612 94 512 -10 l 300 -21 b 0 290 100 -10 0 94 l 0 694 l 217 694 z "},"Ű":{"ha":825,"x_min":0,"x_max":0,"o":"m 555 962 l 555 436 b 522 258 555 359 544 299 b 384 196 500 216 454 196 b 296 221 346 196 317 204 b 250 288 274 237 258 259 b 237 385 241 314 237 346 l 237 962 l 0 962 l 0 317 b 47 127 0 241 16 178 b 180 14 79 76 123 39 b 378 -22 236 -10 302 -22 b 592 20 458 -22 530 -8 b 738 144 654 48 703 90 b 791 334 773 197 791 261 l 791 962 z m 363 1042 l 214 1042 l 311 1316 l 511 1316 z m 594 1042 l 444 1042 l 542 1316 l 742 1316 z "},"ű":{"ha":680,"x_min":0,"x_max":0,"o":"m 267 785 l 117 785 l 215 1059 l 415 1059 z m 498 785 l 348 785 l 446 1059 l 646 1059 z m 217 290 b 300 176 217 216 245 178 l 312 176 b 395 290 367 178 395 216 l 395 694 l 612 694 l 612 290 b 312 -21 612 94 512 -10 l 300 -21 b 0 290 100 -10 0 94 l 0 694 l 217 694 z "},"Ų":{"ha":825,"x_min":0,"x_max":0,"o":"m 47 127 b 180 14 79 76 123 39 b 247 -8 201 5 223 -2 b 159 -128 205 -44 176 -84 b 193 -337 132 -205 142 -275 b 404 -441 241 -396 312 -431 b 663 -393 480 -450 566 -433 l 610 -201 b 450 -254 543 -241 489 -259 b 381 -222 418 -251 395 -241 b 373 -172 369 -208 366 -191 b 413 -102 383 -144 397 -121 b 464 -52 431 -83 448 -66 b 592 20 480 -38 523 -14 b 738 144 654 48 703 90 b 791 334 773 197 791 261 l 791 962 l 555 962 l 555 436 b 522 258 555 359 544 299 b 384 196 500 216 454 196 b 296 221 346 196 317 204 b 250 288 274 237 258 259 b 237 385 241 314 237 346 l 237 962 l 0 962 l 0 317 b 47 127 0 241 16 178 z "},"ų":{"ha":646,"x_min":0,"x_max":0,"o":"m 92 -290 b 56 -111 43 -235 31 -175 b 143 -3 72 -70 101 -34 l 146 -1 l 149 1 b 157 7 152 3 155 5 b 0 288 52 52 0 145 l 0 692 l 217 692 l 217 288 b 300 172 217 213 245 174 l 312 172 b 395 288 367 174 395 213 l 395 692 l 612 692 l 612 288 b 461 3 595 128 545 33 b 294 -92 378 -28 323 -59 b 258 -151 279 -107 267 -127 b 267 -195 252 -166 255 -180 b 332 -223 280 -210 302 -220 b 481 -180 369 -227 418 -213 l 535 -345 b 292 -382 445 -378 363 -391 b 92 -290 205 -372 139 -342 z "},"Ŵ":{"ha":1279,"x_min":0,"x_max":0,"o":"m 715 1042 l 623 1146 l 530 1042 l 366 1042 l 631 1359 l 886 1042 z m 0 962 l 332 -21 l 616 454 l 883 -21 l 1245 962 l 994 962 l 850 492 l 614 960 l 374 500 l 237 962 z "},"ŵ":{"ha":1043,"x_min":0,"x_max":0,"o":"m 603 786 l 511 890 l 418 786 l 254 786 l 519 1103 l 774 786 z m 614 694 l 614 293 b 703 181 614 218 644 181 b 792 293 762 181 792 218 l 792 694 l 1009 694 l 1009 293 b 709 -18 1009 96 909 -8 l 697 -18 b 505 39 616 -14 553 5 b 312 -18 456 5 393 -14 l 300 -18 b 0 293 100 -8 0 96 l 0 694 l 217 694 l 217 293 b 306 181 217 218 247 181 b 395 293 365 181 395 218 l 395 694 z "},"Ŷ":{"ha":882,"x_min":0,"x_max":0,"o":"m 552 446 l 552 0 l 302 0 l 302 444 l 0 962 l 276 962 l 425 678 l 574 962 l 848 962 z m 519 1042 l 427 1146 l 335 1042 l 171 1042 l 436 1359 l 690 1042 z "},"ŷ":{"ha":704,"x_min":0,"x_max":0,"o":"m 454 -1 b 340 -31 433 -20 395 -31 b 20 275 127 -44 20 58 l 20 694 l 237 694 l 237 290 b 265 197 237 249 246 218 b 345 165 284 176 311 165 b 425 197 378 165 405 176 b 453 290 444 218 453 250 l 453 693 l 670 694 l 670 -82 b 581 -299 670 -166 640 -239 b 469 -366 553 -327 515 -349 b 339 -389 427 -381 383 -389 l 303 -389 b 71 -299 206 -387 129 -357 b 0 -195 33 -260 9 -225 l 196 -80 b 236 -167 198 -115 211 -143 b 325 -202 261 -191 290 -202 b 398 -179 351 -202 376 -195 b 445 -121 419 -165 435 -145 l 446 -119 l 447 -115 l 448 -111 l 450 -106 b 453 -90 451 -103 452 -98 l 453 -89 l 454 -87 l 454 -80 l 454 -80 z m 424 785 l 332 889 l 239 785 l 75 785 l 340 1102 l 595 785 z "},"Ÿ":{"ha":882,"x_min":0,"x_max":0,"o":"m 552 446 l 552 0 l 302 0 l 302 444 l 0 962 l 276 962 l 425 678 l 574 962 l 848 962 z m 504 1105 b 548 1059 514 1086 529 1071 b 608 1042 566 1048 586 1042 b 672 1059 631 1042 652 1048 b 718 1103 692 1069 707 1084 b 734 1165 728 1122 734 1143 b 698 1252 734 1199 722 1228 b 608 1287 674 1276 644 1287 b 549 1270 587 1287 567 1282 b 505 1225 530 1259 515 1244 b 488 1165 493 1207 488 1187 b 504 1105 488 1144 493 1124 z m 144 1105 b 189 1059 155 1086 170 1071 b 249 1042 207 1048 227 1042 b 313 1059 272 1042 293 1048 b 358 1103 332 1069 347 1084 b 374 1165 369 1122 374 1143 b 338 1252 374 1199 362 1228 b 249 1287 315 1276 285 1287 b 189 1270 227 1287 208 1282 b 145 1225 171 1259 156 1244 b 128 1165 134 1207 128 1187 b 144 1105 128 1144 134 1124 z "},"Ź":{"ha":880,"x_min":0,"x_max":0,"o":"m 0 0 l 807 0 l 806 220 l 389 220 l 846 962 l 62 962 l 131 743 l 460 743 z m 526 1042 l 376 1042 l 474 1316 l 674 1316 z "},"ź":{"ha":702,"x_min":0,"x_max":0,"o":"m 659 724 l 99 724 l 56 542 l 327 542 l 0 0 l 616 0 l 668 196 l 343 196 z m 431 786 l 281 786 l 378 1059 l 578 1059 z "},"Ż":{"ha":880,"x_min":0,"x_max":0,"o":"m 0 0 l 807 0 l 809 220 l 389 220 l 846 962 l 62 962 l 131 743 l 460 743 z m 363 1304 b 318 1260 345 1294 330 1279 b 301 1200 307 1242 301 1222 b 317 1136 301 1177 307 1156 b 362 1090 328 1116 343 1101 b 424 1074 380 1080 401 1074 b 511 1110 458 1074 487 1086 b 546 1200 534 1134 546 1164 b 529 1259 546 1221 541 1241 b 484 1304 517 1278 503 1293 b 424 1320 465 1315 445 1320 b 363 1304 403 1320 382 1315 z "},"ż":{"ha":702,"x_min":0,"x_max":0,"o":"m 659 724 l 99 724 l 56 542 l 327 542 l 0 0 l 616 0 l 668 196 l 343 196 z m 308 1015 b 262 971 289 1005 274 990 b 245 911 251 953 245 933 b 262 847 245 888 251 867 b 307 802 273 827 288 812 b 368 785 325 791 346 785 b 455 821 402 785 431 798 b 490 911 479 845 490 875 b 473 970 490 932 485 952 b 429 1015 462 989 447 1004 b 368 1031 410 1026 389 1031 b 308 1015 347 1031 327 1026 z "},"Ž":{"ha":880,"x_min":0,"x_max":0,"o":"m 0 0 l 807 0 l 806 220 l 389 220 l 846 962 l 62 962 l 131 743 l 460 743 z m 413 1359 l 505 1255 l 597 1359 l 762 1359 l 496 1042 l 242 1359 z "},"ž":{"ha":702,"x_min":0,"x_max":0,"o":"m 659 724 l 99 724 l 56 542 l 327 542 l 0 0 l 616 0 l 668 196 l 343 196 z m 300 1103 l 393 999 l 486 1103 l 649 1103 l 384 786 l 130 1103 z "},"ſ":{"ha":387,"x_min":0,"x_max":0,"o":"m 353 1019 b 165 988 280 1019 218 1009 b 43 889 113 967 73 935 b 0 695 14 844 0 779 l 0 509 l -509 509 l -292 509 l -292 1018 l -106 1018 b -79 1118 -106 1067 -97 1101 b 29 1147 -60 1134 -24 1143 l 30 1342 z "},"‰":{"ha":1360,"x_min":0,"x_max":0,"o":"m 328 621 b 384 756 365 658 384 703 b 328 892 384 810 365 855 b 192 948 290 930 245 948 b 56 892 138 948 94 930 b 0 756 19 855 0 810 b 56 621 0 703 19 658 b 192 564 94 583 139 564 b 328 621 245 564 290 583 z m 115 756 b 138 810 115 777 123 795 b 192 833 153 825 171 833 b 246 810 213 833 231 825 b 269 756 261 795 269 777 b 246 702 269 735 261 717 b 192 680 231 687 213 680 b 138 702 171 680 153 687 b 115 756 123 717 115 735 z m 850 73 b 906 208 887 110 906 155 b 850 345 906 262 887 307 b 714 400 812 382 768 400 b 578 345 661 400 616 382 b 522 208 541 307 522 262 b 578 73 522 155 541 110 b 714 16 616 35 661 16 b 850 73 767 16 812 35 z m 637 208 b 660 262 637 229 645 248 b 714 285 675 277 693 285 b 768 262 735 285 753 277 b 791 208 783 248 791 229 b 768 154 791 187 783 169 b 714 132 753 139 735 132 b 660 154 693 132 675 139 b 637 208 645 169 637 187 z m 1270 73 b 1326 208 1308 110 1326 155 b 1270 345 1326 262 1308 307 b 1135 400 1233 382 1188 400 b 999 345 1081 400 1036 382 b 943 208 962 307 943 262 b 999 73 943 155 962 110 b 1135 16 1036 35 1082 16 b 1270 73 1187 16 1233 35 z m 1058 208 b 1080 262 1058 229 1065 248 b 1135 285 1095 277 1114 285 b 1189 262 1156 285 1174 277 b 1211 208 1204 248 1211 229 b 1189 154 1211 187 1204 169 b 1135 132 1174 139 1156 132 b 1080 154 1114 132 1095 139 b 1058 208 1065 169 1058 187 z m 711 962 l 601 962 l 119 0 l 227 0 z "},"ţ":{"ha":594,"x_min":0,"x_max":0,"o":"m 274 -115 b 345 -131 308 -116 332 -121 b 364 -161 358 -140 364 -150 b 345 -192 364 -173 357 -183 b 290 -207 330 -202 313 -207 b 223 -182 267 -207 244 -199 l 175 -245 b 290 -276 212 -266 250 -276 b 406 -243 336 -276 374 -265 b 456 -161 439 -221 456 -193 b 433 -101 456 -140 448 -119 b 385 -66 418 -84 402 -73 l 423 -7 b 465 -9 446 -8 460 -9 b 498 -6 476 -9 488 -8 l 560 210 b 503 201 548 203 529 201 b 388 293 427 201 388 231 l 388 511 l 511 511 l 555 693 l 388 693 l 388 961 l 172 962 l 172 693 l 56 693 l 0 511 l 172 511 l 172 276 b 205 117 172 211 182 158 b 303 22 227 75 260 43 b 334 9 319 15 330 11 z "},"Ё":{"ha":645,"x_min":0,"x_max":0,"o":"m 610 203 l 611 0 l 0 0 l 0 962 l 583 962 l 581 758 l 236 758 l 236 591 l 427 591 l 481 389 l 236 389 l 236 203 z m 547 1060 b 483 1044 527 1049 506 1044 b 422 1061 460 1044 441 1049 b 378 1106 404 1072 389 1087 b 362 1166 368 1125 362 1145 b 379 1227 362 1189 368 1208 b 423 1272 389 1244 404 1259 b 483 1289 440 1283 460 1289 b 572 1253 519 1289 549 1277 b 608 1166 596 1230 608 1200 b 592 1105 608 1144 603 1123 b 547 1060 581 1086 566 1071 z m 187 1060 b 123 1044 168 1049 146 1044 b 63 1061 100 1044 80 1049 b 19 1106 44 1072 29 1087 b 3 1166 8 1125 3 1145 b 20 1227 3 1189 8 1208 b 64 1272 31 1244 45 1259 b 123 1289 82 1283 102 1289 b 213 1253 159 1289 189 1277 b 249 1166 237 1230 249 1200 b 233 1105 249 1144 243 1123 b 187 1060 222 1086 207 1071 z "},"Ђ":{"ha":1025,"x_min":0,"x_max":0,"o":"m 480 375 b 650 406 535 419 591 429 b 713 357 675 396 696 380 b 723 286 730 336 733 312 b 633 237 711 255 682 239 l 627 237 l 621 236 b 607 235 616 236 611 236 b 573 233 595 235 583 234 l 625 0 b 868 52 706 -18 787 -1 b 986 316 950 105 989 193 b 840 591 983 439 934 530 b 480 602 745 650 625 654 l 480 743 l 709 743 l 652 962 l 0 962 l 59 743 l 244 743 l 244 0 l 480 0 z "},"Ѓ":{"ha":650,"x_min":0,"x_max":0,"o":"m 553 962 l 0 962 l 0 1 l 236 0 l 236 743 l 616 743 z m 359 1042 l 209 1042 l 307 1316 l 507 1316 z "},"Є":{"ha":849,"x_min":0,"x_max":0,"o":"m 237 384 b 255 343 241 372 248 358 b 348 237 278 299 309 264 b 475 197 387 211 429 197 b 602 237 520 197 563 211 b 660 292 621 251 641 269 l 815 132 b 712 46 785 98 751 70 b 475 -21 640 1 561 -21 b 237 46 389 -21 310 1 b 64 229 164 92 106 153 b 0 481 21 305 0 389 b 64 735 0 574 21 659 b 237 918 106 812 165 873 b 475 985 310 963 389 985 b 712 918 561 985 640 963 b 814 834 751 895 785 866 l 659 673 b 602 726 637 697 619 715 b 475 766 562 752 519 766 b 347 726 430 766 387 752 b 254 620 309 699 277 664 b 233 566 245 602 238 583 l 568 566 l 568 384 z "},"Ѕ":{"ha":659,"x_min":0,"x_max":0,"o":"m 604 873 b 476 956 567 909 524 937 b 330 985 428 975 379 985 b 178 949 275 985 225 973 b 62 846 130 926 92 892 b 18 688 33 801 18 748 b 69 509 18 608 35 549 b 193 419 104 469 146 439 l 229 404 l 264 390 b 334 361 297 377 320 367 b 401 282 378 341 401 315 b 365 218 401 254 389 233 b 288 196 340 203 315 196 b 127 273 222 196 168 222 l 0 92 b 137 6 39 54 85 25 b 297 -22 189 -13 242 -22 b 532 61 393 -22 471 5 b 625 298 594 116 625 195 b 573 481 625 379 608 440 b 448 572 538 523 496 553 b 309 628 393 593 347 612 b 243 705 265 647 243 673 b 273 761 243 728 253 747 b 336 782 293 775 313 782 b 414 764 366 782 392 776 b 488 708 436 753 460 734 z "},"І":{"ha":270,"x_min":0,"x_max":0,"o":"m 0 1 l 236 0 l 236 962 l 0 962 z "},"Ї":{"ha":640,"x_min":0,"x_max":0,"o":"m -185 1 l 51 0 l 51 962 l -185 962 z m 6 1105 b 50 1059 16 1086 31 1071 b 111 1042 67 1048 87 1042 b 174 1059 134 1042 155 1048 b 220 1103 193 1069 208 1084 b 236 1165 231 1122 236 1143 b 200 1252 236 1199 224 1228 b 111 1287 176 1276 146 1287 b 51 1270 88 1287 68 1282 b 7 1225 31 1259 17 1244 b -10 1165 -5 1207 -10 1187 b 6 1105 -10 1144 -5 1124 z m -353 1105 b -309 1059 -343 1086 -328 1071 b -249 1042 -292 1048 -272 1042 b -185 1059 -226 1042 -205 1048 b -140 1103 -167 1069 -151 1084 b -123 1165 -129 1122 -123 1143 b -159 1252 -123 1199 -136 1228 b -249 1287 -183 1276 -213 1287 b -309 1270 -271 1287 -292 1282 b -353 1225 -328 1259 -342 1244 b -370 1165 -364 1207 -370 1187 b -353 1105 -370 1144 -364 1124 z "},"Ј":{"ha":456,"x_min":0,"x_max":0,"o":"m 426 264 b 390 104 426 201 414 147 b 283 10 366 63 330 31 b 108 -21 237 -11 178 -21 b 72 -18 94 -21 81 -20 l 4 197 b 66 189 17 191 38 189 b 191 281 149 189 191 219 l 191 962 l 426 964 z "},"Љ":{"ha":1379,"x_min":0,"x_max":0,"o":"m 659 726 l 659 1 l 660 1 l 660 0 l 1061 0 b 1373 300 1259 0 1362 100 l 1373 312 b 1061 612 1362 512 1259 612 l 895 612 l 895 961 l 892 961 l 892 962 l 186 962 l 186 315 b 169 238 186 281 180 255 b 118 204 157 220 140 209 b 27 196 96 199 66 196 l 98 0 b 253 18 161 0 212 6 b 349 73 294 30 326 48 b 399 163 372 96 389 125 b 413 294 408 199 413 243 l 413 726 z m 895 394 l 1040 394 b 1143 312 1107 394 1141 367 l 1142 312 l 1143 309 l 1143 306 b 1142 300 1143 302 1143 300 l 1143 300 b 1040 217 1141 245 1106 217 l 895 217 z "},"Њ":{"ha":1284,"x_min":0,"x_max":0,"o":"m 808 962 l 801 962 l 568 964 l 568 611 l 267 611 l 267 962 l 31 962 l 31 0 l 267 0 l 267 393 l 568 393 l 568 1 l 569 1 l 569 0 l 970 0 b 1282 300 1168 0 1272 100 l 1282 312 b 970 612 1272 512 1168 612 l 808 612 z m 949 394 b 1052 312 1016 394 1050 367 l 1051 312 l 1052 309 l 1052 306 b 1051 300 1052 302 1052 300 l 1052 300 b 949 217 1050 245 1015 217 l 808 217 l 808 394 z "},"Ћ":{"ha":977,"x_min":0,"x_max":0,"o":"m 479 743 l 707 743 l 650 962 l -1 962 l 58 743 l 243 743 l 243 0 l 479 0 l 479 336 b 609 402 517 380 560 402 b 710 256 676 402 710 353 l 710 0 l 942 0 l 942 315 b 868 553 942 416 918 496 b 679 640 819 611 755 640 b 479 567 613 640 546 616 z "},"Ќ":{"ha":792,"x_min":0,"x_max":0,"o":"m 450 1044 l 300 1044 l 398 1317 l 598 1317 z m 247 606 b 316 652 272 610 295 625 b 360 734 336 677 351 705 l 363 745 l 367 757 b 375 781 369 763 372 770 b 398 831 382 800 390 817 b 490 924 420 871 451 901 b 612 960 524 943 564 955 b 671 962 627 962 647 962 l 684 962 b 699 962 689 962 694 962 l 711 961 l 724 961 l 732 960 l 707 756 b 555 636 623 746 572 706 b 447 471 536 566 500 511 l 781 0 l 527 0 l 251 377 l 247 377 l 247 0 l 22 0 l 22 956 l 247 956 z "},"Ў":{"ha":1018,"x_min":0,"x_max":0,"o":"m 1001 962 l 657 281 b 324 -17 553 106 443 7 b 165 -8 255 -31 202 -28 l 141 202 b 393 297 243 176 328 208 l 17 962 l 277 962 l 507 529 l 739 962 z m 773 1278 b 694 1104 766 1202 739 1144 b 507 1043 648 1063 586 1043 b 372 1073 457 1043 412 1053 b 279 1157 332 1093 302 1121 b 245 1278 258 1192 246 1232 l 408 1278 b 441 1219 413 1253 425 1233 b 511 1197 460 1204 483 1197 b 578 1219 538 1197 560 1204 b 611 1278 595 1233 606 1253 z "},"Џ":{"ha":811,"x_min":0,"x_max":0,"o":"m 283 0 l 0 0 l 0 962 l 236 962 l 236 216 l 541 216 l 541 962 l 777 962 l 777 0 l 494 0 l 494 -220 l 283 -220 z "},"А":{"ha":1094,"x_min":0,"x_max":0,"o":"m 625 349 l 530 519 l 435 349 z m 722 171 l 338 171 l 243 0 l 0 0 l 408 741 l 530 962 l 652 741 l 1060 0 l 817 0 z "},"Б":{"ha":747,"x_min":0,"x_max":0,"o":"m 257 394 l 401 394 b 505 312 469 394 503 367 l 504 312 l 505 309 l 505 306 b 504 300 505 302 505 300 l 505 300 b 401 217 503 245 468 217 l 257 217 z m 28 964 l 28 1 l 28 1 l 28 0 l 430 0 b 741 300 627 0 731 100 l 741 312 b 430 612 731 512 627 612 l 264 612 l 264 743 l 658 743 l 595 962 l 260 962 z "},"В":{"ha":736,"x_min":0,"x_max":0,"o":"m 301 774 b 389 752 334 774 364 766 b 426 679 414 737 426 713 b 397 606 426 647 416 623 b 310 579 377 588 349 579 l 248 579 l 248 774 z m 0 0 l 340 0 b 613 74 462 0 553 24 b 703 268 673 123 703 187 b 691 348 703 296 699 322 b 658 415 683 374 672 396 b 607 469 644 435 627 453 b 543 505 587 484 566 496 l 543 509 b 638 587 583 526 614 551 b 673 710 662 622 673 663 b 620 859 673 772 656 821 b 478 939 584 896 536 923 b 283 962 418 954 353 962 l 0 962 z m 310 390 b 417 370 357 390 392 383 b 455 288 442 356 455 329 b 313 189 455 222 408 189 l 248 189 l 248 390 z "},"Г":{"ha":650,"x_min":0,"x_max":0,"o":"m 553 962 l 0 962 l 0 1 l 236 0 l 236 743 l 616 743 z "},"Д":{"ha":1097,"x_min":0,"x_max":0,"o":"m 412 216 b 484 607 448 284 471 414 l 484 737 l 682 737 l 682 216 z m 917 958 l 913 958 l 913 959 l 258 959 l 258 697 b 142 217 243 412 204 252 l 26 217 l 26 -220 l 238 -220 l 238 -3 l 878 -3 l 878 -220 l 1090 -220 l 1090 217 l 917 217 z "},"Е":{"ha":645,"x_min":0,"x_max":0,"o":"m 610 203 l 236 203 l 236 389 l 481 389 l 427 591 l 236 591 l 236 758 l 581 758 l 583 962 l 0 962 l 0 0 l 611 0 z "},"Ж":{"ha":1326,"x_min":0,"x_max":0,"o":"m 781 606 b 850 652 806 610 829 625 b 894 734 870 677 885 705 l 897 745 l 901 757 b 909 781 903 763 905 770 b 932 831 916 800 924 817 b 1024 924 954 871 985 901 b 1145 960 1057 943 1097 955 b 1204 962 1161 962 1181 962 l 1217 962 b 1232 962 1223 962 1227 962 l 1245 961 l 1258 961 l 1266 960 l 1240 756 b 1088 636 1157 746 1106 706 b 981 471 1070 566 1034 511 l 1314 0 l 1061 0 l 785 377 l 781 377 l 781 0 l 556 0 l 556 377 l 552 377 l 276 0 l 22 0 l 356 471 b 249 636 302 511 267 566 b 96 756 231 706 180 746 l 71 960 l 79 961 l 92 961 l 104 962 b 119 962 109 962 114 962 l 132 962 b 191 960 156 962 176 962 b 313 924 239 955 279 943 b 405 831 352 901 382 871 b 428 781 413 817 420 800 b 436 757 431 770 434 763 l 439 745 l 443 734 b 488 652 452 705 467 678 b 556 606 509 625 532 610 l 556 956 l 781 956 z "},"З":{"ha":736,"x_min":0,"x_max":0,"o":"m 169 705 l 171 707 l 174 710 b 183 718 177 713 180 715 l 188 723 b 192 726 190 725 191 726 b 202 735 194 728 197 732 b 239 765 219 749 231 760 b 274 782 250 772 262 778 b 318 789 286 787 301 789 b 404 762 353 789 381 780 b 436 679 425 743 436 716 b 417 616 436 651 430 631 b 367 587 404 602 387 592 b 300 579 347 583 324 580 l 281 578 l 264 578 b 245 578 258 578 252 578 l 231 578 l 231 410 l 241 410 l 252 410 b 270 411 261 410 267 410 l 308 411 b 419 391 353 411 391 404 b 460 311 446 378 460 351 b 422 222 460 271 448 242 b 328 193 397 203 366 193 b 234 218 291 193 260 201 b 157 292 209 233 183 258 l 0 132 b 94 52 25 102 56 75 b 208 -3 130 28 168 9 b 329 -22 247 -16 287 -22 b 467 -5 376 -22 422 -16 b 587 51 511 7 551 26 b 672 147 623 76 651 108 b 703 286 692 186 703 233 b 686 376 703 317 697 347 b 640 455 675 405 659 431 b 568 513 619 478 595 497 b 637 598 600 541 623 569 b 659 703 652 629 659 663 b 617 854 659 759 645 810 b 504 951 589 897 551 929 b 350 985 458 974 407 985 b 152 939 278 985 212 970 b 4 802 92 909 42 863 z "},"И":{"ha":883,"x_min":0,"x_max":0,"o":"m 263 963 l 263 519 l 873 963 l 876 3 l 639 3 l 640 498 l 30 0 l 27 962 z "},"Й":{"ha":883,"x_min":0,"x_max":0,"o":"m 263 963 l 263 519 l 873 963 l 876 3 l 639 3 l 640 498 l 30 0 l 27 962 z m 715 1278 b 636 1104 708 1202 682 1144 b 449 1043 591 1063 528 1043 b 314 1073 399 1043 355 1053 b 222 1157 275 1093 244 1121 b 188 1278 200 1192 189 1232 l 351 1278 b 384 1219 355 1253 367 1233 b 453 1197 402 1204 425 1197 b 521 1219 480 1197 503 1204 b 553 1278 538 1233 549 1253 z "},"К":{"ha":792,"x_min":0,"x_max":0,"o":"m 247 606 b 316 652 272 610 295 625 b 360 734 336 677 351 705 l 363 745 l 367 757 b 375 781 369 763 372 770 b 398 831 382 800 390 817 b 490 924 420 871 451 901 b 612 960 524 943 564 955 b 671 962 627 962 647 962 l 684 962 b 699 962 689 962 694 962 l 711 961 l 724 961 l 732 960 l 707 756 b 555 636 623 746 572 706 b 447 471 536 566 500 511 l 781 0 l 527 0 l 251 377 l 247 377 l 247 0 l 22 0 l 22 956 l 247 956 z "},"Л":{"ha":902,"x_min":0,"x_max":0,"o":"m 659 726 l 659 1 l 660 1 l 660 0 l 895 1 l 895 961 l 892 961 l 892 962 l 186 962 l 186 315 b 169 238 186 281 180 255 b 118 204 157 220 140 209 b 27 196 96 199 66 196 l 98 0 b 253 18 161 0 212 6 b 349 73 294 30 326 48 b 399 163 372 96 389 125 b 413 294 408 199 413 243 l 413 726 z "},"М":{"ha":932,"x_min":0,"x_max":0,"o":"m 899 962 l 441 586 l 2 962 l 2 0 l 253 0 l 254 454 l 441 269 l 643 462 l 644 1 l 899 0 z "},"Н":{"ha":811,"x_min":0,"x_max":0,"o":"m 236 0 l 0 0 l 0 962 l 236 962 l 236 611 l 541 611 l 541 962 l 777 962 l 777 0 l 541 0 l 541 393 l 236 393 z "},"О":{"ha":1050,"x_min":0,"x_max":0,"o":"m 273 619 b 372 725 297 663 330 699 b 509 765 414 751 459 765 b 645 725 557 765 602 751 b 744 619 686 699 720 663 b 781 481 768 575 781 529 b 744 342 781 433 768 387 b 644 236 719 298 686 262 b 509 196 603 210 557 196 b 372 236 459 196 414 210 b 273 342 332 262 298 298 b 236 481 248 387 236 433 b 273 619 236 529 248 575 z m 948 734 b 763 918 903 811 841 872 b 509 985 685 962 600 985 b 254 918 417 985 332 962 b 68 734 176 872 114 811 b 0 481 23 656 0 572 b 68 228 0 389 23 304 b 254 45 114 151 176 90 b 509 -22 332 0 417 -22 b 763 45 600 -22 685 0 b 948 228 841 90 903 151 b 1017 481 994 304 1017 389 b 948 734 1017 572 994 656 z "},"П":{"ha":811,"x_min":0,"x_max":0,"o":"m 236 0 l 0 0 l 0 962 l 777 962 l 777 0 l 541 0 l 541 746 l 236 746 z "},"Р":{"ha":709,"x_min":0,"x_max":0,"o":"m 237 0 l 237 347 l 319 347 b 458 369 366 347 413 355 b 573 431 503 383 541 404 b 648 527 605 457 630 489 b 675 654 667 564 675 606 b 648 802 675 713 667 762 b 571 897 630 842 604 873 b 452 947 539 920 499 937 b 288 962 408 958 353 962 l 0 962 l 0 0 z m 304 758 b 405 732 348 758 381 749 b 439 656 428 714 439 689 b 405 578 439 622 428 596 b 304 551 381 560 348 551 l 237 551 l 237 758 z "},"С":{"ha":849,"x_min":0,"x_max":0,"o":"m 815 132 b 712 46 785 98 751 70 b 475 -21 640 1 561 -21 b 237 46 389 -21 310 1 b 64 229 164 92 106 153 b 0 481 21 305 0 389 b 64 735 0 574 21 659 b 237 918 106 812 165 873 b 475 985 310 963 389 985 b 712 918 561 985 640 963 b 814 834 751 895 785 866 l 659 673 b 602 726 637 697 619 715 b 475 766 562 752 519 766 b 347 726 430 766 387 752 b 254 620 309 699 277 664 b 220 481 232 576 220 530 b 255 343 220 433 232 387 b 348 237 278 299 309 264 b 475 197 387 211 429 197 b 602 237 520 197 563 211 b 660 292 621 251 641 269 z "},"Т":{"ha":743,"x_min":0,"x_max":0,"o":"m 244 0 l 480 0 l 480 743 l 709 743 l 652 962 l 0 962 l 59 743 l 244 743 z "},"У":{"ha":1018,"x_min":0,"x_max":0,"o":"m 1001 962 l 657 281 b 324 -17 553 106 443 7 b 165 -8 255 -31 202 -28 l 141 202 b 393 297 243 176 328 208 l 17 962 l 277 962 l 507 529 l 739 962 z "},"Ф":{"ha":1041,"x_min":0,"x_max":0,"o":"m 388 1 l 624 0 l 624 136 b 681 145 637 138 656 140 b 842 200 737 155 791 174 b 964 309 892 227 933 262 b 1010 479 994 356 1010 412 b 933 694 1010 568 984 640 b 742 803 881 746 817 783 b 624 826 701 814 661 821 l 624 962 l 388 962 l 388 827 b 359 823 379 826 370 825 l 330 818 b 169 763 272 807 218 789 b 49 653 119 736 79 700 b 3 479 18 605 3 547 b 48 309 3 411 18 355 b 170 200 78 262 119 227 b 331 145 221 174 275 155 l 359 140 l 388 136 z m 624 664 b 757 477 713 637 757 576 b 725 362 757 429 746 390 b 637 302 704 334 675 313 l 631 300 l 624 298 z m 388 298 l 374 302 b 286 362 338 313 309 333 b 255 477 265 390 255 428 b 388 664 255 576 299 637 z "},"Х":{"ha":960,"x_min":0,"x_max":0,"o":"m 244 -1 l 458 309 l 663 -1 l 924 -1 l 598 501 l 926 962 l 655 960 l 464 677 l 269 960 l 9 961 l 322 498 l 0 -1 z "},"Ц":{"ha":922,"x_min":0,"x_max":0,"o":"m 676 0 l 0 0 l 0 962 l 236 962 l 236 216 l 541 216 l 541 962 l 777 962 l 777 101 l 888 101 l 888 -220 l 676 -220 z "},"Ч":{"ha":719,"x_min":0,"x_max":0,"o":"m 457 376 b 337 347 435 357 395 347 b -1 654 112 333 -1 435 l -1 962 l 228 962 l 228 669 b 258 574 228 627 238 595 b 342 543 277 553 305 543 b 426 575 377 543 405 554 b 456 669 446 596 456 627 l 456 961 l 684 962 l 684 0 l 456 -1 z "},"Ш":{"ha":1082,"x_min":0,"x_max":0,"o":"m 2 0 l 2 962 l 238 962 l 238 216 l 408 216 l 408 962 l 645 962 l 645 216 l 814 216 l 814 962 l 1050 962 l 1050 0 z "},"Щ":{"ha":1199,"x_min":0,"x_max":0,"o":"m 956 0 l 2 0 l 2 962 l 238 962 l 238 216 l 408 216 l 408 962 l 645 962 l 645 216 l 814 216 l 814 962 l 1050 962 l 1050 101 l 1167 101 l 1167 -220 l 956 -220 z "},"Ъ":{"ha":991,"x_min":0,"x_max":0,"o":"m 25 962 l 84 743 l 269 743 l 269 1 l 269 1 l 269 0 l 671 0 b 982 300 868 0 972 100 l 982 312 b 671 612 972 512 868 612 l 505 612 l 505 743 l 506 962 l 501 962 l 269 964 l 269 962 z m 501 394 l 650 394 b 754 306 720 394 754 365 b 650 217 754 247 720 217 l 501 217 z "},"Ы":{"ha":1042,"x_min":0,"x_max":0,"o":"m 28 964 l 260 962 l 260 961 l 264 961 l 264 612 l 430 612 b 741 312 627 612 731 512 l 741 300 b 430 0 731 100 627 0 l 28 0 l 28 1 l 28 1 z m 264 217 l 413 217 b 517 306 482 217 517 247 b 413 394 517 365 482 394 l 264 394 z m 800 1 l 1036 0 l 1036 962 l 800 962 z "},"Ь":{"ha":747,"x_min":0,"x_max":0,"o":"m 28 964 l 260 962 l 260 961 l 264 961 l 264 612 l 430 612 b 741 312 627 612 731 512 l 741 300 b 430 0 731 100 627 0 l 28 0 l 28 1 l 28 1 z m 264 217 l 413 217 b 517 306 482 217 517 247 b 413 394 517 365 482 394 l 264 394 z "},"Э":{"ha":849,"x_min":0,"x_max":0,"o":"m 248 384 l 248 566 l 583 566 b 561 620 577 583 570 602 b 468 726 538 664 507 699 b 340 766 428 752 385 766 b 213 726 296 766 253 752 b 157 673 196 715 178 697 l 1 834 b 103 918 31 866 64 895 b 340 985 176 963 255 985 b 578 918 427 985 505 963 b 751 735 650 873 709 812 b 815 481 794 659 815 574 b 751 229 815 389 794 305 b 578 46 709 153 651 92 b 340 -21 505 1 427 -21 b 103 46 255 -21 176 1 b 0 132 64 70 31 98 l 155 292 b 214 237 174 269 194 251 b 340 197 252 211 295 197 b 467 237 386 197 429 211 b 560 343 506 264 537 299 b 578 384 568 358 574 372 z "},"Ю":{"ha":1379,"x_min":0,"x_max":0,"o":"m 602 619 b 701 725 626 663 659 699 b 838 765 743 751 788 765 b 974 725 886 765 931 751 b 1073 619 1015 699 1048 663 b 1109 481 1097 575 1109 529 b 1073 342 1109 433 1097 387 b 973 236 1048 298 1015 262 b 838 196 932 210 886 196 b 701 236 788 196 743 210 b 602 342 661 262 627 298 b 565 481 577 387 565 433 b 602 619 565 529 577 575 z m 236 590 l 236 962 l 0 962 l 0 1 l 236 0 l 236 391 l 336 391 b 397 228 347 333 367 279 b 583 45 443 151 505 90 b 838 -22 661 0 746 -22 b 1092 45 929 -22 1014 0 b 1277 228 1170 90 1232 151 b 1345 481 1322 304 1345 389 b 1277 734 1345 572 1322 656 b 1092 918 1232 811 1170 872 b 838 985 1014 962 929 985 b 583 918 746 985 661 962 b 397 734 505 872 443 811 b 340 590 371 689 352 641 z "},"Я":{"ha":771,"x_min":0,"x_max":0,"o":"m 501 489 b 402 503 462 489 429 494 b 342 549 376 512 356 528 b 321 629 328 570 321 596 b 366 731 321 679 336 713 b 501 758 396 749 441 758 z m 737 2 l 737 962 l 469 962 b 268 932 394 962 327 952 b 133 837 210 913 165 881 b 85 665 101 793 85 735 b 127 517 85 614 99 564 b 239 421 155 471 192 439 l 0 1 l 276 1 l 498 432 l 501 432 l 501 2 z "},"а":{"ha":829,"x_min":0,"x_max":0,"o":"m 397 526 b 309 503 366 526 336 518 b 241 439 281 487 259 466 b 216 351 224 412 216 383 b 271 227 216 303 235 262 b 397 176 307 193 349 176 b 525 227 447 176 489 193 b 579 351 561 262 579 303 b 554 439 579 383 571 412 b 487 503 536 466 514 487 b 397 526 459 518 429 526 z m 580 20 b 548 7 563 13 552 9 b 397 -20 499 -11 449 -20 b 201 28 329 -20 263 -4 b 55 161 140 60 91 104 b 0 351 18 218 0 281 b 32 499 0 404 11 453 b 119 617 53 545 82 584 b 247 694 157 650 199 676 b 397 722 296 712 346 722 b 548 694 450 722 500 713 b 675 617 597 676 640 650 b 764 499 713 583 743 543 b 795 351 785 453 795 404 l 795 -2 l 580 0 z "},"б":{"ha":783,"x_min":0,"x_max":0,"o":"m 351 176 b 418 176 372 170 395 170 b 494 237 452 186 477 206 b 504 336 511 269 514 302 b 471 396 498 359 487 378 b 414 432 455 413 436 425 b 347 432 391 438 370 438 b 269 370 311 422 286 401 b 258 268 252 338 248 304 b 292 210 264 245 275 226 b 351 176 308 194 328 182 z m 727 962 b 696 871 724 932 713 902 b 564 755 668 825 624 786 b 498 728 541 744 519 734 b 472 720 488 724 479 722 l 463 717 l 454 715 l 452 714 l 449 713 l 443 711 l 435 709 b 318 638 386 696 347 673 b 289 591 303 621 294 605 b 357 623 307 605 330 616 b 514 624 412 639 464 639 b 642 541 564 608 606 581 b 718 399 677 501 702 454 b 725 212 736 334 738 272 b 642 60 711 152 684 102 b 481 -29 599 19 545 -11 b 292 -36 415 -47 352 -50 b 135 51 231 -22 179 7 b 41 222 92 95 60 152 b 50 556 11 330 14 441 l 51 558 l 54 567 l 58 576 b 66 597 61 585 64 592 l 71 609 l 75 621 b 85 643 79 630 82 637 b 143 745 102 680 121 714 b 375 899 206 822 283 873 b 506 962 466 924 509 945 z "},"в":{"ha":564,"x_min":0,"x_max":0,"o":"m 237 537 b 292 524 258 537 276 532 b 311 485 304 516 311 503 b 295 444 311 467 305 453 b 243 429 283 434 266 429 l 213 429 l 213 537 z m 243 271 b 311 258 273 271 296 267 b 331 213 324 251 331 236 b 245 158 331 176 302 158 l 213 158 l 213 271 z m 458 349 b 435 366 449 356 441 361 b 484 414 453 376 469 393 b 510 506 501 440 510 471 b 469 619 510 553 496 591 b 364 677 443 646 408 666 b 224 694 322 689 275 694 l 0 694 l 0 0 l 264 0 b 463 55 353 0 419 18 b 530 199 508 91 530 139 b 522 259 530 221 528 241 b 497 309 515 277 507 294 b 458 349 485 326 472 339 z "},"г":{"ha":583,"x_min":0,"x_max":0,"o":"m 486 694 l 0 694 l 0 1 l 236 0 l 236 474 l 549 474 z "},"д":{"ha":835,"x_min":0,"x_max":0,"o":"m 347 188 b 388 424 365 224 379 302 l 388 502 l 499 502 l 499 188 z m 705 692 l 703 692 l 703 694 l 189 694 l 189 488 b 118 189 179 309 155 209 l 27 189 l 27 -159 l 202 -159 l 202 -7 l 650 -7 l 650 -159 l 826 -159 l 826 189 l 705 189 z "},"е":{"ha":796,"x_min":0,"x_max":0,"o":"m 514 460 b 467 503 499 478 484 492 b 381 526 440 518 412 526 b 296 503 351 526 322 518 b 248 460 279 492 263 478 l 514 460 z m 525 694 b 648 617 571 676 612 650 b 732 498 684 584 711 545 b 762 352 752 453 762 404 l 762 342 l 762 338 l 760 327 l 676 327 l 676 326 l 210 326 b 259 227 215 288 231 255 b 381 176 294 193 334 176 b 503 227 428 176 469 193 l 505 229 l 507 231 l 509 233 l 510 235 l 627 68 b 525 7 594 42 560 21 b 381 -20 479 -12 431 -20 b 193 28 314 -20 251 -4 b 53 161 134 60 87 105 b 0 352 18 218 0 281 b 31 498 0 405 10 454 b 115 616 51 544 79 583 b 237 694 151 651 191 677 b 381 722 283 713 331 722 b 525 694 431 722 479 713 z "},"ж":{"ha":1031,"x_min":0,"x_max":0,"o":"m 405 693 l 405 488 b 398 496 404 489 402 492 l 395 500 l 391 505 b 381 515 387 508 385 512 b 321 631 367 532 347 570 b 94 722 294 691 218 722 l 94 526 b 182 467 134 527 163 507 b 253 357 201 428 224 391 l 10 1 l 245 1 l 405 230 l 405 1 l 613 1 l 613 230 l 772 1 l 1008 1 l 765 357 b 836 467 793 391 817 428 b 924 526 854 507 884 527 l 924 722 b 698 631 799 722 724 691 b 637 515 671 570 651 531 b 627 505 633 512 631 508 l 623 500 l 620 496 b 613 488 616 492 614 489 l 613 693 z "},"з":{"ha":620,"x_min":0,"x_max":0,"o":"m 172 475 l 180 481 l 186 487 b 196 496 191 492 194 494 l 199 498 l 203 501 l 207 505 l 210 508 b 224 519 215 512 220 515 b 235 526 228 521 231 524 b 256 535 241 530 248 533 b 280 538 263 537 271 538 b 328 526 301 538 317 534 b 343 486 338 517 343 505 b 336 458 343 473 340 465 b 311 446 330 452 321 448 b 266 440 300 443 285 441 l 252 440 l 239 439 l 189 439 l 189 275 l 224 276 l 231 276 b 245 277 239 276 243 276 l 273 277 b 345 265 303 277 327 273 b 361 231 355 260 361 249 b 343 188 361 211 355 197 b 288 172 329 178 310 172 b 231 186 265 172 246 177 b 162 253 214 195 191 217 l 7 107 b 98 31 37 75 68 50 b 191 -10 127 13 159 -1 b 288 -24 222 -20 255 -24 b 398 -12 327 -24 363 -20 b 496 31 434 -3 467 12 b 568 106 526 50 549 75 b 593 214 585 136 593 172 b 580 284 593 237 589 260 b 541 346 569 308 556 329 b 511 375 524 363 514 373 b 543 420 519 382 530 397 b 561 503 555 444 561 471 b 526 621 561 547 549 586 b 431 696 502 653 471 678 b 304 722 391 713 349 722 b 144 688 246 722 193 711 b 10 563 95 665 50 623 z "},"и":{"ha":672,"x_min":0,"x_max":0,"o":"m 26 695 l 27 -28 l 454 310 l 455 -2 l 665 -2 l 665 718 l 239 417 l 239 696 z "},"й":{"ha":672,"x_min":0,"x_max":0,"o":"m 26 695 l 27 -28 l 454 310 l 455 -2 l 665 -2 l 665 718 l 239 417 l 239 696 z m 609 1019 b 530 846 602 944 575 886 b 342 785 484 805 422 785 b 208 814 293 785 248 795 b 115 899 169 834 138 862 b 81 1019 93 935 82 975 l 244 1019 b 277 960 249 994 260 975 b 347 939 296 946 319 939 b 414 960 374 939 397 946 b 447 1019 431 975 442 994 z "},"к":{"ha":635,"x_min":0,"x_max":0,"o":"m 0 1 l 205 1 l 205 230 l 364 1 l 600 1 l 357 357 b 427 467 385 391 409 428 b 516 526 446 507 476 527 l 516 722 b 290 631 391 722 315 691 b 229 515 263 570 243 531 l 205 488 l 205 693 l 0 693 z "},"л":{"ha":814,"x_min":0,"x_max":0,"o":"m 581 479 l 581 1 l 581 1 l 581 0 l 793 1 l 793 693 l 789 693 l 789 694 l 156 694 l 156 287 b 140 216 156 256 151 232 b 95 186 130 200 115 190 b 13 178 74 181 47 178 l 77 0 b 216 17 134 0 180 5 b 302 66 252 27 281 43 b 347 148 322 86 337 113 b 359 268 355 181 359 221 l 359 479 z "},"м":{"ha":709,"x_min":0,"x_max":0,"o":"m 366 450 l 34 722 l 34 3 l 257 3 l 258 263 l 365 161 l 483 269 l 483 4 l 709 3 l 709 721 z "},"н":{"ha":693,"x_min":0,"x_max":0,"o":"m 214 260 l 448 260 l 448 1 l 661 1 l 661 696 l 448 696 l 448 466 l 214 466 l 214 696 l 1 696 l 1 1 l 214 1 z "}}}
